G04 #@! TF.FileFunction,Legend,Top*
%FSLAX46Y46*%
G04 Gerber Fmt 4.6, Leading zero omitted, Abs format (unit mm)*
G04 Created by KiCad (PCBNEW 4.0.5) date 06/09/17 23:26:50*
%MOMM*%
%LPD*%
G01*
G04 APERTURE LIST*
%ADD10C,0.100000*%
%ADD11C,0.120000*%
%ADD12C,0.150000*%
G04 APERTURE END LIST*
D10*
D11*
X132080000Y-93134000D02*
X132080000Y-94934000D01*
X132980000Y-94034000D02*
X131180000Y-94034000D01*
X134640000Y-91324000D02*
X129520000Y-91324000D01*
X134640000Y-102444000D02*
X129520000Y-102444000D01*
X134640000Y-91324000D02*
X134640000Y-93124000D01*
X134640000Y-93124000D02*
X133740000Y-94024000D01*
X133740000Y-94024000D02*
X134640000Y-94924000D01*
X134640000Y-94924000D02*
X134640000Y-102444000D01*
X129520000Y-91324000D02*
X129520000Y-93124000D01*
X129520000Y-93124000D02*
X130420000Y-94024000D01*
X130420000Y-94024000D02*
X129520000Y-94924000D01*
X129520000Y-94924000D02*
X129520000Y-102444000D01*
X132080000Y-89264000D02*
X132080000Y-91324000D01*
X132080000Y-104504000D02*
X132080000Y-102444000D01*
X143805993Y-111416853D02*
X140688302Y-113216853D01*
X143845077Y-111407593D02*
G75*
G02X144472148Y-116170666I-672929J-2511407D01*
G01*
X140660741Y-113246071D02*
G75*
G03X144472148Y-116170666I2511407J-672929D01*
G01*
X139700000Y-96860000D02*
X139700000Y-98060000D01*
X140350000Y-97460000D02*
X139050000Y-97460000D01*
X143790000Y-100310000D02*
G75*
G03X143790000Y-100310000I-4090000J0D01*
G01*
X176276000Y-93930000D02*
X176276000Y-95730000D01*
X177176000Y-94830000D02*
X175376000Y-94830000D01*
X178836000Y-92120000D02*
X173716000Y-92120000D01*
X178836000Y-103240000D02*
X173716000Y-103240000D01*
X178836000Y-92120000D02*
X178836000Y-93920000D01*
X178836000Y-93920000D02*
X177936000Y-94820000D01*
X177936000Y-94820000D02*
X178836000Y-95720000D01*
X178836000Y-95720000D02*
X178836000Y-103240000D01*
X173716000Y-92120000D02*
X173716000Y-93920000D01*
X173716000Y-93920000D02*
X174616000Y-94820000D01*
X174616000Y-94820000D02*
X173716000Y-95720000D01*
X173716000Y-95720000D02*
X173716000Y-103240000D01*
X176276000Y-90060000D02*
X176276000Y-92120000D01*
X176276000Y-105300000D02*
X176276000Y-103240000D01*
X126886000Y-86748000D02*
X124066000Y-86748000D01*
X124066000Y-86748000D02*
X124066000Y-92068000D01*
X124066000Y-92068000D02*
X126886000Y-92068000D01*
X126886000Y-92068000D02*
X126886000Y-86748000D01*
X125476000Y-85408000D02*
X125476000Y-86748000D01*
X125476000Y-93408000D02*
X125476000Y-92068000D01*
X126886000Y-87588000D02*
X124066000Y-87588000D01*
X168028000Y-143878000D02*
X168028000Y-146698000D01*
X168028000Y-146698000D02*
X173348000Y-146698000D01*
X173348000Y-146698000D02*
X173348000Y-143878000D01*
X173348000Y-143878000D02*
X168028000Y-143878000D01*
X166688000Y-145288000D02*
X168028000Y-145288000D01*
X174688000Y-145288000D02*
X173348000Y-145288000D01*
X168868000Y-143878000D02*
X168868000Y-146698000D01*
X176904000Y-141618000D02*
X176904000Y-138798000D01*
X176904000Y-138798000D02*
X171584000Y-138798000D01*
X171584000Y-138798000D02*
X171584000Y-141618000D01*
X171584000Y-141618000D02*
X176904000Y-141618000D01*
X178244000Y-140208000D02*
X176904000Y-140208000D01*
X170244000Y-140208000D02*
X171584000Y-140208000D01*
X176064000Y-141618000D02*
X176064000Y-138798000D01*
X161308000Y-100584486D02*
G75*
G03X152658000Y-98442855I-4590000J486D01*
G01*
X161308000Y-100583514D02*
G75*
G02X152658000Y-102725145I-4590000J-486D01*
G01*
X160718000Y-100584000D02*
G75*
G03X160718000Y-100584000I-4000000J0D01*
G01*
X152658000Y-98442000D02*
X152658000Y-102726000D01*
X186830000Y-95892000D02*
X184010000Y-95892000D01*
X184010000Y-95892000D02*
X184010000Y-101212000D01*
X184010000Y-101212000D02*
X186830000Y-101212000D01*
X186830000Y-101212000D02*
X186830000Y-95892000D01*
X185420000Y-94552000D02*
X185420000Y-95892000D01*
X185420000Y-102552000D02*
X185420000Y-101212000D01*
X186830000Y-96732000D02*
X184010000Y-96732000D01*
X200272000Y-131458000D02*
X200272000Y-128638000D01*
X200272000Y-128638000D02*
X194952000Y-128638000D01*
X194952000Y-128638000D02*
X194952000Y-131458000D01*
X194952000Y-131458000D02*
X200272000Y-131458000D01*
X201612000Y-130048000D02*
X200272000Y-130048000D01*
X193612000Y-130048000D02*
X194952000Y-130048000D01*
X199432000Y-131458000D02*
X199432000Y-128638000D01*
D12*
X122682000Y-105410000D02*
X122682000Y-110490000D01*
X127127000Y-105410000D02*
X127127000Y-110490000D01*
X120777000Y-110490000D02*
X120777000Y-105410000D01*
X120777000Y-110490000D02*
X127127000Y-110490000D01*
X120777000Y-105410000D02*
X127127000Y-105410000D01*
X120269000Y-127254000D02*
X126619000Y-127254000D01*
X120269000Y-119634000D02*
X126619000Y-119634000D01*
X122174000Y-119634000D02*
X122174000Y-127254000D01*
X120269000Y-127254000D02*
X120269000Y-119634000D01*
X126619000Y-119634000D02*
X126619000Y-127254000D01*
X190754000Y-101346000D02*
X195834000Y-101346000D01*
X190754000Y-96901000D02*
X195834000Y-96901000D01*
X195834000Y-103251000D02*
X190754000Y-103251000D01*
X195834000Y-103251000D02*
X195834000Y-96901000D01*
X190754000Y-103251000D02*
X190754000Y-96901000D01*
D11*
X143465698Y-125386853D02*
X140348007Y-127186853D01*
X143504782Y-125377593D02*
G75*
G02X144131853Y-130140666I-672929J-2511407D01*
G01*
X140320446Y-127216071D02*
G75*
G03X144131853Y-130140666I2511407J-672929D01*
G01*
X147869993Y-117004853D02*
X144752302Y-118804853D01*
X147909077Y-116995593D02*
G75*
G02X148536148Y-121758666I-672929J-2511407D01*
G01*
X144724741Y-118834071D02*
G75*
G03X148536148Y-121758666I2511407J-672929D01*
G01*
X147529698Y-131482853D02*
X144412007Y-133282853D01*
X147568782Y-131473593D02*
G75*
G02X148195853Y-136236666I-672929J-2511407D01*
G01*
X144384446Y-133312071D02*
G75*
G03X148195853Y-136236666I2511407J-672929D01*
G01*
X130262000Y-119542000D02*
X132882000Y-119542000D01*
X132882000Y-119542000D02*
X132882000Y-113122000D01*
X132882000Y-113122000D02*
X130262000Y-113122000D01*
X130262000Y-113122000D02*
X130262000Y-119542000D01*
X131572000Y-120432000D02*
X131572000Y-119542000D01*
X131572000Y-112232000D02*
X131572000Y-113122000D01*
X130262000Y-135290000D02*
X132882000Y-135290000D01*
X132882000Y-135290000D02*
X132882000Y-128870000D01*
X132882000Y-128870000D02*
X130262000Y-128870000D01*
X130262000Y-128870000D02*
X130262000Y-135290000D01*
X131572000Y-136180000D02*
X131572000Y-135290000D01*
X131572000Y-127980000D02*
X131572000Y-128870000D01*
X138978000Y-113122000D02*
X136358000Y-113122000D01*
X136358000Y-113122000D02*
X136358000Y-119542000D01*
X136358000Y-119542000D02*
X138978000Y-119542000D01*
X138978000Y-119542000D02*
X138978000Y-113122000D01*
X137668000Y-112232000D02*
X137668000Y-113122000D01*
X137668000Y-120432000D02*
X137668000Y-119542000D01*
X138470000Y-128870000D02*
X135850000Y-128870000D01*
X135850000Y-128870000D02*
X135850000Y-135290000D01*
X135850000Y-135290000D02*
X138470000Y-135290000D01*
X138470000Y-135290000D02*
X138470000Y-128870000D01*
X137160000Y-127980000D02*
X137160000Y-128870000D01*
X137160000Y-136180000D02*
X137160000Y-135290000D01*
X155742000Y-114646000D02*
X153122000Y-114646000D01*
X153122000Y-114646000D02*
X153122000Y-121066000D01*
X153122000Y-121066000D02*
X155742000Y-121066000D01*
X155742000Y-121066000D02*
X155742000Y-114646000D01*
X154432000Y-113756000D02*
X154432000Y-114646000D01*
X154432000Y-121956000D02*
X154432000Y-121066000D01*
X153122000Y-135798000D02*
X155742000Y-135798000D01*
X155742000Y-135798000D02*
X155742000Y-129378000D01*
X155742000Y-129378000D02*
X153122000Y-129378000D01*
X153122000Y-129378000D02*
X153122000Y-135798000D01*
X154432000Y-136688000D02*
X154432000Y-135798000D01*
X154432000Y-128488000D02*
X154432000Y-129378000D01*
X165314000Y-131226000D02*
X167934000Y-131226000D01*
X167934000Y-131226000D02*
X167934000Y-124806000D01*
X167934000Y-124806000D02*
X165314000Y-124806000D01*
X165314000Y-124806000D02*
X165314000Y-131226000D01*
X166624000Y-132116000D02*
X166624000Y-131226000D01*
X166624000Y-123916000D02*
X166624000Y-124806000D01*
X163362000Y-124806000D02*
X160742000Y-124806000D01*
X160742000Y-124806000D02*
X160742000Y-131226000D01*
X160742000Y-131226000D02*
X163362000Y-131226000D01*
X163362000Y-131226000D02*
X163362000Y-124806000D01*
X162052000Y-123916000D02*
X162052000Y-124806000D01*
X162052000Y-132116000D02*
X162052000Y-131226000D01*
X177638000Y-122134000D02*
X177638000Y-124754000D01*
X177638000Y-124754000D02*
X184058000Y-124754000D01*
X184058000Y-124754000D02*
X184058000Y-122134000D01*
X184058000Y-122134000D02*
X177638000Y-122134000D01*
X176748000Y-123444000D02*
X177638000Y-123444000D01*
X184948000Y-123444000D02*
X184058000Y-123444000D01*
X184058000Y-120182000D02*
X184058000Y-117562000D01*
X184058000Y-117562000D02*
X177638000Y-117562000D01*
X177638000Y-117562000D02*
X177638000Y-120182000D01*
X177638000Y-120182000D02*
X184058000Y-120182000D01*
X184948000Y-118872000D02*
X184058000Y-118872000D01*
X176748000Y-118872000D02*
X177638000Y-118872000D01*
X179162000Y-109434000D02*
X179162000Y-112054000D01*
X179162000Y-112054000D02*
X185582000Y-112054000D01*
X185582000Y-112054000D02*
X185582000Y-109434000D01*
X185582000Y-109434000D02*
X179162000Y-109434000D01*
X178272000Y-110744000D02*
X179162000Y-110744000D01*
X186472000Y-110744000D02*
X185582000Y-110744000D01*
X162774000Y-111414000D02*
X165394000Y-111414000D01*
X165394000Y-111414000D02*
X165394000Y-104994000D01*
X165394000Y-104994000D02*
X162774000Y-104994000D01*
X162774000Y-104994000D02*
X162774000Y-111414000D01*
X164084000Y-112304000D02*
X164084000Y-111414000D01*
X164084000Y-104104000D02*
X164084000Y-104994000D01*
X170822000Y-131810000D02*
X170822000Y-133580000D01*
X170822000Y-133580000D02*
X188842000Y-133580000D01*
X188842000Y-133580000D02*
X188842000Y-128040000D01*
X188842000Y-128040000D02*
X170822000Y-128040000D01*
X170822000Y-128040000D02*
X170822000Y-129810000D01*
X170822000Y-129810000D02*
G75*
G02X170822000Y-131810000I0J-1000000D01*
G01*
X148844000Y-91102000D02*
X148844000Y-92902000D01*
X149744000Y-92002000D02*
X147944000Y-92002000D01*
X151404000Y-89292000D02*
X146284000Y-89292000D01*
X151404000Y-100412000D02*
X146284000Y-100412000D01*
X151404000Y-89292000D02*
X151404000Y-91092000D01*
X151404000Y-91092000D02*
X150504000Y-91992000D01*
X150504000Y-91992000D02*
X151404000Y-92892000D01*
X151404000Y-92892000D02*
X151404000Y-100412000D01*
X146284000Y-89292000D02*
X146284000Y-91092000D01*
X146284000Y-91092000D02*
X147184000Y-91992000D01*
X147184000Y-91992000D02*
X146284000Y-92892000D01*
X146284000Y-92892000D02*
X146284000Y-100412000D01*
X148844000Y-87232000D02*
X148844000Y-89292000D01*
X148844000Y-102472000D02*
X148844000Y-100412000D01*
X168478000Y-82373000D02*
X168478000Y-99214000D01*
X163238000Y-82373000D02*
X163238000Y-83844000D01*
X163238000Y-86844000D02*
X163238000Y-89294000D01*
X163238000Y-92294000D02*
X163238000Y-94744000D01*
X163238000Y-97744000D02*
X163238000Y-99214000D01*
X168478000Y-82373000D02*
X163238000Y-82373000D01*
X168478000Y-99214000D02*
X163238000Y-99214000D01*
X167738000Y-82373000D02*
X167738000Y-83844000D01*
X167738000Y-86844000D02*
X167738000Y-89294000D01*
X167738000Y-92294000D02*
X167738000Y-94744000D01*
X167738000Y-97744000D02*
X167738000Y-99214000D01*
X168478000Y-88990000D02*
X167738000Y-88990000D01*
X168478000Y-92599000D02*
X167738000Y-92599000D01*
D12*
X131405334Y-109577143D02*
X131357715Y-109624762D01*
X131214858Y-109672381D01*
X131119620Y-109672381D01*
X130976762Y-109624762D01*
X130881524Y-109529524D01*
X130833905Y-109434286D01*
X130786286Y-109243810D01*
X130786286Y-109100952D01*
X130833905Y-108910476D01*
X130881524Y-108815238D01*
X130976762Y-108720000D01*
X131119620Y-108672381D01*
X131214858Y-108672381D01*
X131357715Y-108720000D01*
X131405334Y-108767619D01*
X131786286Y-108767619D02*
X131833905Y-108720000D01*
X131929143Y-108672381D01*
X132167239Y-108672381D01*
X132262477Y-108720000D01*
X132310096Y-108767619D01*
X132357715Y-108862857D01*
X132357715Y-108958095D01*
X132310096Y-109100952D01*
X131738667Y-109672381D01*
X132357715Y-109672381D01*
X139570690Y-115888331D02*
X139564310Y-115782043D01*
X139599170Y-115651945D01*
X139651459Y-115456799D01*
X139645079Y-115350510D01*
X139597460Y-115268032D01*
X139415073Y-115428318D02*
X139408693Y-115322030D01*
X139443553Y-115191933D01*
X139584700Y-115055456D01*
X139873376Y-114888789D01*
X140062143Y-114834790D01*
X140192240Y-114869649D01*
X140281098Y-114928318D01*
X140376337Y-115093276D01*
X140382717Y-115199564D01*
X140347857Y-115329662D01*
X140206710Y-115466139D01*
X139918034Y-115632806D01*
X139729267Y-115686805D01*
X139599170Y-115651945D01*
X139510312Y-115593276D01*
X139415073Y-115428318D01*
X140105550Y-116624259D02*
X139819835Y-116129387D01*
X139962692Y-116376822D02*
X140828717Y-115876822D01*
X140657381Y-115865772D01*
X140527283Y-115830913D01*
X140438425Y-115772244D01*
X137501334Y-106021143D02*
X137453715Y-106068762D01*
X137310858Y-106116381D01*
X137215620Y-106116381D01*
X137072762Y-106068762D01*
X136977524Y-105973524D01*
X136929905Y-105878286D01*
X136882286Y-105687810D01*
X136882286Y-105544952D01*
X136929905Y-105354476D01*
X136977524Y-105259238D01*
X137072762Y-105164000D01*
X137215620Y-105116381D01*
X137310858Y-105116381D01*
X137453715Y-105164000D01*
X137501334Y-105211619D01*
X138453715Y-106116381D02*
X137882286Y-106116381D01*
X138168000Y-106116381D02*
X138168000Y-105116381D01*
X138072762Y-105259238D01*
X137977524Y-105354476D01*
X137882286Y-105402095D01*
X180193143Y-97846666D02*
X180240762Y-97894285D01*
X180288381Y-98037142D01*
X180288381Y-98132380D01*
X180240762Y-98275238D01*
X180145524Y-98370476D01*
X180050286Y-98418095D01*
X179859810Y-98465714D01*
X179716952Y-98465714D01*
X179526476Y-98418095D01*
X179431238Y-98370476D01*
X179336000Y-98275238D01*
X179288381Y-98132380D01*
X179288381Y-98037142D01*
X179336000Y-97894285D01*
X179383619Y-97846666D01*
X179621714Y-96989523D02*
X180288381Y-96989523D01*
X179240762Y-97227619D02*
X179955048Y-97465714D01*
X179955048Y-96846666D01*
X124737905Y-82240381D02*
X124737905Y-81240381D01*
X124976000Y-81240381D01*
X125118858Y-81288000D01*
X125214096Y-81383238D01*
X125261715Y-81478476D01*
X125309334Y-81668952D01*
X125309334Y-81811810D01*
X125261715Y-82002286D01*
X125214096Y-82097524D01*
X125118858Y-82192762D01*
X124976000Y-82240381D01*
X124737905Y-82240381D01*
X126261715Y-82240381D02*
X125690286Y-82240381D01*
X125976000Y-82240381D02*
X125976000Y-81240381D01*
X125880762Y-81383238D01*
X125785524Y-81478476D01*
X125690286Y-81526095D01*
X177569905Y-145740381D02*
X177569905Y-144740381D01*
X177808000Y-144740381D01*
X177950858Y-144788000D01*
X178046096Y-144883238D01*
X178093715Y-144978476D01*
X178141334Y-145168952D01*
X178141334Y-145311810D01*
X178093715Y-145502286D01*
X178046096Y-145597524D01*
X177950858Y-145692762D01*
X177808000Y-145740381D01*
X177569905Y-145740381D01*
X178522286Y-144835619D02*
X178569905Y-144788000D01*
X178665143Y-144740381D01*
X178903239Y-144740381D01*
X178998477Y-144788000D01*
X179046096Y-144835619D01*
X179093715Y-144930857D01*
X179093715Y-145026095D01*
X179046096Y-145168952D01*
X178474667Y-145740381D01*
X179093715Y-145740381D01*
X181125905Y-140660381D02*
X181125905Y-139660381D01*
X181364000Y-139660381D01*
X181506858Y-139708000D01*
X181602096Y-139803238D01*
X181649715Y-139898476D01*
X181697334Y-140088952D01*
X181697334Y-140231810D01*
X181649715Y-140422286D01*
X181602096Y-140517524D01*
X181506858Y-140612762D01*
X181364000Y-140660381D01*
X181125905Y-140660381D01*
X182030667Y-139660381D02*
X182649715Y-139660381D01*
X182316381Y-140041333D01*
X182459239Y-140041333D01*
X182554477Y-140088952D01*
X182602096Y-140136571D01*
X182649715Y-140231810D01*
X182649715Y-140469905D01*
X182602096Y-140565143D01*
X182554477Y-140612762D01*
X182459239Y-140660381D01*
X182173524Y-140660381D01*
X182078286Y-140612762D01*
X182030667Y-140565143D01*
X155979905Y-95476381D02*
X155979905Y-94476381D01*
X156218000Y-94476381D01*
X156360858Y-94524000D01*
X156456096Y-94619238D01*
X156503715Y-94714476D01*
X156551334Y-94904952D01*
X156551334Y-95047810D01*
X156503715Y-95238286D01*
X156456096Y-95333524D01*
X156360858Y-95428762D01*
X156218000Y-95476381D01*
X155979905Y-95476381D01*
X157408477Y-94809714D02*
X157408477Y-95476381D01*
X157170381Y-94428762D02*
X156932286Y-95143048D01*
X157551334Y-95143048D01*
X188282381Y-99290095D02*
X187282381Y-99290095D01*
X187282381Y-99052000D01*
X187330000Y-98909142D01*
X187425238Y-98813904D01*
X187520476Y-98766285D01*
X187710952Y-98718666D01*
X187853810Y-98718666D01*
X188044286Y-98766285D01*
X188139524Y-98813904D01*
X188234762Y-98909142D01*
X188282381Y-99052000D01*
X188282381Y-99290095D01*
X187282381Y-97813904D02*
X187282381Y-98290095D01*
X187758571Y-98337714D01*
X187710952Y-98290095D01*
X187663333Y-98194857D01*
X187663333Y-97956761D01*
X187710952Y-97861523D01*
X187758571Y-97813904D01*
X187853810Y-97766285D01*
X188091905Y-97766285D01*
X188187143Y-97813904D01*
X188234762Y-97861523D01*
X188282381Y-97956761D01*
X188282381Y-98194857D01*
X188234762Y-98290095D01*
X188187143Y-98337714D01*
X196873905Y-132910381D02*
X196873905Y-131910381D01*
X197112000Y-131910381D01*
X197254858Y-131958000D01*
X197350096Y-132053238D01*
X197397715Y-132148476D01*
X197445334Y-132338952D01*
X197445334Y-132481810D01*
X197397715Y-132672286D01*
X197350096Y-132767524D01*
X197254858Y-132862762D01*
X197112000Y-132910381D01*
X196873905Y-132910381D01*
X198302477Y-131910381D02*
X198112000Y-131910381D01*
X198016762Y-131958000D01*
X197969143Y-132005619D01*
X197873905Y-132148476D01*
X197826286Y-132338952D01*
X197826286Y-132719905D01*
X197873905Y-132815143D01*
X197921524Y-132862762D01*
X198016762Y-132910381D01*
X198207239Y-132910381D01*
X198302477Y-132862762D01*
X198350096Y-132815143D01*
X198397715Y-132719905D01*
X198397715Y-132481810D01*
X198350096Y-132386571D01*
X198302477Y-132338952D01*
X198207239Y-132291333D01*
X198016762Y-132291333D01*
X197921524Y-132338952D01*
X197873905Y-132386571D01*
X197826286Y-132481810D01*
X123721905Y-112212381D02*
X123721905Y-111212381D01*
X124102858Y-111212381D01*
X124198096Y-111260000D01*
X124245715Y-111307619D01*
X124293334Y-111402857D01*
X124293334Y-111545714D01*
X124245715Y-111640952D01*
X124198096Y-111688571D01*
X124102858Y-111736190D01*
X123721905Y-111736190D01*
X125245715Y-112212381D02*
X124674286Y-112212381D01*
X124960000Y-112212381D02*
X124960000Y-111212381D01*
X124864762Y-111355238D01*
X124769524Y-111450476D01*
X124674286Y-111498095D01*
X122705905Y-128976381D02*
X122705905Y-127976381D01*
X123086858Y-127976381D01*
X123182096Y-128024000D01*
X123229715Y-128071619D01*
X123277334Y-128166857D01*
X123277334Y-128309714D01*
X123229715Y-128404952D01*
X123182096Y-128452571D01*
X123086858Y-128500190D01*
X122705905Y-128500190D01*
X123658286Y-128071619D02*
X123705905Y-128024000D01*
X123801143Y-127976381D01*
X124039239Y-127976381D01*
X124134477Y-128024000D01*
X124182096Y-128071619D01*
X124229715Y-128166857D01*
X124229715Y-128262095D01*
X124182096Y-128404952D01*
X123610667Y-128976381D01*
X124229715Y-128976381D01*
X192555905Y-104428381D02*
X192555905Y-103428381D01*
X192936858Y-103428381D01*
X193032096Y-103476000D01*
X193079715Y-103523619D01*
X193127334Y-103618857D01*
X193127334Y-103761714D01*
X193079715Y-103856952D01*
X193032096Y-103904571D01*
X192936858Y-103952190D01*
X192555905Y-103952190D01*
X193460667Y-103428381D02*
X194079715Y-103428381D01*
X193746381Y-103809333D01*
X193889239Y-103809333D01*
X193984477Y-103856952D01*
X194032096Y-103904571D01*
X194079715Y-103999810D01*
X194079715Y-104237905D01*
X194032096Y-104333143D01*
X193984477Y-104380762D01*
X193889239Y-104428381D01*
X193603524Y-104428381D01*
X193508286Y-104380762D01*
X193460667Y-104333143D01*
X139686129Y-130747331D02*
X139679749Y-130641043D01*
X139714609Y-130510945D01*
X139766898Y-130315799D01*
X139760518Y-130209510D01*
X139712899Y-130127032D01*
X139530512Y-130287318D02*
X139524132Y-130181030D01*
X139558992Y-130050933D01*
X139700139Y-129914456D01*
X139988815Y-129747789D01*
X140177582Y-129693790D01*
X140307679Y-129728649D01*
X140396537Y-129787318D01*
X140491776Y-129952276D01*
X140498156Y-130058564D01*
X140463296Y-130188662D01*
X140322149Y-130325139D01*
X140033473Y-130491806D01*
X139844706Y-130545805D01*
X139714609Y-130510945D01*
X139625751Y-130452276D01*
X139530512Y-130287318D01*
X140718821Y-130536006D02*
X140783870Y-130553436D01*
X140872728Y-130612105D01*
X140991776Y-130818302D01*
X140998156Y-130924590D01*
X140980726Y-130989639D01*
X140922057Y-131078497D01*
X140839578Y-131126116D01*
X140692051Y-131156305D01*
X139911465Y-130947148D01*
X140220989Y-131483259D01*
X143668720Y-122043272D02*
X143662340Y-121936984D01*
X143697200Y-121806886D01*
X143749489Y-121611740D01*
X143743109Y-121505451D01*
X143695490Y-121422973D01*
X143513103Y-121583259D02*
X143506723Y-121476971D01*
X143541583Y-121346874D01*
X143682730Y-121210397D01*
X143971406Y-121043730D01*
X144160173Y-120989731D01*
X144290270Y-121024590D01*
X144379128Y-121083259D01*
X144474367Y-121248217D01*
X144480747Y-121354505D01*
X144445887Y-121484603D01*
X144304740Y-121621080D01*
X144016064Y-121787747D01*
X143827297Y-121841746D01*
X143697200Y-121806886D01*
X143608342Y-121748217D01*
X143513103Y-121583259D01*
X144760081Y-121743089D02*
X145069605Y-122279200D01*
X144573024Y-122181000D01*
X144644453Y-122304719D01*
X144650833Y-122411007D01*
X144633403Y-122476056D01*
X144574733Y-122564914D01*
X144368537Y-122683962D01*
X144262249Y-122690342D01*
X144197200Y-122672912D01*
X144108342Y-122614243D01*
X143965484Y-122366806D01*
X143959104Y-122260518D01*
X143976534Y-122195470D01*
X143242129Y-136335331D02*
X143235749Y-136229043D01*
X143270609Y-136098945D01*
X143322898Y-135903799D01*
X143316518Y-135797510D01*
X143268899Y-135715032D01*
X143086512Y-135875318D02*
X143080132Y-135769030D01*
X143114992Y-135638933D01*
X143256139Y-135502456D01*
X143544815Y-135335789D01*
X143733582Y-135281790D01*
X143863679Y-135316649D01*
X143952537Y-135375318D01*
X144047776Y-135540276D01*
X144054156Y-135646564D01*
X144019296Y-135776662D01*
X143878149Y-135913139D01*
X143589473Y-136079806D01*
X143400706Y-136133805D01*
X143270609Y-136098945D01*
X143181751Y-136040276D01*
X143086512Y-135875318D01*
X144306720Y-136655447D02*
X143729370Y-136988780D01*
X144517586Y-136258774D02*
X143779949Y-136409720D01*
X144089473Y-136945832D01*
X131405334Y-124404381D02*
X131072000Y-123928190D01*
X130833905Y-124404381D02*
X130833905Y-123404381D01*
X131214858Y-123404381D01*
X131310096Y-123452000D01*
X131357715Y-123499619D01*
X131405334Y-123594857D01*
X131405334Y-123737714D01*
X131357715Y-123832952D01*
X131310096Y-123880571D01*
X131214858Y-123928190D01*
X130833905Y-123928190D01*
X132357715Y-124404381D02*
X131786286Y-124404381D01*
X132072000Y-124404381D02*
X132072000Y-123404381D01*
X131976762Y-123547238D01*
X131881524Y-123642476D01*
X131786286Y-123690095D01*
X131405334Y-140152381D02*
X131072000Y-139676190D01*
X130833905Y-140152381D02*
X130833905Y-139152381D01*
X131214858Y-139152381D01*
X131310096Y-139200000D01*
X131357715Y-139247619D01*
X131405334Y-139342857D01*
X131405334Y-139485714D01*
X131357715Y-139580952D01*
X131310096Y-139628571D01*
X131214858Y-139676190D01*
X130833905Y-139676190D01*
X131786286Y-139247619D02*
X131833905Y-139200000D01*
X131929143Y-139152381D01*
X132167239Y-139152381D01*
X132262477Y-139200000D01*
X132310096Y-139247619D01*
X132357715Y-139342857D01*
X132357715Y-139438095D01*
X132310096Y-139580952D01*
X131738667Y-140152381D01*
X132357715Y-140152381D01*
X137501334Y-109672381D02*
X137168000Y-109196190D01*
X136929905Y-109672381D02*
X136929905Y-108672381D01*
X137310858Y-108672381D01*
X137406096Y-108720000D01*
X137453715Y-108767619D01*
X137501334Y-108862857D01*
X137501334Y-109005714D01*
X137453715Y-109100952D01*
X137406096Y-109148571D01*
X137310858Y-109196190D01*
X136929905Y-109196190D01*
X137834667Y-108672381D02*
X138453715Y-108672381D01*
X138120381Y-109053333D01*
X138263239Y-109053333D01*
X138358477Y-109100952D01*
X138406096Y-109148571D01*
X138453715Y-109243810D01*
X138453715Y-109481905D01*
X138406096Y-109577143D01*
X138358477Y-109624762D01*
X138263239Y-109672381D01*
X137977524Y-109672381D01*
X137882286Y-109624762D01*
X137834667Y-109577143D01*
X136993334Y-140152381D02*
X136660000Y-139676190D01*
X136421905Y-140152381D02*
X136421905Y-139152381D01*
X136802858Y-139152381D01*
X136898096Y-139200000D01*
X136945715Y-139247619D01*
X136993334Y-139342857D01*
X136993334Y-139485714D01*
X136945715Y-139580952D01*
X136898096Y-139628571D01*
X136802858Y-139676190D01*
X136421905Y-139676190D01*
X137850477Y-139485714D02*
X137850477Y-140152381D01*
X137612381Y-139104762D02*
X137374286Y-139819048D01*
X137993334Y-139819048D01*
X154773334Y-125420381D02*
X154440000Y-124944190D01*
X154201905Y-125420381D02*
X154201905Y-124420381D01*
X154582858Y-124420381D01*
X154678096Y-124468000D01*
X154725715Y-124515619D01*
X154773334Y-124610857D01*
X154773334Y-124753714D01*
X154725715Y-124848952D01*
X154678096Y-124896571D01*
X154582858Y-124944190D01*
X154201905Y-124944190D01*
X155678096Y-124420381D02*
X155201905Y-124420381D01*
X155154286Y-124896571D01*
X155201905Y-124848952D01*
X155297143Y-124801333D01*
X155535239Y-124801333D01*
X155630477Y-124848952D01*
X155678096Y-124896571D01*
X155725715Y-124991810D01*
X155725715Y-125229905D01*
X155678096Y-125325143D01*
X155630477Y-125372762D01*
X155535239Y-125420381D01*
X155297143Y-125420381D01*
X155201905Y-125372762D01*
X155154286Y-125325143D01*
X152741334Y-140660381D02*
X152408000Y-140184190D01*
X152169905Y-140660381D02*
X152169905Y-139660381D01*
X152550858Y-139660381D01*
X152646096Y-139708000D01*
X152693715Y-139755619D01*
X152741334Y-139850857D01*
X152741334Y-139993714D01*
X152693715Y-140088952D01*
X152646096Y-140136571D01*
X152550858Y-140184190D01*
X152169905Y-140184190D01*
X153598477Y-139660381D02*
X153408000Y-139660381D01*
X153312762Y-139708000D01*
X153265143Y-139755619D01*
X153169905Y-139898476D01*
X153122286Y-140088952D01*
X153122286Y-140469905D01*
X153169905Y-140565143D01*
X153217524Y-140612762D01*
X153312762Y-140660381D01*
X153503239Y-140660381D01*
X153598477Y-140612762D01*
X153646096Y-140565143D01*
X153693715Y-140469905D01*
X153693715Y-140231810D01*
X153646096Y-140136571D01*
X153598477Y-140088952D01*
X153503239Y-140041333D01*
X153312762Y-140041333D01*
X153217524Y-140088952D01*
X153169905Y-140136571D01*
X153122286Y-140231810D01*
X166457334Y-120848381D02*
X166124000Y-120372190D01*
X165885905Y-120848381D02*
X165885905Y-119848381D01*
X166266858Y-119848381D01*
X166362096Y-119896000D01*
X166409715Y-119943619D01*
X166457334Y-120038857D01*
X166457334Y-120181714D01*
X166409715Y-120276952D01*
X166362096Y-120324571D01*
X166266858Y-120372190D01*
X165885905Y-120372190D01*
X166790667Y-119848381D02*
X167457334Y-119848381D01*
X167028762Y-120848381D01*
X161885334Y-120848381D02*
X161552000Y-120372190D01*
X161313905Y-120848381D02*
X161313905Y-119848381D01*
X161694858Y-119848381D01*
X161790096Y-119896000D01*
X161837715Y-119943619D01*
X161885334Y-120038857D01*
X161885334Y-120181714D01*
X161837715Y-120276952D01*
X161790096Y-120324571D01*
X161694858Y-120372190D01*
X161313905Y-120372190D01*
X162456762Y-120276952D02*
X162361524Y-120229333D01*
X162313905Y-120181714D01*
X162266286Y-120086476D01*
X162266286Y-120038857D01*
X162313905Y-119943619D01*
X162361524Y-119896000D01*
X162456762Y-119848381D01*
X162647239Y-119848381D01*
X162742477Y-119896000D01*
X162790096Y-119943619D01*
X162837715Y-120038857D01*
X162837715Y-120086476D01*
X162790096Y-120181714D01*
X162742477Y-120229333D01*
X162647239Y-120276952D01*
X162456762Y-120276952D01*
X162361524Y-120324571D01*
X162313905Y-120372190D01*
X162266286Y-120467429D01*
X162266286Y-120657905D01*
X162313905Y-120753143D01*
X162361524Y-120800762D01*
X162456762Y-120848381D01*
X162647239Y-120848381D01*
X162742477Y-120800762D01*
X162790096Y-120753143D01*
X162837715Y-120657905D01*
X162837715Y-120467429D01*
X162790096Y-120372190D01*
X162742477Y-120324571D01*
X162647239Y-120276952D01*
X175601334Y-121586381D02*
X175268000Y-121110190D01*
X175029905Y-121586381D02*
X175029905Y-120586381D01*
X175410858Y-120586381D01*
X175506096Y-120634000D01*
X175553715Y-120681619D01*
X175601334Y-120776857D01*
X175601334Y-120919714D01*
X175553715Y-121014952D01*
X175506096Y-121062571D01*
X175410858Y-121110190D01*
X175029905Y-121110190D01*
X176077524Y-121586381D02*
X176268000Y-121586381D01*
X176363239Y-121538762D01*
X176410858Y-121491143D01*
X176506096Y-121348286D01*
X176553715Y-121157810D01*
X176553715Y-120776857D01*
X176506096Y-120681619D01*
X176458477Y-120634000D01*
X176363239Y-120586381D01*
X176172762Y-120586381D01*
X176077524Y-120634000D01*
X176029905Y-120681619D01*
X175982286Y-120776857D01*
X175982286Y-121014952D01*
X176029905Y-121110190D01*
X176077524Y-121157810D01*
X176172762Y-121205429D01*
X176363239Y-121205429D01*
X176458477Y-121157810D01*
X176506096Y-121110190D01*
X176553715Y-121014952D01*
X175633143Y-116784381D02*
X175299809Y-116308190D01*
X175061714Y-116784381D02*
X175061714Y-115784381D01*
X175442667Y-115784381D01*
X175537905Y-115832000D01*
X175585524Y-115879619D01*
X175633143Y-115974857D01*
X175633143Y-116117714D01*
X175585524Y-116212952D01*
X175537905Y-116260571D01*
X175442667Y-116308190D01*
X175061714Y-116308190D01*
X176585524Y-116784381D02*
X176014095Y-116784381D01*
X176299809Y-116784381D02*
X176299809Y-115784381D01*
X176204571Y-115927238D01*
X176109333Y-116022476D01*
X176014095Y-116070095D01*
X177204571Y-115784381D02*
X177299810Y-115784381D01*
X177395048Y-115832000D01*
X177442667Y-115879619D01*
X177490286Y-115974857D01*
X177537905Y-116165333D01*
X177537905Y-116403429D01*
X177490286Y-116593905D01*
X177442667Y-116689143D01*
X177395048Y-116736762D01*
X177299810Y-116784381D01*
X177204571Y-116784381D01*
X177109333Y-116736762D01*
X177061714Y-116689143D01*
X177014095Y-116593905D01*
X176966476Y-116403429D01*
X176966476Y-116165333D01*
X177014095Y-115974857D01*
X177061714Y-115879619D01*
X177109333Y-115832000D01*
X177204571Y-115784381D01*
X178681143Y-108886381D02*
X178347809Y-108410190D01*
X178109714Y-108886381D02*
X178109714Y-107886381D01*
X178490667Y-107886381D01*
X178585905Y-107934000D01*
X178633524Y-107981619D01*
X178681143Y-108076857D01*
X178681143Y-108219714D01*
X178633524Y-108314952D01*
X178585905Y-108362571D01*
X178490667Y-108410190D01*
X178109714Y-108410190D01*
X179633524Y-108886381D02*
X179062095Y-108886381D01*
X179347809Y-108886381D02*
X179347809Y-107886381D01*
X179252571Y-108029238D01*
X179157333Y-108124476D01*
X179062095Y-108172095D01*
X180585905Y-108886381D02*
X180014476Y-108886381D01*
X180300190Y-108886381D02*
X180300190Y-107886381D01*
X180204952Y-108029238D01*
X180109714Y-108124476D01*
X180014476Y-108172095D01*
X162226381Y-108846857D02*
X161750190Y-109180191D01*
X162226381Y-109418286D02*
X161226381Y-109418286D01*
X161226381Y-109037333D01*
X161274000Y-108942095D01*
X161321619Y-108894476D01*
X161416857Y-108846857D01*
X161559714Y-108846857D01*
X161654952Y-108894476D01*
X161702571Y-108942095D01*
X161750190Y-109037333D01*
X161750190Y-109418286D01*
X162226381Y-107894476D02*
X162226381Y-108465905D01*
X162226381Y-108180191D02*
X161226381Y-108180191D01*
X161369238Y-108275429D01*
X161464476Y-108370667D01*
X161512095Y-108465905D01*
X161321619Y-107513524D02*
X161274000Y-107465905D01*
X161226381Y-107370667D01*
X161226381Y-107132571D01*
X161274000Y-107037333D01*
X161321619Y-106989714D01*
X161416857Y-106942095D01*
X161512095Y-106942095D01*
X161654952Y-106989714D01*
X162226381Y-107561143D01*
X162226381Y-106942095D01*
X168910095Y-130516381D02*
X168910095Y-131325905D01*
X168957714Y-131421143D01*
X169005333Y-131468762D01*
X169100571Y-131516381D01*
X169291048Y-131516381D01*
X169386286Y-131468762D01*
X169433905Y-131421143D01*
X169481524Y-131325905D01*
X169481524Y-130516381D01*
X169910095Y-130611619D02*
X169957714Y-130564000D01*
X170052952Y-130516381D01*
X170291048Y-130516381D01*
X170386286Y-130564000D01*
X170433905Y-130611619D01*
X170481524Y-130706857D01*
X170481524Y-130802095D01*
X170433905Y-130944952D01*
X169862476Y-131516381D01*
X170481524Y-131516381D01*
X152757143Y-94146666D02*
X152804762Y-94194285D01*
X152852381Y-94337142D01*
X152852381Y-94432380D01*
X152804762Y-94575238D01*
X152709524Y-94670476D01*
X152614286Y-94718095D01*
X152423810Y-94765714D01*
X152280952Y-94765714D01*
X152090476Y-94718095D01*
X151995238Y-94670476D01*
X151900000Y-94575238D01*
X151852381Y-94432380D01*
X151852381Y-94337142D01*
X151900000Y-94194285D01*
X151947619Y-94146666D01*
X151852381Y-93813333D02*
X151852381Y-93194285D01*
X152233333Y-93527619D01*
X152233333Y-93384761D01*
X152280952Y-93289523D01*
X152328571Y-93241904D01*
X152423810Y-93194285D01*
X152661905Y-93194285D01*
X152757143Y-93241904D01*
X152804762Y-93289523D01*
X152852381Y-93384761D01*
X152852381Y-93670476D01*
X152804762Y-93765714D01*
X152757143Y-93813333D01*
X194492667Y-114768381D02*
X194492667Y-115482667D01*
X194445047Y-115625524D01*
X194349809Y-115720762D01*
X194206952Y-115768381D01*
X194111714Y-115768381D01*
X194968857Y-115768381D02*
X194968857Y-114768381D01*
X195349810Y-114768381D01*
X195445048Y-114816000D01*
X195492667Y-114863619D01*
X195540286Y-114958857D01*
X195540286Y-115101714D01*
X195492667Y-115196952D01*
X195445048Y-115244571D01*
X195349810Y-115292190D01*
X194968857Y-115292190D01*
X196492667Y-115768381D02*
X195921238Y-115768381D01*
X196206952Y-115768381D02*
X196206952Y-114768381D01*
X196111714Y-114911238D01*
X196016476Y-115006476D01*
X195921238Y-115054095D01*
X170025619Y-90889238D02*
X169978000Y-90984476D01*
X169882762Y-91079714D01*
X169739905Y-91222571D01*
X169692286Y-91317810D01*
X169692286Y-91413048D01*
X169930381Y-91365429D02*
X169882762Y-91460667D01*
X169787524Y-91555905D01*
X169597048Y-91603524D01*
X169263714Y-91603524D01*
X169073238Y-91555905D01*
X168978000Y-91460667D01*
X168930381Y-91365429D01*
X168930381Y-91174952D01*
X168978000Y-91079714D01*
X169073238Y-90984476D01*
X169263714Y-90936857D01*
X169597048Y-90936857D01*
X169787524Y-90984476D01*
X169882762Y-91079714D01*
X169930381Y-91174952D01*
X169930381Y-91365429D01*
X168930381Y-90032095D02*
X168930381Y-90508286D01*
X169406571Y-90555905D01*
X169358952Y-90508286D01*
X169311333Y-90413048D01*
X169311333Y-90174952D01*
X169358952Y-90079714D01*
X169406571Y-90032095D01*
X169501810Y-89984476D01*
X169739905Y-89984476D01*
X169835143Y-90032095D01*
X169882762Y-90079714D01*
X169930381Y-90174952D01*
X169930381Y-90413048D01*
X169882762Y-90508286D01*
X169835143Y-90555905D01*
X155702095Y-85050381D02*
X155702095Y-85859905D01*
X155749714Y-85955143D01*
X155797333Y-86002762D01*
X155892571Y-86050381D01*
X156083048Y-86050381D01*
X156178286Y-86002762D01*
X156225905Y-85955143D01*
X156273524Y-85859905D01*
X156273524Y-85050381D01*
X157273524Y-86050381D02*
X156702095Y-86050381D01*
X156987809Y-86050381D02*
X156987809Y-85050381D01*
X156892571Y-85193238D01*
X156797333Y-85288476D01*
X156702095Y-85336095D01*
M02*
