<?xml version="1.0" standalone="no"?>
 <!DOCTYPE svg PUBLIC "-//W3C//DTD SVG 1.1//EN" 
 "http://www.w3.org/Graphics/SVG/1.1/DTD/svg11.dtd"> 
<svg xmlns="http://www.w3.org/2000/svg" version="1.1" 
    width="29.7002cm" height="21.0007cm" viewBox="0 0 116930 82680 ">
<title>SVG Picture created as Final Project-F.SilkS.svg date 2017/06/12 23:11:28 </title>
  <desc>Picture generated by PCBNEW </desc>
<g style="fill:#000000; fill-opacity:1;stroke:#000000; stroke-opacity:1;
stroke-linecap:round; stroke-linejoin:round; "
 transform="translate(0 0) scale(1 1)">
</g>
<g style="fill:#000000; fill-opacity:0.0; 
stroke:#000000; stroke-width:-0.000393701; stroke-opacity:1; 
stroke-linecap:round; stroke-linejoin:round;">
</g>
<g style="fill:#000000; fill-opacity:0.0; 
stroke:#000000; stroke-width:39.3701; stroke-opacity:1; 
stroke-linecap:round; stroke-linejoin:round;">
</g>
<g style="fill:#000000; fill-opacity:0.0; 
stroke:#000000; stroke-width:59.0551; stroke-opacity:1; 
stroke-linecap:round; stroke-linejoin:round;">
<rect x="69685.9" y="65357.2" width="42519.7" height="12598.4" rx="0" />
</g>
<g style="fill:#000000; fill-opacity:0.0; 
stroke:#000000; stroke-width:39.3701; stroke-opacity:1; 
stroke-linecap:round; stroke-linejoin:round;">
</g>
<g style="fill:#000000; fill-opacity:0.0; 
stroke:#000000; stroke-width:59.0551; stroke-opacity:1; 
stroke-linecap:round; stroke-linejoin:round;">
<rect x="3937.01" y="3937.01" width="109056" height="74806" rx="0" />
</g>
<g style="fill:#000000; fill-opacity:0.0; 
stroke:#000000; stroke-width:39.3701; stroke-opacity:1; 
stroke-linecap:round; stroke-linejoin:round;">
</g>
<g style="fill:#000000; fill-opacity:0.0; 
stroke:#000000; stroke-width:59.0551; stroke-opacity:1; 
stroke-linecap:round; stroke-linejoin:round;">
<rect x="4724.41" y="4724.41" width="107481" height="73231.2" rx="0" />
</g>
<g style="fill:#000000; fill-opacity:0.0; 
stroke:#000000; stroke-width:39.3701; stroke-opacity:1; 
stroke-linecap:round; stroke-linejoin:round;">
</g>
<g style="fill:#000000; fill-opacity:0.0; 
stroke:#000000; stroke-width:59.0551; stroke-opacity:1; 
stroke-linecap:round; stroke-linejoin:round;">
<path d="M23622 4724
L23622 3937
" />
</g>
<g style="fill:#000000; fill-opacity:0.0; 
stroke:#000000; stroke-width:39.3701; stroke-opacity:1; 
stroke-linecap:round; stroke-linejoin:round;">
</g>
<g style="fill:#000000; fill-opacity:0.0; 
stroke:#000000; stroke-width:59.0551; stroke-opacity:1; 
stroke-linecap:round; stroke-linejoin:round;">
<path d="M43307 4724
L43307 3937
" />
</g>
<g style="fill:#000000; fill-opacity:0.0; 
stroke:#000000; stroke-width:39.3701; stroke-opacity:1; 
stroke-linecap:round; stroke-linejoin:round;">
</g>
<g style="fill:#000000; fill-opacity:0.0; 
stroke:#000000; stroke-width:59.0551; stroke-opacity:1; 
stroke-linecap:round; stroke-linejoin:round;">
<path d="M62992 4724
L62992 3937
" />
</g>
<g style="fill:#000000; fill-opacity:0.0; 
stroke:#000000; stroke-width:39.3701; stroke-opacity:1; 
stroke-linecap:round; stroke-linejoin:round;">
</g>
<g style="fill:#000000; fill-opacity:0.0; 
stroke:#000000; stroke-width:59.0551; stroke-opacity:1; 
stroke-linecap:round; stroke-linejoin:round;">
<path d="M82677 4724
L82677 3937
" />
</g>
<g style="fill:#000000; fill-opacity:0.0; 
stroke:#000000; stroke-width:39.3701; stroke-opacity:1; 
stroke-linecap:round; stroke-linejoin:round;">
</g>
<g style="fill:#000000; fill-opacity:0.0; 
stroke:#000000; stroke-width:59.0551; stroke-opacity:1; 
stroke-linecap:round; stroke-linejoin:round;">
<path d="M102362 4724
L102362 3937
" />
</g>
<g style="fill:#000000; fill-opacity:0.0; 
stroke:#000000; stroke-width:39.3701; stroke-opacity:1; 
stroke-linecap:round; stroke-linejoin:round;">
</g>
<g style="fill:#000000; fill-opacity:0.0; 
stroke:#000000; stroke-width:59.0551; stroke-opacity:1; 
stroke-linecap:round; stroke-linejoin:round;">
<path d="M14169 4562
L13877 4562
" />
<path d="M14023 4562
L14023 4050
L13974 4123
L13925 4172
L13877 4196
" />
</g>
<g style="fill:#000000; fill-opacity:0.0; 
stroke:#000000; stroke-width:39.3701; stroke-opacity:1; 
stroke-linecap:round; stroke-linejoin:round;">
</g>
<g style="fill:#000000; fill-opacity:0.0; 
stroke:#000000; stroke-width:59.0551; stroke-opacity:1; 
stroke-linecap:round; stroke-linejoin:round;">
<path d="M33562 4099
L33586 4074
L33635 4050
L33757 4050
L33805 4074
L33830 4099
L33854 4147
L33854 4196
L33830 4269
L33537 4562
L33854 4562
" />
</g>
<g style="fill:#000000; fill-opacity:0.0; 
stroke:#000000; stroke-width:39.3701; stroke-opacity:1; 
stroke-linecap:round; stroke-linejoin:round;">
</g>
<g style="fill:#000000; fill-opacity:0.0; 
stroke:#000000; stroke-width:59.0551; stroke-opacity:1; 
stroke-linecap:round; stroke-linejoin:round;">
<path d="M53222 4050
L53539 4050
L53368 4245
L53442 4245
L53490 4269
L53515 4294
L53539 4342
L53539 4464
L53515 4513
L53490 4537
L53442 4562
L53295 4562
L53247 4537
L53222 4513
" />
</g>
<g style="fill:#000000; fill-opacity:0.0; 
stroke:#000000; stroke-width:39.3701; stroke-opacity:1; 
stroke-linecap:round; stroke-linejoin:round;">
</g>
<g style="fill:#000000; fill-opacity:0.0; 
stroke:#000000; stroke-width:59.0551; stroke-opacity:1; 
stroke-linecap:round; stroke-linejoin:round;">
<path d="M73175 4221
L73175 4562
" />
<path d="M73053 4026
L72932 4391
L73248 4391
" />
</g>
<g style="fill:#000000; fill-opacity:0.0; 
stroke:#000000; stroke-width:39.3701; stroke-opacity:1; 
stroke-linecap:round; stroke-linejoin:round;">
</g>
<g style="fill:#000000; fill-opacity:0.0; 
stroke:#000000; stroke-width:59.0551; stroke-opacity:1; 
stroke-linecap:round; stroke-linejoin:round;">
<path d="M92885 4050
L92641 4050
L92617 4294
L92641 4269
L92690 4245
L92812 4245
L92860 4269
L92885 4294
L92909 4342
L92909 4464
L92885 4513
L92860 4537
L92812 4562
L92690 4562
L92641 4537
L92617 4513
" />
</g>
<g style="fill:#000000; fill-opacity:0.0; 
stroke:#000000; stroke-width:39.3701; stroke-opacity:1; 
stroke-linecap:round; stroke-linejoin:round;">
</g>
<g style="fill:#000000; fill-opacity:0.0; 
stroke:#000000; stroke-width:59.0551; stroke-opacity:1; 
stroke-linecap:round; stroke-linejoin:round;">
<path d="M112545 4050
L112448 4050
L112399 4074
L112375 4099
L112326 4172
L112302 4269
L112302 4464
L112326 4513
L112350 4537
L112399 4562
L112497 4562
L112545 4537
L112570 4513
L112594 4464
L112594 4342
L112570 4294
L112545 4269
L112497 4245
L112399 4245
L112350 4269
L112326 4294
L112302 4342
" />
</g>
<g style="fill:#000000; fill-opacity:0.0; 
stroke:#000000; stroke-width:39.3701; stroke-opacity:1; 
stroke-linecap:round; stroke-linejoin:round;">
</g>
<g style="fill:#000000; fill-opacity:0.0; 
stroke:#000000; stroke-width:59.0551; stroke-opacity:1; 
stroke-linecap:round; stroke-linejoin:round;">
<path d="M23622 77955
L23622 78742
" />
</g>
<g style="fill:#000000; fill-opacity:0.0; 
stroke:#000000; stroke-width:39.3701; stroke-opacity:1; 
stroke-linecap:round; stroke-linejoin:round;">
</g>
<g style="fill:#000000; fill-opacity:0.0; 
stroke:#000000; stroke-width:59.0551; stroke-opacity:1; 
stroke-linecap:round; stroke-linejoin:round;">
<path d="M43307 77955
L43307 78742
" />
</g>
<g style="fill:#000000; fill-opacity:0.0; 
stroke:#000000; stroke-width:39.3701; stroke-opacity:1; 
stroke-linecap:round; stroke-linejoin:round;">
</g>
<g style="fill:#000000; fill-opacity:0.0; 
stroke:#000000; stroke-width:59.0551; stroke-opacity:1; 
stroke-linecap:round; stroke-linejoin:round;">
<path d="M62992 77955
L62992 78742
" />
</g>
<g style="fill:#000000; fill-opacity:0.0; 
stroke:#000000; stroke-width:39.3701; stroke-opacity:1; 
stroke-linecap:round; stroke-linejoin:round;">
</g>
<g style="fill:#000000; fill-opacity:0.0; 
stroke:#000000; stroke-width:59.0551; stroke-opacity:1; 
stroke-linecap:round; stroke-linejoin:round;">
<path d="M82677 77955
L82677 78742
" />
</g>
<g style="fill:#000000; fill-opacity:0.0; 
stroke:#000000; stroke-width:39.3701; stroke-opacity:1; 
stroke-linecap:round; stroke-linejoin:round;">
</g>
<g style="fill:#000000; fill-opacity:0.0; 
stroke:#000000; stroke-width:59.0551; stroke-opacity:1; 
stroke-linecap:round; stroke-linejoin:round;">
<path d="M102362 77955
L102362 78742
" />
</g>
<g style="fill:#000000; fill-opacity:0.0; 
stroke:#000000; stroke-width:39.3701; stroke-opacity:1; 
stroke-linecap:round; stroke-linejoin:round;">
</g>
<g style="fill:#000000; fill-opacity:0.0; 
stroke:#000000; stroke-width:59.0551; stroke-opacity:1; 
stroke-linecap:round; stroke-linejoin:round;">
<path d="M14169 78580
L13877 78580
" />
<path d="M14023 78580
L14023 78069
L13974 78142
L13925 78190
L13877 78215
" />
</g>
<g style="fill:#000000; fill-opacity:0.0; 
stroke:#000000; stroke-width:39.3701; stroke-opacity:1; 
stroke-linecap:round; stroke-linejoin:round;">
</g>
<g style="fill:#000000; fill-opacity:0.0; 
stroke:#000000; stroke-width:59.0551; stroke-opacity:1; 
stroke-linecap:round; stroke-linejoin:round;">
<path d="M33562 78117
L33586 78093
L33635 78069
L33757 78069
L33805 78093
L33830 78117
L33854 78166
L33854 78215
L33830 78288
L33537 78580
L33854 78580
" />
</g>
<g style="fill:#000000; fill-opacity:0.0; 
stroke:#000000; stroke-width:39.3701; stroke-opacity:1; 
stroke-linecap:round; stroke-linejoin:round;">
</g>
<g style="fill:#000000; fill-opacity:0.0; 
stroke:#000000; stroke-width:59.0551; stroke-opacity:1; 
stroke-linecap:round; stroke-linejoin:round;">
<path d="M53222 78069
L53539 78069
L53368 78263
L53442 78263
L53490 78288
L53515 78312
L53539 78361
L53539 78483
L53515 78532
L53490 78556
L53442 78580
L53295 78580
L53247 78556
L53222 78532
" />
</g>
<g style="fill:#000000; fill-opacity:0.0; 
stroke:#000000; stroke-width:39.3701; stroke-opacity:1; 
stroke-linecap:round; stroke-linejoin:round;">
</g>
<g style="fill:#000000; fill-opacity:0.0; 
stroke:#000000; stroke-width:59.0551; stroke-opacity:1; 
stroke-linecap:round; stroke-linejoin:round;">
<path d="M73175 78239
L73175 78580
" />
<path d="M73053 78044
L72932 78410
L73248 78410
" />
</g>
<g style="fill:#000000; fill-opacity:0.0; 
stroke:#000000; stroke-width:39.3701; stroke-opacity:1; 
stroke-linecap:round; stroke-linejoin:round;">
</g>
<g style="fill:#000000; fill-opacity:0.0; 
stroke:#000000; stroke-width:59.0551; stroke-opacity:1; 
stroke-linecap:round; stroke-linejoin:round;">
<path d="M92885 78069
L92641 78069
L92617 78312
L92641 78288
L92690 78263
L92812 78263
L92860 78288
L92885 78312
L92909 78361
L92909 78483
L92885 78532
L92860 78556
L92812 78580
L92690 78580
L92641 78556
L92617 78532
" />
</g>
<g style="fill:#000000; fill-opacity:0.0; 
stroke:#000000; stroke-width:39.3701; stroke-opacity:1; 
stroke-linecap:round; stroke-linejoin:round;">
</g>
<g style="fill:#000000; fill-opacity:0.0; 
stroke:#000000; stroke-width:59.0551; stroke-opacity:1; 
stroke-linecap:round; stroke-linejoin:round;">
<path d="M112545 78069
L112448 78069
L112399 78093
L112375 78117
L112326 78190
L112302 78288
L112302 78483
L112326 78532
L112350 78556
L112399 78580
L112497 78580
L112545 78556
L112570 78532
L112594 78483
L112594 78361
L112570 78312
L112545 78288
L112497 78263
L112399 78263
L112350 78288
L112326 78312
L112302 78361
" />
</g>
<g style="fill:#000000; fill-opacity:0.0; 
stroke:#000000; stroke-width:39.3701; stroke-opacity:1; 
stroke-linecap:round; stroke-linejoin:round;">
</g>
<g style="fill:#000000; fill-opacity:0.0; 
stroke:#000000; stroke-width:59.0551; stroke-opacity:1; 
stroke-linecap:round; stroke-linejoin:round;">
<path d="M3937 23622
L4724 23622
" />
</g>
<g style="fill:#000000; fill-opacity:0.0; 
stroke:#000000; stroke-width:39.3701; stroke-opacity:1; 
stroke-linecap:round; stroke-linejoin:round;">
</g>
<g style="fill:#000000; fill-opacity:0.0; 
stroke:#000000; stroke-width:59.0551; stroke-opacity:1; 
stroke-linecap:round; stroke-linejoin:round;">
<path d="M3937 43307
L4724 43307
" />
</g>
<g style="fill:#000000; fill-opacity:0.0; 
stroke:#000000; stroke-width:39.3701; stroke-opacity:1; 
stroke-linecap:round; stroke-linejoin:round;">
</g>
<g style="fill:#000000; fill-opacity:0.0; 
stroke:#000000; stroke-width:59.0551; stroke-opacity:1; 
stroke-linecap:round; stroke-linejoin:round;">
<path d="M3937 62992
L4724 62992
" />
</g>
<g style="fill:#000000; fill-opacity:0.0; 
stroke:#000000; stroke-width:39.3701; stroke-opacity:1; 
stroke-linecap:round; stroke-linejoin:round;">
</g>
<g style="fill:#000000; fill-opacity:0.0; 
stroke:#000000; stroke-width:59.0551; stroke-opacity:1; 
stroke-linecap:round; stroke-linejoin:round;">
<path d="M4208 13864
L4452 13864
" />
<path d="M4160 14011
L4330 13499
L4501 14011
" />
</g>
<g style="fill:#000000; fill-opacity:0.0; 
stroke:#000000; stroke-width:39.3701; stroke-opacity:1; 
stroke-linecap:round; stroke-linejoin:round;">
</g>
<g style="fill:#000000; fill-opacity:0.0; 
stroke:#000000; stroke-width:59.0551; stroke-opacity:1; 
stroke-linecap:round; stroke-linejoin:round;">
<path d="M4367 33428
L4440 33452
L4464 33476
L4489 33525
L4489 33598
L4464 33647
L4440 33671
L4391 33696
L4196 33696
L4196 33184
L4367 33184
L4416 33208
L4440 33233
L4464 33281
L4464 33330
L4440 33379
L4416 33403
L4367 33428
L4196 33428
" />
</g>
<g style="fill:#000000; fill-opacity:0.0; 
stroke:#000000; stroke-width:39.3701; stroke-opacity:1; 
stroke-linecap:round; stroke-linejoin:round;">
</g>
<g style="fill:#000000; fill-opacity:0.0; 
stroke:#000000; stroke-width:59.0551; stroke-opacity:1; 
stroke-linecap:round; stroke-linejoin:round;">
<path d="M4489 53332
L4464 53356
L4391 53381
L4342 53381
L4269 53356
L4221 53308
L4196 53259
L4172 53161
L4172 53088
L4196 52991
L4221 52942
L4269 52893
L4342 52869
L4391 52869
L4464 52893
L4489 52918
" />
</g>
<g style="fill:#000000; fill-opacity:0.0; 
stroke:#000000; stroke-width:39.3701; stroke-opacity:1; 
stroke-linecap:round; stroke-linejoin:round;">
</g>
<g style="fill:#000000; fill-opacity:0.0; 
stroke:#000000; stroke-width:59.0551; stroke-opacity:1; 
stroke-linecap:round; stroke-linejoin:round;">
<path d="M4196 73066
L4196 72554
L4318 72554
L4391 72578
L4440 72627
L4464 72676
L4489 72773
L4489 72846
L4464 72944
L4440 72993
L4391 73041
L4318 73066
L4196 73066
" />
</g>
<g style="fill:#000000; fill-opacity:0.0; 
stroke:#000000; stroke-width:39.3701; stroke-opacity:1; 
stroke-linecap:round; stroke-linejoin:round;">
</g>
<g style="fill:#000000; fill-opacity:0.0; 
stroke:#000000; stroke-width:59.0551; stroke-opacity:1; 
stroke-linecap:round; stroke-linejoin:round;">
<path d="M112992 23622
L112205 23622
" />
</g>
<g style="fill:#000000; fill-opacity:0.0; 
stroke:#000000; stroke-width:39.3701; stroke-opacity:1; 
stroke-linecap:round; stroke-linejoin:round;">
</g>
<g style="fill:#000000; fill-opacity:0.0; 
stroke:#000000; stroke-width:59.0551; stroke-opacity:1; 
stroke-linecap:round; stroke-linejoin:round;">
<path d="M112992 43307
L112205 43307
" />
</g>
<g style="fill:#000000; fill-opacity:0.0; 
stroke:#000000; stroke-width:39.3701; stroke-opacity:1; 
stroke-linecap:round; stroke-linejoin:round;">
</g>
<g style="fill:#000000; fill-opacity:0.0; 
stroke:#000000; stroke-width:59.0551; stroke-opacity:1; 
stroke-linecap:round; stroke-linejoin:round;">
<path d="M112992 62992
L112205 62992
" />
</g>
<g style="fill:#000000; fill-opacity:0.0; 
stroke:#000000; stroke-width:39.3701; stroke-opacity:1; 
stroke-linecap:round; stroke-linejoin:round;">
</g>
<g style="fill:#000000; fill-opacity:0.0; 
stroke:#000000; stroke-width:59.0551; stroke-opacity:1; 
stroke-linecap:round; stroke-linejoin:round;">
<path d="M112477 13864
L112721 13864
" />
<path d="M112428 14011
L112599 13499
L112769 14011
" />
</g>
<g style="fill:#000000; fill-opacity:0.0; 
stroke:#000000; stroke-width:39.3701; stroke-opacity:1; 
stroke-linecap:round; stroke-linejoin:round;">
</g>
<g style="fill:#000000; fill-opacity:0.0; 
stroke:#000000; stroke-width:59.0551; stroke-opacity:1; 
stroke-linecap:round; stroke-linejoin:round;">
<path d="M112635 33428
L112708 33452
L112733 33476
L112757 33525
L112757 33598
L112733 33647
L112708 33671
L112660 33696
L112465 33696
L112465 33184
L112635 33184
L112684 33208
L112708 33233
L112733 33281
L112733 33330
L112708 33379
L112684 33403
L112635 33428
L112465 33428
" />
</g>
<g style="fill:#000000; fill-opacity:0.0; 
stroke:#000000; stroke-width:39.3701; stroke-opacity:1; 
stroke-linecap:round; stroke-linejoin:round;">
</g>
<g style="fill:#000000; fill-opacity:0.0; 
stroke:#000000; stroke-width:59.0551; stroke-opacity:1; 
stroke-linecap:round; stroke-linejoin:round;">
<path d="M112757 53332
L112733 53356
L112660 53381
L112611 53381
L112538 53356
L112489 53308
L112465 53259
L112440 53161
L112440 53088
L112465 52991
L112489 52942
L112538 52893
L112611 52869
L112660 52869
L112733 52893
L112757 52918
" />
</g>
<g style="fill:#000000; fill-opacity:0.0; 
stroke:#000000; stroke-width:39.3701; stroke-opacity:1; 
stroke-linecap:round; stroke-linejoin:round;">
</g>
<g style="fill:#000000; fill-opacity:0.0; 
stroke:#000000; stroke-width:59.0551; stroke-opacity:1; 
stroke-linecap:round; stroke-linejoin:round;">
<path d="M112465 73066
L112465 72554
L112587 72554
L112660 72578
L112708 72627
L112733 72676
L112757 72773
L112757 72846
L112733 72944
L112708 72993
L112660 73041
L112587 73066
L112465 73066
" />
</g>
<g style="fill:#000000; fill-opacity:0.0; 
stroke:#000000; stroke-width:39.3701; stroke-opacity:1; 
stroke-linecap:round; stroke-linejoin:round;">
</g>
<g style="fill:#000000; fill-opacity:0.0; 
stroke:#000000; stroke-width:59.0551; stroke-opacity:1; 
stroke-linecap:round; stroke-linejoin:round;">
<path d="M78881 76293
L78881 75703
L79022 75703
L79106 75731
L79162 75787
L79190 75843
L79219 75956
L79219 76040
L79190 76153
L79162 76209
L79106 76265
L79022 76293
L78881 76293
" />
<path d="M79725 76293
L79725 75984
L79697 75928
L79640 75899
L79528 75899
L79472 75928
" />
<path d="M79725 76265
L79669 76293
L79528 76293
L79472 76265
L79444 76209
L79444 76153
L79472 76096
L79528 76068
L79669 76068
L79725 76040
" />
<path d="M79922 75899
L80147 75899
" />
<path d="M80006 75703
L80006 76209
L80034 76265
L80090 76293
L80147 76293
" />
<path d="M80568 76265
L80512 76293
L80400 76293
L80343 76265
L80315 76209
L80315 75984
L80343 75928
L80400 75899
L80512 75899
L80568 75928
L80597 75984
L80597 76040
L80315 76096
" />
<path d="M80850 76237
L80878 76265
L80850 76293
L80822 76265
L80850 76237
L80850 76293
" />
<path d="M80850 75928
L80878 75956
L80850 75984
L80822 75956
L80850 75928
L80850 75984
" />
<path d="M81553 75759
L81581 75731
L81637 75703
L81778 75703
L81834 75731
L81862 75759
L81890 75815
L81890 75871
L81862 75956
L81525 76293
L81890 76293
" />
<path d="M82256 75703
L82312 75703
L82368 75731
L82396 75759
L82424 75815
L82453 75928
L82453 76068
L82424 76181
L82396 76237
L82368 76265
L82312 76293
L82256 76293
L82199 76265
L82171 76237
L82143 76181
L82115 76068
L82115 75928
L82143 75815
L82171 75759
L82199 75731
L82256 75703
" />
<path d="M83015 76293
L82678 76293
" />
<path d="M82846 76293
L82846 75703
L82790 75787
L82734 75843
L82678 75871
" />
<path d="M83212 75703
L83606 75703
L83352 76293
" />
<path d="M83831 76068
L84280 76068
" />
<path d="M84674 75703
L84730 75703
L84787 75731
L84815 75759
L84843 75815
L84871 75928
L84871 76068
L84843 76181
L84815 76237
L84787 76265
L84730 76293
L84674 76293
L84618 76265
L84590 76237
L84562 76181
L84534 76068
L84534 75928
L84562 75815
L84590 75759
L84618 75731
L84674 75703
" />
<path d="M85377 75703
L85265 75703
L85208 75731
L85180 75759
L85124 75843
L85096 75956
L85096 76181
L85124 76237
L85152 76265
L85208 76293
L85321 76293
L85377 76265
L85405 76237
L85433 76181
L85433 76040
L85405 75984
L85377 75956
L85321 75928
L85208 75928
L85152 75956
L85124 75984
L85096 76040
" />
<path d="M85687 76068
L86136 76068
" />
<path d="M86530 75703
L86586 75703
L86643 75731
L86671 75759
L86699 75815
L86727 75928
L86727 76068
L86699 76181
L86671 76237
L86643 76265
L86586 76293
L86530 76293
L86474 76265
L86446 76237
L86418 76181
L86390 76068
L86390 75928
L86418 75815
L86446 75759
L86474 75731
L86530 75703
" />
<path d="M87008 76293
L87121 76293
L87177 76265
L87205 76237
L87261 76153
L87289 76040
L87289 75815
L87261 75759
L87233 75731
L87177 75703
L87064 75703
L87008 75731
L86980 75759
L86952 75815
L86952 75956
L86980 76012
L87008 76040
L87064 76068
L87177 76068
L87233 76040
L87261 76012
L87289 75956
" />
</g>
<g style="fill:#000000; fill-opacity:0.0; 
stroke:#000000; stroke-width:39.3701; stroke-opacity:1; 
stroke-linecap:round; stroke-linejoin:round;">
</g>
<g style="fill:#000000; fill-opacity:0.0; 
stroke:#000000; stroke-width:59.0551; stroke-opacity:1; 
stroke-linecap:round; stroke-linejoin:round;">
<path d="M69685 76577
L112205 76577
" />
</g>
<g style="fill:#000000; fill-opacity:0.0; 
stroke:#000000; stroke-width:39.3701; stroke-opacity:1; 
stroke-linecap:round; stroke-linejoin:round;">
</g>
<g style="fill:#000000; fill-opacity:0.0; 
stroke:#000000; stroke-width:59.0551; stroke-opacity:1; 
stroke-linecap:round; stroke-linejoin:round;">
<path d="M70220 77395
L70220 76805
" />
<path d="M70557 77395
L70304 77058
" />
<path d="M70557 76805
L70220 77142
" />
<path d="M70810 77395
L70810 77002
" />
<path d="M70810 76805
L70782 76833
L70810 76861
L70838 76833
L70810 76805
L70810 76861
" />
<path d="M71429 77339
L71401 77367
L71316 77395
L71260 77395
L71176 77367
L71120 77311
L71091 77255
L71063 77142
L71063 77058
L71091 76946
L71120 76889
L71176 76833
L71260 76805
L71316 76805
L71401 76833
L71429 76861
" />
<path d="M71935 77395
L71935 77086
L71907 77030
L71851 77002
L71738 77002
L71682 77030
" />
<path d="M71935 77367
L71879 77395
L71738 77395
L71682 77367
L71654 77311
L71654 77255
L71682 77199
L71738 77171
L71879 77171
L71935 77142
" />
<path d="M72469 77395
L72469 76805
" />
<path d="M72469 77367
L72413 77395
L72301 77395
L72244 77367
L72216 77339
L72188 77283
L72188 77114
L72216 77058
L72244 77030
L72301 77002
L72413 77002
L72469 77030
" />
<path d="M73201 77086
L73397 77086
" />
<path d="M73482 77395
L73201 77395
L73201 76805
L73482 76805
" />
<path d="M73735 77339
L73763 77367
L73735 77395
L73707 77367
L73735 77339
L73735 77395
" />
<path d="M74016 77395
L74016 76805
L74157 76805
L74241 76833
L74297 76889
L74325 76946
L74354 77058
L74354 77142
L74325 77255
L74297 77311
L74241 77367
L74157 77395
L74016 77395
" />
<path d="M74607 77339
L74635 77367
L74607 77395
L74579 77367
L74607 77339
L74607 77395
" />
<path d="M74860 77227
L75141 77227
" />
<path d="M74804 77395
L75000 76805
L75197 77395
" />
<path d="M75394 77339
L75422 77367
L75394 77395
L75366 77367
L75394 77339
L75394 77395
" />
<path d="M76575 77395
L76575 76805
" />
<path d="M76631 77171
L76800 77395
" />
<path d="M76800 77002
L76575 77227
" />
<path d="M77053 77395
L77053 77002
" />
<path d="M77053 76805
L77025 76833
L77053 76861
L77081 76833
L77053 76805
L77053 76861
" />
<path d="M77588 77367
L77531 77395
L77419 77395
L77363 77367
L77334 77339
L77306 77283
L77306 77114
L77334 77058
L77363 77030
L77419 77002
L77531 77002
L77588 77030
" />
<path d="M78094 77395
L78094 77086
L78066 77030
L78009 77002
L77897 77002
L77841 77030
" />
<path d="M78094 77367
L78037 77395
L77897 77395
L77841 77367
L77813 77311
L77813 77255
L77841 77199
L77897 77171
L78037 77171
L78094 77142
" />
<path d="M78628 77395
L78628 76805
" />
<path d="M78628 77367
L78572 77395
L78459 77395
L78403 77367
L78375 77339
L78347 77283
L78347 77114
L78375 77058
L78403 77030
L78459 77002
L78572 77002
L78628 77030
" />
<path d="M79612 77002
L79612 77395
" />
<path d="M79472 76777
L79331 77199
L79697 77199
" />
<path d="M79922 77339
L79950 77367
L79922 77395
L79894 77367
L79922 77339
L79922 77395
" />
<path d="M80315 76805
L80372 76805
L80428 76833
L80456 76861
L80484 76917
L80512 77030
L80512 77171
L80484 77283
L80456 77339
L80428 77367
L80372 77395
L80315 77395
L80259 77367
L80231 77339
L80203 77283
L80175 77171
L80175 77030
L80203 76917
L80231 76861
L80259 76833
L80315 76805
" />
<path d="M80765 77339
L80793 77367
L80765 77395
L80737 77367
L80765 77339
L80765 77395
" />
<path d="M81328 76805
L81046 76805
L81018 77086
L81046 77058
L81103 77030
L81243 77030
L81300 77058
L81328 77086
L81356 77142
L81356 77283
L81328 77339
L81300 77367
L81243 77395
L81103 77395
L81046 77367
L81018 77339
" />
</g>
<g style="fill:#000000; fill-opacity:0.0; 
stroke:#000000; stroke-width:39.3701; stroke-opacity:1; 
stroke-linecap:round; stroke-linejoin:round;">
</g>
<g style="fill:#000000; fill-opacity:0.0; 
stroke:#000000; stroke-width:59.0551; stroke-opacity:1; 
stroke-linecap:round; stroke-linejoin:round;">
<path d="M69685 75396
L112205 75396
" />
</g>
<g style="fill:#000000; fill-opacity:0.0; 
stroke:#000000; stroke-width:39.3701; stroke-opacity:1; 
stroke-linecap:round; stroke-linejoin:round;">
</g>
<g style="fill:#000000; fill-opacity:0.0; 
stroke:#000000; stroke-width:118.11; stroke-opacity:1; 
stroke-linecap:round; stroke-linejoin:round;">
<path d="M104022 76293
L103825 76012
" />
<path d="M103684 76293
L103684 75703
L103909 75703
L103965 75731
L103994 75759
L104022 75815
L104022 75899
L103994 75956
L103965 75984
L103909 76012
L103684 76012
" />
<path d="M104500 76265
L104444 76293
L104331 76293
L104275 76265
L104247 76209
L104247 75984
L104275 75928
L104331 75899
L104444 75899
L104500 75928
L104528 75984
L104528 76040
L104247 76096
" />
<path d="M104725 75899
L104865 76293
L105006 75899
" />
<path d="M105231 76237
L105259 76265
L105231 76293
L105203 76265
L105231 76237
L105231 76293
" />
<path d="M105231 75928
L105259 75956
L105231 75984
L105203 75956
L105231 75928
L105231 75984
" />
<path d="M105878 75703
L106075 76293
L106271 75703
" />
<path d="M106778 76293
L106440 76293
" />
<path d="M106609 76293
L106609 75703
L106553 75787
L106496 75843
L106440 75871
" />
<path d="M107031 76237
L107059 76265
L107031 76293
L107003 76265
L107031 76237
L107031 76293
" />
<path d="M107424 75703
L107481 75703
L107537 75731
L107565 75759
L107593 75815
L107621 75928
L107621 76068
L107593 76181
L107565 76237
L107537 76265
L107481 76293
L107424 76293
L107368 76265
L107340 76237
L107312 76181
L107284 76068
L107284 75928
L107312 75815
L107340 75759
L107368 75731
L107424 75703
" />
</g>
<g style="fill:#000000; fill-opacity:0.0; 
stroke:#000000; stroke-width:39.3701; stroke-opacity:1; 
stroke-linecap:round; stroke-linejoin:round;">
</g>
<g style="fill:#000000; fill-opacity:0.0; 
stroke:#000000; stroke-width:59.0551; stroke-opacity:1; 
stroke-linecap:round; stroke-linejoin:round;">
<path d="M70192 76265
L70276 76293
L70417 76293
L70473 76265
L70501 76237
L70529 76181
L70529 76124
L70501 76068
L70473 76040
L70417 76012
L70304 75984
L70248 75956
L70220 75928
L70192 75871
L70192 75815
L70220 75759
L70248 75731
L70304 75703
L70445 75703
L70529 75731
" />
<path d="M70782 76293
L70782 75899
" />
<path d="M70782 75703
L70754 75731
L70782 75759
L70810 75731
L70782 75703
L70782 75759
" />
<path d="M71007 75899
L71316 75899
L71007 76293
L71316 76293
" />
<path d="M71766 76265
L71710 76293
L71598 76293
L71541 76265
L71513 76209
L71513 75984
L71541 75928
L71598 75899
L71710 75899
L71766 75928
L71795 75984
L71795 76040
L71513 76096
" />
<path d="M72048 76237
L72076 76265
L72048 76293
L72019 76265
L72048 76237
L72048 76293
" />
<path d="M72048 75928
L72076 75956
L72048 75984
L72019 75956
L72048 75928
L72048 75984
" />
<path d="M72751 76124
L73032 76124
" />
<path d="M72694 76293
L72891 75703
L73088 76293
" />
<path d="M73538 75899
L73538 76293
" />
<path d="M73397 75674
L73257 76096
L73622 76096
" />
</g>
<g style="fill:#000000; fill-opacity:0.0; 
stroke:#000000; stroke-width:39.3701; stroke-opacity:1; 
stroke-linecap:round; stroke-linejoin:round;">
</g>
<g style="fill:#000000; fill-opacity:0.0; 
stroke:#000000; stroke-width:59.0551; stroke-opacity:1; 
stroke-linecap:round; stroke-linejoin:round;">
<path d="M103684 77395
L103684 76805
" />
<path d="M104219 77395
L104219 76805
" />
<path d="M104219 77367
L104162 77395
L104050 77395
L103994 77367
L103965 77339
L103937 77283
L103937 77114
L103965 77058
L103994 77030
L104050 77002
L104162 77002
L104219 77030
" />
<path d="M104500 77339
L104528 77367
L104500 77395
L104472 77367
L104500 77339
L104500 77395
" />
<path d="M104500 77030
L104528 77058
L104500 77086
L104472 77058
L104500 77030
L104500 77086
" />
<path d="M105540 77395
L105203 77395
" />
<path d="M105372 77395
L105372 76805
L105315 76889
L105259 76946
L105203 76974
" />
<path d="M106215 76777
L105709 77536
" />
<path d="M106721 77395
L106384 77395
" />
<path d="M106553 77395
L106553 76805
L106496 76889
L106440 76946
L106384 76974
" />
</g>
<g style="fill:#000000; fill-opacity:0.0; 
stroke:#000000; stroke-width:39.3701; stroke-opacity:1; 
stroke-linecap:round; stroke-linejoin:round;">
</g>
<g style="fill:#000000; fill-opacity:0.0; 
stroke:#000000; stroke-width:59.0551; stroke-opacity:1; 
stroke-linecap:round; stroke-linejoin:round;">
<path d="M69685 73821
L112205 73821
" />
</g>
<g style="fill:#000000; fill-opacity:0.0; 
stroke:#000000; stroke-width:39.3701; stroke-opacity:1; 
stroke-linecap:round; stroke-linejoin:round;">
</g>
<g style="fill:#000000; fill-opacity:0.0; 
stroke:#000000; stroke-width:157.48; stroke-opacity:1; 
stroke-linecap:round; stroke-linejoin:round;">
<path d="M70257 74099
L70707 74099
" />
<path d="M70384 74886
L70482 74099
" />
<path d="M70871 74886
L70937 74361
" />
<path d="M70970 74099
L70927 74136
L70960 74174
L71002 74136
L70970 74099
L70960 74174
" />
<path d="M71199 74361
L71499 74361
" />
<path d="M71345 74099
L71260 74774
L71288 74849
L71359 74886
L71434 74886
" />
<path d="M71809 74886
L71738 74849
L71710 74774
L71795 74099
" />
<path d="M72413 74849
L72334 74886
L72184 74886
L72113 74849
L72085 74774
L72123 74474
L72169 74399
L72249 74361
L72399 74361
L72469 74399
L72498 74474
L72488 74549
L72104 74624
" />
<path d="M72793 74811
L72826 74849
L72783 74886
L72751 74849
L72793 74811
L72783 74886
" />
<path d="M72844 74399
L72877 74436
L72835 74474
L72802 74436
L72844 74399
L72835 74474
" />
<path d="M74072 74474
L73810 74474
" />
<path d="M73758 74886
L73857 74099
L74232 74099
" />
<path d="M74433 74886
L74499 74361
" />
<path d="M74532 74099
L74489 74136
L74522 74174
L74564 74136
L74532 74099
L74522 74174
" />
<path d="M74874 74361
L74808 74886
" />
<path d="M74864 74436
L74907 74399
L74986 74361
L75099 74361
L75169 74399
L75197 74474
L75146 74886
" />
<path d="M75858 74886
L75910 74474
L75882 74399
L75811 74361
L75661 74361
L75582 74399
" />
<path d="M75863 74849
L75783 74886
L75596 74886
L75525 74849
L75497 74774
L75507 74699
L75553 74624
L75633 74586
L75821 74586
L75900 74549
" />
<path d="M76346 74886
L76275 74849
L76247 74774
L76331 74099
" />
<path d="M77245 74886
L77344 74099
L77644 74099
L77714 74136
L77747 74174
L77775 74249
L77761 74361
L77714 74436
L77672 74474
L77592 74511
L77292 74511
" />
<path d="M78033 74886
L78098 74361
" />
<path d="M78080 74511
L78127 74436
L78169 74399
L78248 74361
L78323 74361
" />
<path d="M78633 74886
L78562 74849
L78530 74811
L78501 74736
L78530 74511
L78576 74436
L78619 74399
L78698 74361
L78811 74361
L78881 74399
L78914 74436
L78942 74511
L78914 74736
L78867 74811
L78825 74849
L78745 74886
L78633 74886
" />
<path d="M79298 74361
L79214 75036
L79167 75111
L79087 75149
L79050 75149
" />
<path d="M79331 74099
L79289 74136
L79322 74174
L79364 74136
L79331 74099
L79322 74174
" />
<path d="M79912 74849
L79833 74886
L79683 74886
L79612 74849
L79584 74774
L79622 74474
L79669 74399
L79748 74361
L79898 74361
L79968 74399
L79997 74474
L79987 74549
L79603 74624
" />
<path d="M80625 74849
L80545 74886
L80395 74886
L80325 74849
L80292 74811
L80264 74736
L80292 74511
L80339 74436
L80381 74399
L80461 74361
L80611 74361
L80681 74399
" />
<path d="M80911 74361
L81211 74361
" />
<path d="M81056 74099
L80971 74774
L81000 74849
L81070 74886
L81145 74886
" />
</g>
<g style="fill:#000000; fill-opacity:0.0; 
stroke:#000000; stroke-width:39.3701; stroke-opacity:1; 
stroke-linecap:round; stroke-linejoin:round;">
</g>
<g style="fill:#000000; fill-opacity:0.0; 
stroke:#000000; stroke-width:59.0551; stroke-opacity:1; 
stroke-linecap:round; stroke-linejoin:round;">
<path d="M70417 73070
L70220 73070
" />
<path d="M70220 73380
L70220 72789
L70501 72789
" />
<path d="M70726 73380
L70726 72986
" />
<path d="M70726 72789
L70698 72817
L70726 72845
L70754 72817
L70726 72789
L70726 72845
" />
<path d="M71091 73380
L71035 73352
L71007 73295
L71007 72789
" />
<path d="M71541 73352
L71485 73380
L71373 73380
L71316 73352
L71288 73295
L71288 73070
L71316 73014
L71373 72986
L71485 72986
L71541 73014
L71570 73070
L71570 73127
L71288 73183
" />
<path d="M71823 73323
L71851 73352
L71823 73380
L71795 73352
L71823 73323
L71823 73380
" />
<path d="M71823 73014
L71851 73042
L71823 73070
L71795 73042
L71823 73014
L71823 73070
" />
<path d="M72751 73070
L72554 73070
" />
<path d="M72554 73380
L72554 72789
L72835 72789
" />
<path d="M73060 73380
L73060 72986
" />
<path d="M73060 72789
L73032 72817
L73060 72845
L73088 72817
L73060 72789
L73060 72845
" />
<path d="M73341 72986
L73341 73380
" />
<path d="M73341 73042
L73369 73014
L73426 72986
L73510 72986
L73566 73014
L73594 73070
L73594 73380
" />
<path d="M74129 73380
L74129 73070
L74100 73014
L74044 72986
L73932 72986
L73876 73014
" />
<path d="M74129 73352
L74072 73380
L73932 73380
L73876 73352
L73847 73295
L73847 73239
L73876 73183
L73932 73155
L74072 73155
L74129 73127
" />
<path d="M74494 73380
L74438 73352
L74410 73295
L74410 72789
" />
<path d="M75169 73380
L75169 72789
L75394 72789
L75450 72817
L75478 72845
L75507 72902
L75507 72986
L75478 73042
L75450 73070
L75394 73099
L75169 73099
" />
<path d="M75760 73380
L75760 72986
" />
<path d="M75760 73099
L75788 73042
L75816 73014
L75872 72986
L75928 72986
" />
<path d="M76210 73380
L76153 73352
L76125 73323
L76097 73267
L76097 73099
L76125 73042
L76153 73014
L76210 72986
L76294 72986
L76350 73014
L76378 73042
L76406 73099
L76406 73267
L76378 73323
L76350 73352
L76294 73380
L76210 73380
" />
<path d="M76660 72986
L76660 73492
L76631 73548
L76575 73577
L76547 73577
" />
<path d="M76660 72789
L76631 72817
L76660 72845
L76688 72817
L76660 72789
L76660 72845
" />
<path d="M77166 73352
L77109 73380
L76997 73380
L76941 73352
L76913 73295
L76913 73070
L76941 73014
L76997 72986
L77109 72986
L77166 73014
L77194 73070
L77194 73127
L76913 73183
" />
<path d="M77700 73352
L77644 73380
L77531 73380
L77475 73352
L77447 73323
L77419 73267
L77419 73099
L77447 73042
L77475 73014
L77531 72986
L77644 72986
L77700 73014
" />
<path d="M77869 72986
L78094 72986
" />
<path d="M77953 72789
L77953 73295
L77981 73352
L78037 73380
L78094 73380
" />
<path d="M78291 73323
L78319 73352
L78291 73380
L78262 73352
L78291 73323
L78291 73380
" />
<path d="M78572 73380
L78572 72789
" />
<path d="M78628 73155
L78797 73380
" />
<path d="M78797 72986
L78572 73211
" />
<path d="M79050 73380
L79050 72986
" />
<path d="M79050 72789
L79022 72817
L79050 72845
L79078 72817
L79050 72789
L79050 72845
" />
<path d="M79584 73352
L79528 73380
L79415 73380
L79359 73352
L79331 73323
L79303 73267
L79303 73099
L79331 73042
L79359 73014
L79415 72986
L79528 72986
L79584 73014
" />
<path d="M80090 73380
L80090 73070
L80062 73014
L80006 72986
L79894 72986
L79837 73014
" />
<path d="M80090 73352
L80034 73380
L79894 73380
L79837 73352
L79809 73295
L79809 73239
L79837 73183
L79894 73155
L80034 73155
L80090 73127
" />
<path d="M80625 73380
L80625 72789
" />
<path d="M80625 73352
L80568 73380
L80456 73380
L80400 73352
L80372 73323
L80343 73267
L80343 73099
L80372 73042
L80400 73014
L80456 72986
L80568 72986
L80625 73014
" />
<path d="M80765 73436
L81215 73436
" />
<path d="M81356 72986
L81356 73577
" />
<path d="M81356 73014
L81412 72986
L81525 72986
L81581 73014
L81609 73042
L81637 73099
L81637 73267
L81609 73323
L81581 73352
L81525 73380
L81412 73380
L81356 73352
" />
<path d="M82143 73352
L82087 73380
L81974 73380
L81918 73352
L81890 73323
L81862 73267
L81862 73099
L81890 73042
L81918 73014
L81974 72986
L82087 72986
L82143 73014
" />
<path d="M82396 73380
L82396 72789
" />
<path d="M82396 73014
L82453 72986
L82565 72986
L82621 73014
L82649 73042
L82678 73099
L82678 73267
L82649 73323
L82621 73352
L82565 73380
L82453 73380
L82396 73352
" />
</g>
<g style="fill:#000000; fill-opacity:0.0; 
stroke:#000000; stroke-width:39.3701; stroke-opacity:1; 
stroke-linecap:round; stroke-linejoin:round;">
</g>
<g style="fill:#000000; fill-opacity:0.0; 
stroke:#000000; stroke-width:59.0551; stroke-opacity:1; 
stroke-linecap:round; stroke-linejoin:round;">
<path d="M69685 71459
L112205 71459
" />
</g>
<g style="fill:#000000; fill-opacity:0.0; 
stroke:#000000; stroke-width:39.3701; stroke-opacity:1; 
stroke-linecap:round; stroke-linejoin:round;">
</g>
<g style="fill:#000000; fill-opacity:0.0; 
stroke:#000000; stroke-width:59.0551; stroke-opacity:1; 
stroke-linecap:round; stroke-linejoin:round;">
<path d="M70192 72289
L70276 72317
L70417 72317
L70473 72289
L70501 72260
L70529 72204
L70529 72148
L70501 72092
L70473 72064
L70417 72036
L70304 72007
L70248 71979
L70220 71951
L70192 71895
L70192 71839
L70220 71782
L70248 71754
L70304 71726
L70445 71726
L70529 71754
" />
<path d="M70782 72317
L70782 71726
" />
<path d="M71035 72317
L71035 72007
L71007 71951
L70951 71923
L70867 71923
L70810 71951
L70782 71979
" />
<path d="M71541 72289
L71485 72317
L71373 72317
L71316 72289
L71288 72232
L71288 72007
L71316 71951
L71373 71923
L71485 71923
L71541 71951
L71570 72007
L71570 72064
L71288 72120
" />
<path d="M72048 72289
L71991 72317
L71879 72317
L71823 72289
L71795 72232
L71795 72007
L71823 71951
L71879 71923
L71991 71923
L72048 71951
L72076 72007
L72076 72064
L71795 72120
" />
<path d="M72244 71923
L72469 71923
" />
<path d="M72329 71726
L72329 72232
L72357 72289
L72413 72317
L72469 72317
" />
<path d="M72666 72260
L72694 72289
L72666 72317
L72638 72289
L72666 72260
L72666 72317
" />
<path d="M72666 71951
L72694 71979
L72666 72007
L72638 71979
L72666 71951
L72666 72007
" />
</g>
<g style="fill:#000000; fill-opacity:0.0; 
stroke:#000000; stroke-width:39.3701; stroke-opacity:1; 
stroke-linecap:round; stroke-linejoin:round;">
</g>
<g style="fill:#000000; fill-opacity:0.0; 
stroke:#000000; stroke-width:118.11; stroke-opacity:1; 
stroke-linecap:round; stroke-linejoin:round;">
<path d="M70135 70545
L70332 71136
L70529 70545
" />
<path d="M70951 71108
L70895 71136
L70782 71136
L70726 71108
L70698 71051
L70698 70826
L70726 70770
L70782 70742
L70895 70742
L70951 70770
L70979 70826
L70979 70883
L70698 70939
" />
<path d="M71232 70742
L71232 71136
" />
<path d="M71232 70798
L71260 70770
L71316 70742
L71401 70742
L71457 70770
L71485 70826
L71485 71136
" />
<path d="M71682 70742
L71907 70742
" />
<path d="M71766 70545
L71766 71051
L71795 71108
L71851 71136
L71907 71136
" />
<path d="M72076 71108
L72132 71136
L72244 71136
L72301 71108
L72329 71051
L72329 71023
L72301 70967
L72244 70939
L72160 70939
L72104 70911
L72076 70854
L72076 70826
L72104 70770
L72160 70742
L72244 70742
L72301 70770
" />
<path d="M72582 70742
L72582 71332
" />
<path d="M72582 70770
L72638 70742
L72751 70742
L72807 70770
L72835 70798
L72863 70854
L72863 71023
L72835 71079
L72807 71108
L72751 71136
L72638 71136
L72582 71108
" />
<path d="M73116 71136
L73116 70742
" />
<path d="M73116 70545
L73088 70573
L73116 70601
L73144 70573
L73116 70545
L73116 70601
" />
<path d="M73482 71136
L73426 71108
L73397 71051
L73397 70545
" />
<path d="M73679 71108
L73735 71136
L73847 71136
L73904 71108
L73932 71051
L73932 71023
L73904 70967
L73847 70939
L73763 70939
L73707 70911
L73679 70854
L73679 70826
L73707 70770
L73763 70742
L73847 70742
L73904 70770
" />
<path d="M74635 70545
L74635 71023
L74663 71079
L74691 71108
L74747 71136
L74860 71136
L74916 71108
L74944 71079
L74972 71023
L74972 70545
" />
<path d="M75253 70742
L75253 71136
" />
<path d="M75253 70798
L75282 70770
L75338 70742
L75422 70742
L75478 70770
L75507 70826
L75507 71136
" />
<path d="M75788 71136
L75788 70742
" />
<path d="M75788 70545
L75760 70573
L75788 70601
L75816 70573
L75788 70545
L75788 70601
" />
<path d="M76013 70742
L76153 71136
L76294 70742
" />
<path d="M76744 71108
L76688 71136
L76575 71136
L76519 71108
L76491 71051
L76491 70826
L76519 70770
L76575 70742
L76688 70742
L76744 70770
L76772 70826
L76772 70883
L76491 70939
" />
<path d="M77025 71136
L77025 70742
" />
<path d="M77025 70854
L77053 70798
L77081 70770
L77138 70742
L77194 70742
" />
<path d="M77363 71108
L77419 71136
L77531 71136
L77588 71108
L77616 71051
L77616 71023
L77588 70967
L77531 70939
L77447 70939
L77391 70911
L77363 70854
L77363 70826
L77391 70770
L77447 70742
L77531 70742
L77588 70770
" />
<path d="M77869 71136
L77869 70742
" />
<path d="M77869 70545
L77841 70573
L77869 70601
L77897 70573
L77869 70545
L77869 70601
" />
<path d="M78066 70742
L78291 70742
" />
<path d="M78150 70545
L78150 71051
L78178 71108
L78234 71136
L78291 71136
" />
<path d="M78431 70742
L78572 71136
" />
<path d="M78712 70742
L78572 71136
L78516 71276
L78487 71304
L78431 71332
" />
<path d="M79725 71079
L79697 71108
L79612 71136
L79556 71136
L79472 71108
L79415 71051
L79387 70995
L79359 70883
L79359 70798
L79387 70686
L79415 70629
L79472 70573
L79556 70545
L79612 70545
L79697 70573
L79725 70601
" />
<path d="M80062 71136
L80006 71108
L79978 71079
L79950 71023
L79950 70854
L79978 70798
L80006 70770
L80062 70742
L80147 70742
L80203 70770
L80231 70798
L80259 70854
L80259 71023
L80231 71079
L80203 71108
L80147 71136
L80062 71136
" />
<path d="M80597 71136
L80540 71108
L80512 71051
L80512 70545
" />
<path d="M80906 71136
L80850 71108
L80822 71051
L80822 70545
" />
<path d="M81356 71108
L81300 71136
L81187 71136
L81131 71108
L81103 71051
L81103 70826
L81131 70770
L81187 70742
L81300 70742
L81356 70770
L81384 70826
L81384 70883
L81103 70939
" />
<path d="M81890 70742
L81890 71220
L81862 71276
L81834 71304
L81778 71332
L81693 71332
L81637 71304
" />
<path d="M81890 71108
L81834 71136
L81721 71136
L81665 71108
L81637 71079
L81609 71023
L81609 70854
L81637 70798
L81665 70770
L81721 70742
L81834 70742
L81890 70770
" />
<path d="M82396 71108
L82340 71136
L82228 71136
L82171 71108
L82143 71051
L82143 70826
L82171 70770
L82228 70742
L82340 70742
L82396 70770
L82424 70826
L82424 70883
L82143 70939
" />
</g>
<g style="fill:#000000; fill-opacity:0.0; 
stroke:#000000; stroke-width:39.3701; stroke-opacity:1; 
stroke-linecap:round; stroke-linejoin:round;">
</g>
<g style="fill:#000000; fill-opacity:0.0; 
stroke:#000000; stroke-width:59.0551; stroke-opacity:1; 
stroke-linecap:round; stroke-linejoin:round;">
<path d="M70163 69364
L70304 69955
L70417 69533
L70529 69955
L70670 69364
" />
<path d="M71148 69955
L71148 69645
L71120 69589
L71063 69561
L70951 69561
L70895 69589
" />
<path d="M71148 69926
L71091 69955
L70951 69955
L70895 69926
L70867 69870
L70867 69814
L70895 69758
L70951 69730
L71091 69730
L71148 69701
" />
<path d="M71345 69561
L71570 69561
" />
<path d="M71429 69364
L71429 69870
L71457 69926
L71513 69955
L71570 69955
" />
<path d="M71991 69926
L71935 69955
L71823 69955
L71766 69926
L71738 69870
L71738 69645
L71766 69589
L71823 69561
L71935 69561
L71991 69589
L72019 69645
L72019 69701
L71738 69758
" />
<path d="M72273 69955
L72273 69561
" />
<path d="M72273 69673
L72301 69617
L72329 69589
L72385 69561
L72441 69561
" />
<path d="M72638 69955
L72638 69561
" />
<path d="M72638 69364
L72610 69392
L72638 69420
L72666 69392
L72638 69364
L72638 69420
" />
<path d="M72919 69561
L72919 69955
" />
<path d="M72919 69617
L72947 69589
L73004 69561
L73088 69561
L73144 69589
L73172 69645
L73172 69955
" />
<path d="M73707 69561
L73707 70039
L73679 70095
L73651 70123
L73594 70151
L73510 70151
L73454 70123
" />
<path d="M73707 69926
L73651 69955
L73538 69955
L73482 69926
L73454 69898
L73426 69842
L73426 69673
L73454 69617
L73482 69589
L73538 69561
L73651 69561
L73707 69589
" />
<path d="M74438 69955
L74438 69364
L74663 69364
L74719 69392
L74747 69420
L74775 69476
L74775 69561
L74747 69617
L74719 69645
L74663 69673
L74438 69673
" />
<path d="M75282 69561
L75282 69955
" />
<path d="M75028 69561
L75028 69870
L75057 69926
L75113 69955
L75197 69955
L75253 69926
L75282 69898
" />
<path d="M75563 69955
L75563 69561
" />
<path d="M75563 69617
L75591 69589
L75647 69561
L75732 69561
L75788 69589
L75816 69645
L75816 69955
" />
<path d="M75816 69645
L75844 69589
L75900 69561
L75985 69561
L76041 69589
L76069 69645
L76069 69955
" />
<path d="M76350 69561
L76350 70151
" />
<path d="M76350 69589
L76406 69561
L76519 69561
L76575 69589
L76603 69617
L76631 69673
L76631 69842
L76603 69898
L76575 69926
L76519 69955
L76406 69955
L76350 69926
" />
<path d="M77672 69898
L77644 69926
L77559 69955
L77503 69955
L77419 69926
L77363 69870
L77334 69814
L77306 69701
L77306 69617
L77334 69505
L77363 69448
L77419 69392
L77503 69364
L77559 69364
L77644 69392
L77672 69420
" />
<path d="M78009 69955
L77953 69926
L77925 69898
L77897 69842
L77897 69673
L77925 69617
L77953 69589
L78009 69561
L78094 69561
L78150 69589
L78178 69617
L78206 69673
L78206 69842
L78178 69898
L78150 69926
L78094 69955
L78009 69955
" />
<path d="M78459 69561
L78459 69955
" />
<path d="M78459 69617
L78487 69589
L78544 69561
L78628 69561
L78684 69589
L78712 69645
L78712 69955
" />
<path d="M78909 69561
L79134 69561
" />
<path d="M78994 69364
L78994 69870
L79022 69926
L79078 69955
L79134 69955
" />
<path d="M79331 69955
L79331 69561
" />
<path d="M79331 69673
L79359 69617
L79387 69589
L79444 69561
L79500 69561
" />
<path d="M79781 69955
L79725 69926
L79697 69898
L79669 69842
L79669 69673
L79697 69617
L79725 69589
L79781 69561
L79865 69561
L79922 69589
L79950 69617
L79978 69673
L79978 69842
L79950 69898
L79922 69926
L79865 69955
L79781 69955
" />
<path d="M80315 69955
L80259 69926
L80231 69870
L80231 69364
" />
<path d="M80625 69955
L80568 69926
L80540 69870
L80540 69364
" />
<path d="M81075 69926
L81018 69955
L80906 69955
L80850 69926
L80822 69870
L80822 69645
L80850 69589
L80906 69561
L81018 69561
L81075 69589
L81103 69645
L81103 69701
L80822 69758
" />
<path d="M81356 69955
L81356 69561
" />
<path d="M81356 69673
L81384 69617
L81412 69589
L81468 69561
L81525 69561
" />
</g>
<g style="fill:#000000; fill-opacity:0.0; 
stroke:#000000; stroke-width:39.3701; stroke-opacity:1; 
stroke-linecap:round; stroke-linejoin:round;">
</g>
<g style="fill:#000000; fill-opacity:0.0; 
stroke:#000000; stroke-width:59.0551; stroke-opacity:1; 
stroke-linecap:round; stroke-linejoin:round;">
<path d="M70220 68773
L70220 68183
L70360 68183
L70445 68211
L70501 68267
L70529 68323
L70557 68436
L70557 68520
L70529 68633
L70501 68689
L70445 68745
L70360 68773
L70220 68773
" />
<path d="M71063 68380
L71063 68773
" />
<path d="M70810 68380
L70810 68689
L70838 68745
L70895 68773
L70979 68773
L71035 68745
L71063 68717
" />
<path d="M71345 68773
L71345 68380
" />
<path d="M71345 68492
L71373 68436
L71401 68408
L71457 68380
L71513 68380
" />
<path d="M71963 68773
L71963 68464
L71935 68408
L71879 68380
L71766 68380
L71710 68408
" />
<path d="M71963 68745
L71907 68773
L71766 68773
L71710 68745
L71682 68689
L71682 68633
L71710 68577
L71766 68548
L71907 68548
L71963 68520
" />
<path d="M72244 68380
L72244 68773
" />
<path d="M72244 68436
L72273 68408
L72329 68380
L72413 68380
L72469 68408
L72498 68464
L72498 68773
" />
<path d="M73229 68773
L73229 68183
" />
<path d="M73566 68773
L73313 68436
" />
<path d="M73566 68183
L73229 68520
" />
<path d="M73819 68183
L73819 68661
L73847 68717
L73876 68745
L73932 68773
L74044 68773
L74100 68745
L74129 68717
L74157 68661
L74157 68183
" />
<path d="M74635 68464
L74719 68492
L74747 68520
L74775 68577
L74775 68661
L74747 68717
L74719 68745
L74663 68773
L74438 68773
L74438 68183
L74635 68183
L74691 68211
L74719 68239
L74747 68295
L74747 68352
L74719 68408
L74691 68436
L74635 68464
L74438 68464
" />
<path d="M75000 68605
L75282 68605
" />
<path d="M74944 68773
L75141 68183
L75338 68773
" />
<path d="M75507 68745
L75591 68773
L75732 68773
L75788 68745
L75816 68717
L75844 68661
L75844 68605
L75816 68548
L75788 68520
L75732 68492
L75619 68464
L75563 68436
L75535 68408
L75507 68352
L75507 68295
L75535 68239
L75563 68211
L75619 68183
L75760 68183
L75844 68211
" />
<path d="M75675 68802
L75732 68830
L75760 68886
L75732 68942
L75675 68970
L75591 68970
" />
</g>
<g style="fill:#000000; fill-opacity:0.0; 
stroke:#000000; stroke-width:39.3701; stroke-opacity:1; 
stroke-linecap:round; stroke-linejoin:round;">
</g>
<g style="fill:#000000; fill-opacity:0.0; 
stroke:#000000; stroke-width:59.0551; stroke-opacity:1; 
stroke-linecap:round; stroke-linejoin:round;">
<path d="M77559 75396
L77559 76577
" />
</g>
<g style="fill:#000000; fill-opacity:0.0; 
stroke:#000000; stroke-width:39.3701; stroke-opacity:1; 
stroke-linecap:round; stroke-linejoin:round;">
</g>
<g style="fill:#000000; fill-opacity:0.0; 
stroke:#000000; stroke-width:59.0551; stroke-opacity:1; 
stroke-linecap:round; stroke-linejoin:round;">
<path d="M102756 75396
L102756 77955
" />
</g>
<g style="fill:#C2C200; fill-opacity:0.0; 
stroke:#C2C200; stroke-width:59.0551; stroke-opacity:1; 
stroke-linecap:round; stroke-linejoin:round;">
<path d="M45600 30800
L45600 34800
" />
<path d="M80600 30800
L45600 30800
" />
<path d="M80600 38000
L80600 30800
" />
<path d="M80600 42200
L80600 38000
" />
<path d="M80600 51800
L80600 42200
" />
<path d="M45600 51200
L45600 34800
" />
<path d="M71600 58800
L80600 51800
" />
<path d="M54400 58800
L71600 58800
" />
<path d="M45600 51200
L54400 58800
" />
<path d="M51734 43140
L51715 43159
L51659 43178
L51621 43178
L51565 43159
L51528 43121
L51509 43084
L51490 43009
L51490 42953
L51509 42878
L51528 42840
L51565 42803
L51621 42784
L51659 42784
L51715 42803
L51734 42821
" />
<path d="M51884 42821
L51903 42803
L51940 42784
L52034 42784
L52071 42803
L52090 42821
L52109 42859
L52109 42896
L52090 42953
L51865 43178
L52109 43178
" />
<path d="M54949 45625
L54946 45583
L54960 45532
L54980 45455
L54978 45413
L54959 45381
" />
<path d="M54887 45444
L54885 45402
L54899 45351
L54954 45297
L55068 45231
L55142 45210
L55193 45224
L55228 45247
L55266 45312
L55268 45354
L55255 45405
L55199 45459
L55085 45524
L55011 45545
L54960 45532
L54925 45509
L54887 45444
" />
<path d="M55159 45915
L55047 45720
" />
<path d="M55103 45817
L55444 45620
L55376 45616
L55325 45602
L55290 45579
" />
<path d="M54134 41740
L54115 41759
L54059 41778
L54021 41778
L53965 41759
L53928 41721
L53909 41684
L53890 41609
L53890 41553
L53909 41478
L53928 41440
L53965 41403
L54021 41384
L54059 41384
L54115 41403
L54134 41421
" />
<path d="M54509 41778
L54284 41778
" />
<path d="M54396 41778
L54396 41384
L54359 41440
L54321 41478
L54284 41496
" />
<path d="M70942 38522
L70960 38541
L70979 38597
L70979 38634
L70960 38691
L70923 38728
L70885 38747
L70810 38766
L70754 38766
L70679 38747
L70642 38728
L70604 38691
L70585 38634
L70585 38597
L70604 38541
L70623 38522
" />
<path d="M70717 38184
L70979 38184
" />
<path d="M70567 38278
L70848 38372
L70848 38128
" />
<path d="M49109 32378
L49109 31984
L49203 31984
L49259 32003
L49296 32040
L49315 32078
L49334 32153
L49334 32209
L49315 32284
L49296 32321
L49259 32359
L49203 32378
L49109 32378
" />
<path d="M49709 32378
L49484 32378
" />
<path d="M49596 32378
L49596 31984
L49559 32040
L49521 32078
L49484 32096
" />
<path d="M69909 57378
L69909 56984
L70003 56984
L70059 57003
L70096 57040
L70115 57078
L70134 57153
L70134 57209
L70115 57284
L70096 57321
L70059 57359
L70003 57378
L69909 57378
" />
<path d="M70284 57021
L70303 57003
L70340 56984
L70434 56984
L70471 57003
L70490 57021
L70509 57059
L70509 57096
L70490 57153
L70265 57378
L70509 57378
" />
<path d="M71309 55378
L71309 54984
L71403 54984
L71459 55003
L71496 55040
L71515 55078
L71534 55153
L71534 55209
L71515 55284
L71496 55321
L71459 55359
L71403 55378
L71309 55378
" />
<path d="M71665 54984
L71909 54984
L71778 55134
L71834 55134
L71871 55153
L71890 55171
L71909 55209
L71909 55303
L71890 55340
L71871 55359
L71834 55378
L71721 55378
L71684 55359
L71665 55340
" />
<path d="M61409 37589
L61409 37195
L61503 37195
L61559 37214
L61596 37251
L61615 37289
L61634 37364
L61634 37420
L61615 37495
L61596 37532
L61559 37570
L61503 37589
L61409 37589
" />
<path d="M61971 37326
L61971 37589
" />
<path d="M61878 37176
L61784 37457
L62028 37457
" />
<path d="M74126 39090
L73733 39090
L73733 38996
L73751 38940
L73789 38903
L73826 38884
L73901 38865
L73958 38865
L74033 38884
L74070 38903
L74108 38940
L74126 38996
L74126 39090
" />
<path d="M73733 38509
L73733 38696
L73920 38715
L73901 38696
L73883 38659
L73883 38565
L73901 38528
L73920 38509
L73958 38490
L74051 38490
L74089 38509
L74108 38528
L74126 38565
L74126 38659
L74108 38696
L74089 38715
" />
<path d="M77509 52326
L77509 51933
L77603 51933
L77659 51951
L77696 51989
L77715 52026
L77734 52101
L77734 52158
L77715 52233
L77696 52270
L77659 52308
L77603 52326
L77509 52326
" />
<path d="M78071 51933
L77996 51933
L77959 51951
L77940 51970
L77903 52026
L77884 52101
L77884 52251
L77903 52289
L77921 52308
L77959 52326
L78034 52326
L78071 52308
L78090 52289
L78109 52251
L78109 52158
L78090 52120
L78071 52101
L78034 52083
L77959 52083
L77921 52101
L77903 52120
L77884 52158
" />
<path d="M48709 44178
L48709 43784
L48859 43784
L48896 43803
L48915 43821
L48934 43859
L48934 43915
L48915 43953
L48896 43971
L48859 43990
L48709 43990
" />
<path d="M49309 44178
L49084 44178
" />
<path d="M49196 44178
L49196 43784
L49159 43840
L49121 43878
L49084 43896
" />
<path d="M48309 50778
L48309 50384
L48459 50384
L48496 50403
L48515 50421
L48534 50459
L48534 50515
L48515 50553
L48496 50571
L48459 50590
L48309 50590
" />
<path d="M48684 50421
L48703 50403
L48740 50384
L48834 50384
L48871 50403
L48890 50421
L48909 50459
L48909 50496
L48890 50553
L48665 50778
L48909 50778
" />
<path d="M75809 41113
L75809 40719
L75959 40719
L75996 40738
L76015 40757
L76034 40794
L76034 40851
L76015 40888
L75996 40907
L75959 40926
L75809 40926
" />
<path d="M76165 40719
L76409 40719
L76278 40869
L76334 40869
L76371 40888
L76390 40907
L76409 40944
L76409 41038
L76390 41076
L76371 41094
L76334 41113
L76221 41113
L76184 41094
L76165 41076
" />
<path d="M54994 51475
L54992 51433
L55005 51382
L55026 51305
L55023 51263
L55005 51231
" />
<path d="M54933 51294
L54930 51252
L54944 51201
L55000 51147
L55113 51081
L55188 51060
L55239 51074
L55274 51097
L55311 51162
L55314 51204
L55300 51255
L55244 51309
L55131 51374
L55056 51395
L55005 51382
L54970 51359
L54933 51294
" />
<path d="M55401 51392
L55426 51398
L55461 51422
L55508 51503
L55511 51545
L55504 51570
L55481 51605
L55448 51624
L55390 51636
L55083 51553
L55205 51765
" />
<path d="M56394 47475
L56392 47433
L56405 47382
L56426 47305
L56423 47263
L56405 47231
" />
<path d="M56333 47294
L56330 47252
L56344 47201
L56400 47147
L56513 47081
L56588 47060
L56639 47074
L56674 47097
L56711 47162
L56714 47204
L56700 47255
L56644 47309
L56531 47374
L56456 47395
L56405 47382
L56370 47359
L56333 47294
" />
<path d="M56824 47357
L56946 47568
L56750 47529
L56778 47578
L56781 47620
L56774 47645
L56751 47680
L56670 47727
L56628 47730
L56602 47723
L56567 47700
L56511 47602
L56508 47560
L56515 47535
" />
<path d="M56394 53675
L56392 53633
L56405 53582
L56426 53505
L56423 53463
L56405 53431
" />
<path d="M56333 53494
L56330 53452
L56344 53401
L56400 53347
L56513 53281
L56588 53260
L56639 53274
L56674 53297
L56711 53362
L56714 53404
L56700 53455
L56644 53509
L56531 53574
L56456 53595
L56405 53582
L56370 53559
L56333 53494
" />
<path d="M56813 53801
L56586 53932
" />
<path d="M56896 53645
L56606 53704
L56728 53915
" />
<path d="M51734 48978
L51603 48790
" />
<path d="M51509 48978
L51509 48584
L51659 48584
L51696 48603
L51715 48621
L51734 48659
L51734 48715
L51715 48753
L51696 48771
L51659 48790
L51509 48790
" />
<path d="M52109 48978
L51884 48978
" />
<path d="M51996 48978
L51996 48584
L51959 48640
L51921 48678
L51884 48696
" />
<path d="M51734 55178
L51603 54990
" />
<path d="M51509 55178
L51509 54784
L51659 54784
L51696 54803
L51715 54821
L51734 54859
L51734 54915
L51715 54953
L51696 54971
L51659 54990
L51509 54990
" />
<path d="M51884 54821
L51903 54803
L51940 54784
L52034 54784
L52071 54803
L52090 54821
L52109 54859
L52109 54896
L52090 54953
L51865 55178
L52109 55178
" />
<path d="M54134 43178
L54003 42990
" />
<path d="M53909 43178
L53909 42784
L54059 42784
L54096 42803
L54115 42821
L54134 42859
L54134 42915
L54115 42953
L54096 42971
L54059 42990
L53909 42990
" />
<path d="M54265 42784
L54509 42784
L54378 42934
L54434 42934
L54471 42953
L54490 42971
L54509 43009
L54509 43103
L54490 43140
L54471 43159
L54434 43178
L54321 43178
L54284 43159
L54265 43140
" />
<path d="M53934 55178
L53803 54990
" />
<path d="M53709 55178
L53709 54784
L53859 54784
L53896 54803
L53915 54821
L53934 54859
L53934 54915
L53915 54953
L53896 54971
L53859 54990
L53709 54990
" />
<path d="M54271 54915
L54271 55178
" />
<path d="M54178 54765
L54084 55046
L54328 55046
" />
<path d="M60934 49378
L60803 49190
" />
<path d="M60709 49378
L60709 48984
L60859 48984
L60896 49003
L60915 49021
L60934 49059
L60934 49115
L60915 49153
L60896 49171
L60859 49190
L60709 49190
" />
<path d="M61290 48984
L61103 48984
L61084 49171
L61103 49153
L61140 49134
L61234 49134
L61271 49153
L61290 49171
L61309 49209
L61309 49303
L61290 49340
L61271 49359
L61234 49378
L61140 49378
L61103 49359
L61084 49340
" />
<path d="M60134 55378
L60003 55190
" />
<path d="M59909 55378
L59909 54984
L60059 54984
L60096 55003
L60115 55021
L60134 55059
L60134 55115
L60115 55153
L60096 55171
L60059 55190
L59909 55190
" />
<path d="M60471 54984
L60396 54984
L60359 55003
L60340 55021
L60303 55078
L60284 55153
L60284 55303
L60303 55340
L60321 55359
L60359 55378
L60434 55378
L60471 55359
L60490 55340
L60509 55303
L60509 55209
L60490 55171
L60471 55153
L60434 55134
L60359 55134
L60321 55153
L60303 55171
L60284 55209
" />
<path d="M65534 47578
L65403 47390
" />
<path d="M65309 47578
L65309 47184
L65459 47184
L65496 47203
L65515 47221
L65534 47259
L65534 47315
L65515 47353
L65496 47371
L65459 47390
L65309 47390
" />
<path d="M65665 47184
L65928 47184
L65759 47578
" />
<path d="M63734 47578
L63603 47390
" />
<path d="M63509 47578
L63509 47184
L63659 47184
L63696 47203
L63715 47221
L63734 47259
L63734 47315
L63715 47353
L63696 47371
L63659 47390
L63509 47390
" />
<path d="M63959 47353
L63921 47334
L63903 47315
L63884 47278
L63884 47259
L63903 47221
L63921 47203
L63959 47184
L64034 47184
L64071 47203
L64090 47221
L64109 47259
L64109 47278
L64090 47315
L64071 47334
L64034 47353
L63959 47353
L63921 47371
L63903 47390
L63884 47428
L63884 47503
L63903 47540
L63921 47559
L63959 47578
L64034 47578
L64071 47559
L64090 47540
L64109 47503
L64109 47428
L64090 47390
L64071 47371
L64034 47353
" />
<path d="M69134 47868
L69003 47681
" />
<path d="M68909 47868
L68909 47474
L69059 47474
L69096 47493
L69115 47512
L69134 47549
L69134 47606
L69115 47643
L69096 47662
L69059 47681
L68909 47681
" />
<path d="M69321 47868
L69396 47868
L69434 47849
L69453 47831
L69490 47774
L69509 47699
L69509 47549
L69490 47512
L69471 47493
L69434 47474
L69359 47474
L69321 47493
L69303 47512
L69284 47549
L69284 47643
L69303 47681
L69321 47699
L69359 47718
L69434 47718
L69471 47699
L69490 47681
L69509 47643
" />
<path d="M69146 45978
L69015 45790
" />
<path d="M68921 45978
L68921 45584
L69071 45584
L69109 45603
L69128 45621
L69146 45659
L69146 45715
L69128 45753
L69109 45771
L69071 45790
L68921 45790
" />
<path d="M69521 45978
L69296 45978
" />
<path d="M69409 45978
L69409 45584
L69371 45640
L69334 45678
L69296 45696
" />
<path d="M69765 45584
L69803 45584
L69840 45603
L69859 45621
L69878 45659
L69896 45734
L69896 45828
L69878 45903
L69859 45940
L69840 45959
L69803 45978
L69765 45978
L69728 45959
L69709 45940
L69690 45903
L69671 45828
L69671 45734
L69690 45659
L69709 45621
L69728 45603
L69765 45584
" />
<path d="M70346 42868
L70215 42681
" />
<path d="M70121 42868
L70121 42474
L70271 42474
L70309 42493
L70328 42512
L70346 42549
L70346 42606
L70328 42643
L70309 42662
L70271 42681
L70121 42681
" />
<path d="M70721 42868
L70496 42868
" />
<path d="M70609 42868
L70609 42474
L70571 42531
L70534 42568
L70496 42587
" />
<path d="M71096 42868
L70871 42868
" />
<path d="M70984 42868
L70984 42474
L70946 42531
L70909 42568
L70871 42587
" />
<path d="M63868 44053
L63681 44184
" />
<path d="M63868 44278
L63474 44278
L63474 44128
L63493 44090
L63512 44071
L63549 44053
L63606 44053
L63643 44071
L63662 44090
L63681 44128
L63681 44278
" />
<path d="M63868 43678
L63868 43903
" />
<path d="M63868 43790
L63474 43790
L63531 43828
L63568 43865
L63587 43903
" />
<path d="M63512 43528
L63493 43509
L63474 43471
L63474 43378
L63493 43340
L63512 43321
L63549 43303
L63587 43303
L63643 43321
L63868 43546
L63868 43303
" />
<path d="M66500 51384
L66500 51703
L66518 51740
L66537 51759
L66575 51778
L66650 51778
L66687 51759
L66706 51740
L66725 51703
L66725 51384
" />
<path d="M66893 51421
L66912 51403
L66949 51384
L67043 51384
L67081 51403
L67099 51421
L67118 51459
L67118 51496
L67099 51553
L66874 51778
L67118 51778
" />
<path d="M60140 37065
L60159 37084
L60178 37140
L60178 37178
L60159 37234
L60121 37271
L60084 37290
L60009 37309
L59953 37309
L59878 37290
L59840 37271
L59803 37234
L59784 37178
L59784 37140
L59803 37084
L59821 37065
" />
<path d="M59784 36934
L59784 36690
L59934 36821
L59934 36765
L59953 36728
L59971 36709
L60009 36690
L60103 36690
L60140 36709
L60159 36728
L60178 36765
L60178 36878
L60159 36915
L60140 36934
" />
<path d="M76571 45184
L76571 45465
L76553 45521
L76515 45559
L76459 45578
L76421 45578
" />
<path d="M76759 45578
L76759 45184
L76909 45184
L76946 45203
L76965 45221
L76984 45259
L76984 45315
L76965 45353
L76946 45371
L76909 45390
L76759 45390
" />
<path d="M77359 45578
L77134 45578
" />
<path d="M77246 45578
L77246 45184
L77209 45240
L77171 45278
L77134 45296
" />
<path d="M64962 39615
L64925 39596
L64887 39559
L64831 39503
L64793 39484
L64756 39484
" />
<path d="M64775 39578
L64737 39559
L64700 39521
L64681 39446
L64681 39315
L64700 39240
L64737 39203
L64775 39184
L64850 39184
L64887 39203
L64925 39240
L64943 39315
L64943 39446
L64925 39521
L64887 39559
L64850 39578
L64775 39578
" />
<path d="M65299 39184
L65112 39184
L65093 39371
L65112 39353
L65149 39334
L65243 39334
L65281 39353
L65299 39371
L65318 39409
L65318 39503
L65299 39540
L65281 39559
L65243 39578
L65149 39578
L65112 39559
L65093 39540
" />
<path d="M61300 33484
L61300 33803
L61318 33840
L61337 33859
L61375 33878
L61450 33878
L61487 33859
L61506 33840
L61525 33803
L61525 33484
" />
<path d="M61918 33878
L61693 33878
" />
<path d="M61806 33878
L61806 33484
L61768 33540
L61731 33578
L61693 33596
" />
</g>
<g style="fill:#008484; fill-opacity:0.0; 
stroke:#008484; stroke-width:59.0551; stroke-opacity:1; 
stroke-linecap:round; stroke-linejoin:round;">
</g>
<g style="fill:#008484; fill-opacity:0.0; 
stroke:#008484; stroke-width:47.2441; stroke-opacity:1; 
stroke-linecap:round; stroke-linejoin:round;">
<path d="M52000 36666
L52000 37375
" />
<path d="M52354 37021
L51645 37021
" />
<path d="M53007 35954
L50992 35954
" />
<path d="M53007 40332
L50992 40332
" />
<path d="M53007 35954
L53007 36662
" />
<path d="M53007 36662
L52653 37017
" />
<path d="M52653 37017
L53007 37371
" />
<path d="M53007 37371
L53007 40332
" />
<path d="M50992 35954
L50992 36662
" />
<path d="M50992 36662
L51346 37017
" />
<path d="M51346 37017
L50992 37371
" />
<path d="M50992 37371
L50992 40332
" />
<path d="M52000 35143
L52000 35954
" />
<path d="M52000 41143
L52000 40332
" />
<path d="M56616 43864
L55389 44573
" />
<path d="M56878.8 45736.5 A1023.62 1023.62 0.0 0 0 56631.9 43861.3 " />
<path d="M55378.2 44585.1 A1023.62 1023.62 0.0 0 0 56878.8 45736.5 " />
<path d="M55000 38133
L55000 38606
" />
<path d="M55255 38370
L54744 38370
" />
<circle cx="55000" cy="39492.1" r="1610.24" /> 
<path d="M69400 36980
L69400 37688
" />
<path d="M69754 37334
L69045 37334
" />
<path d="M70407 36267
L68392 36267
" />
<path d="M70407 40645
L68392 40645
" />
<path d="M70407 36267
L70407 36976
" />
<path d="M70407 36976
L70053 37330
" />
<path d="M70053 37330
L70407 37685
" />
<path d="M70407 37685
L70407 40645
" />
<path d="M68392 36267
L68392 36976
" />
<path d="M68392 36976
L68746 37330
" />
<path d="M68746 37330
L68392 37685
" />
<path d="M68392 37685
L68392 40645
" />
<path d="M69400 35456
L69400 36267
" />
<path d="M69400 41456
L69400 40645
" />
<path d="M49955 34152
L48844 34152
" />
<path d="M48844 34152
L48844 36247
" />
<path d="M48844 36247
L49955 36247
" />
<path d="M49955 36247
L49955 34152
" />
<path d="M49400 33625
L49400 34152
" />
<path d="M49400 36774
L49400 36247
" />
<path d="M49955 34483
L48844 34483
" />
<path d="M66152 56644
L66152 57755
" />
<path d="M66152 57755
L68247 57755
" />
<path d="M68247 57755
L68247 56644
" />
<path d="M68247 56644
L66152 56644
" />
<path d="M65625 57200
L66152 57200
" />
<path d="M68774 57200
L68247 57200
" />
<path d="M66483 56644
L66483 57755
" />
<path d="M69647 55755
L69647 54644
" />
<path d="M69647 54644
L67552 54644
" />
<path d="M67552 54644
L67552 55755
" />
<path d="M67552 55755
L69647 55755
" />
<path d="M70174 55200
L69647 55200
" />
<path d="M67025 55200
L67552 55200
" />
<path d="M69316 55755
L69316 54644
" />
<path d="M63507.1 39600.2 A1807.09 1807.09 0.0 0 0 60101.6 38757 " />
<path d="M60101.6 40443 A1807.09 1807.09 0.0 0 0 63507.1 39599.8 " />
<circle cx="61700" cy="39600" r="1574.8" /> 
<path d="M60101 38756
L60101 40443
" />
<path d="M73555 37752
L72444 37752
" />
<path d="M72444 37752
L72444 39847
" />
<path d="M72444 39847
L73555 39847
" />
<path d="M73555 39847
L73555 37752
" />
<path d="M73000 37225
L73000 37752
" />
<path d="M73000 40374
L73000 39847
" />
<path d="M73555 38083
L72444 38083
" />
<path d="M78847 51755
L78847 50644
" />
<path d="M78847 50644
L76752 50644
" />
<path d="M76752 50644
L76752 51755
" />
<path d="M76752 51755
L78847 51755
" />
<path d="M79374 51200
L78847 51200
" />
<path d="M76225 51200
L76752 51200
" />
<path d="M78516 51755
L78516 50644
" />
</g>
<g style="fill:#008484; fill-opacity:0.0; 
stroke:#008484; stroke-width:59.0551; stroke-opacity:1; 
stroke-linecap:round; stroke-linejoin:round;">
<path d="M48300 41500
L48300 43500
" />
<path d="M50050 41500
L50050 43500
" />
<path d="M47550 43500
L47550 41500
" />
<path d="M47550 43500
L50050 43500
" />
<path d="M47550 41500
L50050 41500
" />
<path d="M47350 50100
L49850 50100
" />
<path d="M47350 47100
L49850 47100
" />
<path d="M48100 47100
L48100 50100
" />
<path d="M47350 50100
L47350 47100
" />
<path d="M49850 47100
L49850 50100
" />
<path d="M75100 39900
L77100 39900
" />
<path d="M75100 38150
L77100 38150
" />
<path d="M77100 40650
L75100 40650
" />
<path d="M77100 40650
L77100 38150
" />
<path d="M75100 40650
L75100 38150
" />
</g>
<g style="fill:#008484; fill-opacity:0.0; 
stroke:#008484; stroke-width:47.2441; stroke-opacity:1; 
stroke-linecap:round; stroke-linejoin:round;">
<path d="M56482 49364
L55255 50073
" />
<path d="M56744.8 51236.5 A1023.62 1023.62 0.0 0 0 56497.9 49361.3 " />
<path d="M55244.3 50085.1 A1023.62 1023.62 0.0 0 0 56744.8 51236.5 " />
<path d="M58216 46064
L56989 46773
" />
<path d="M58478.8 47936.5 A1023.62 1023.62 0.0 0 0 58231.9 46061.3 " />
<path d="M56978.2 46785.1 A1023.62 1023.62 0.0 0 0 58478.8 47936.5 " />
<path d="M58082 51764
L56855 52473
" />
<path d="M58344.8 53636.5 A1023.62 1023.62 0.0 0 0 58097.9 51761.3 " />
<path d="M56844.3 52485.1 A1023.62 1023.62 0.0 0 0 58344.8 53636.5 " />
<path d="M51284 47063
L52315 47063
" />
<path d="M52315 47063
L52315 44536
" />
<path d="M52315 44536
L51284 44536
" />
<path d="M51284 44536
L51284 47063
" />
<path d="M51800 47414
L51800 47063
" />
<path d="M51800 44185
L51800 44536
" />
<path d="M51284 53263
L52315 53263
" />
<path d="M52315 53263
L52315 50736
" />
<path d="M52315 50736
L51284 50736
" />
<path d="M51284 50736
L51284 53263
" />
<path d="M51800 53614
L51800 53263
" />
<path d="M51800 50385
L51800 50736
" />
<path d="M54715 44536
L53684 44536
" />
<path d="M53684 44536
L53684 47063
" />
<path d="M53684 47063
L54715 47063
" />
<path d="M54715 47063
L54715 44536
" />
<path d="M54200 44185
L54200 44536
" />
<path d="M54200 47414
L54200 47063
" />
<path d="M54515 50736
L53484 50736
" />
<path d="M53484 50736
L53484 53263
" />
<path d="M53484 53263
L54515 53263
" />
<path d="M54515 53263
L54515 50736
" />
<path d="M54000 50385
L54000 50736
" />
<path d="M54000 53614
L54000 53263
" />
<path d="M61315 45136
L60284 45136
" />
<path d="M60284 45136
L60284 47663
" />
<path d="M60284 47663
L61315 47663
" />
<path d="M61315 47663
L61315 45136
" />
<path d="M60800 44785
L60800 45136
" />
<path d="M60800 48014
L60800 47663
" />
<path d="M60284 53463
L61315 53463
" />
<path d="M61315 53463
L61315 50936
" />
<path d="M61315 50936
L60284 50936
" />
<path d="M60284 50936
L60284 53463
" />
<path d="M60800 53814
L60800 53463
" />
<path d="M60800 50585
L60800 50936
" />
<path d="M65084 51663
L66115 51663
" />
<path d="M66115 51663
L66115 49136
" />
<path d="M66115 49136
L65084 49136
" />
<path d="M65084 49136
L65084 51663
" />
<path d="M65600 52014
L65600 51663
" />
<path d="M65600 48785
L65600 49136
" />
<path d="M64315 49136
L63284 49136
" />
<path d="M63284 49136
L63284 51663
" />
<path d="M63284 51663
L64315 51663
" />
<path d="M64315 51663
L64315 49136
" />
<path d="M63800 48785
L63800 49136
" />
<path d="M63800 52014
L63800 51663
" />
<path d="M69936 48084
L69936 49115
" />
<path d="M69936 49115
L72463 49115
" />
<path d="M72463 49115
L72463 48084
" />
<path d="M72463 48084
L69936 48084
" />
<path d="M69585 48600
L69936 48600
" />
<path d="M72814 48600
L72463 48600
" />
<path d="M72463 47315
L72463 46284
" />
<path d="M72463 46284
L69936 46284
" />
<path d="M69936 46284
L69936 47315
" />
<path d="M69936 47315
L72463 47315
" />
<path d="M72814 46800
L72463 46800
" />
<path d="M69585 46800
L69936 46800
" />
<path d="M70536 43084
L70536 44115
" />
<path d="M70536 44115
L73063 44115
" />
<path d="M73063 44115
L73063 43084
" />
<path d="M73063 43084
L70536 43084
" />
<path d="M70185 43600
L70536 43600
" />
<path d="M73414 43600
L73063 43600
" />
<path d="M64084 43863
L65115 43863
" />
<path d="M65115 43863
L65115 41336
" />
<path d="M65115 41336
L64084 41336
" />
<path d="M64084 41336
L64084 43863
" />
<path d="M64600 44214
L64600 43863
" />
<path d="M64600 40985
L64600 41336
" />
<path d="M67252 51893
L67252 52590
" />
<path d="M67252 52590
L74347 52590
" />
<path d="M74347 52590
L74347 50409
" />
<path d="M74347 50409
L67252 50409
" />
<path d="M67252 50409
L67252 51106
" />
<path d="M67252.8 51893.7 A393.701 393.701 0.0 0 0 67252.8 51106.3 " />
<path d="M58600 35866
L58600 36575
" />
<path d="M58954 36221
L58245 36221
" />
<path d="M59607 35154
L57592 35154
" />
<path d="M59607 39532
L57592 39532
" />
<path d="M59607 35154
L59607 35862
" />
<path d="M59607 35862
L59253 36217
" />
<path d="M59253 36217
L59607 36571
" />
<path d="M59607 36571
L59607 39532
" />
<path d="M57592 35154
L57592 35862
" />
<path d="M57592 35862
L57946 36217
" />
<path d="M57946 36217
L57592 36571
" />
<path d="M57592 36571
L57592 39532
" />
<path d="M58600 34343
L58600 35154
" />
<path d="M58600 40343
L58600 39532
" />
<path d="M66329 32430
L66329 39060
" />
<path d="M64266 32430
L64266 33009
" />
<path d="M64266 34190
L64266 35155
" />
<path d="M64266 36336
L64266 37300
" />
<path d="M64266 38481
L64266 39060
" />
<path d="M66329 32430
L64266 32430
" />
<path d="M66329 39060
L64266 39060
" />
<path d="M66038 32430
L66038 33009
" />
<path d="M66038 34190
L66038 35155
" />
<path d="M66038 36336
L66038 37300
" />
<path d="M66038 38481
L66038 39060
" />
<path d="M66329 35035
L66038 35035
" />
<path d="M66329 36456
L66038 36456
" />
</g> 
</svg>
