G04 #@! TF.FileFunction,Copper,L2,Bot,Signal*
%FSLAX46Y46*%
G04 Gerber Fmt 4.6, Leading zero omitted, Abs format (unit mm)*
G04 Created by KiCad (PCBNEW 4.0.5) date 06/09/17 23:26:49*
%MOMM*%
%LPD*%
G01*
G04 APERTURE LIST*
%ADD10C,0.100000*%
%ADD11R,2.400000X2.400000*%
%ADD12O,2.400000X2.400000*%
%ADD13C,1.000000*%
%ADD14R,1.600000X1.600000*%
%ADD15C,1.600000*%
%ADD16R,1.800000X1.800000*%
%ADD17O,1.800000X1.800000*%
%ADD18C,1.800000*%
%ADD19O,3.014980X1.506220*%
%ADD20O,1.506220X3.014980*%
%ADD21O,1.600000X1.600000*%
%ADD22C,1.524000*%
%ADD23R,4.500000X2.700000*%
%ADD24O,4.500000X2.700000*%
%ADD25C,0.254000*%
G04 APERTURE END LIST*
D10*
D11*
X132080000Y-87884000D03*
D12*
X132080000Y-105884000D03*
D13*
X143807148Y-115018852D03*
X142072295Y-114554000D03*
D10*
G36*
X143588987Y-113100987D02*
X144455013Y-112600987D01*
X144955013Y-113467013D01*
X144088987Y-113967013D01*
X143588987Y-113100987D01*
X143588987Y-113100987D01*
G37*
D14*
X139700000Y-99060000D03*
D15*
X139700000Y-101560000D03*
D11*
X176276000Y-88680000D03*
D12*
X176276000Y-106680000D03*
D16*
X125476000Y-84328000D03*
D17*
X125476000Y-94488000D03*
D16*
X165608000Y-145288000D03*
D17*
X175768000Y-145288000D03*
D16*
X179324000Y-140208000D03*
D17*
X169164000Y-140208000D03*
D16*
X155448000Y-100584000D03*
D18*
X157988000Y-100584000D03*
D16*
X185420000Y-93472000D03*
D17*
X185420000Y-103632000D03*
D16*
X202692000Y-130048000D03*
D17*
X192532000Y-130048000D03*
D19*
X123952000Y-109220000D03*
X123952000Y-106680000D03*
X123444000Y-125984000D03*
X123444000Y-123444000D03*
X123444000Y-120904000D03*
D20*
X194564000Y-100076000D03*
X192024000Y-100076000D03*
D13*
X143466853Y-128988852D03*
X141732000Y-128524000D03*
D10*
G36*
X143248692Y-127070987D02*
X144114718Y-126570987D01*
X144614718Y-127437013D01*
X143748692Y-127937013D01*
X143248692Y-127070987D01*
X143248692Y-127070987D01*
G37*
D13*
X147871148Y-120606852D03*
X146136295Y-120142000D03*
D10*
G36*
X147652987Y-119055013D02*
X148152987Y-118188987D01*
X149019013Y-118688987D01*
X148519013Y-119555013D01*
X147652987Y-119055013D01*
X147652987Y-119055013D01*
G37*
D13*
X147530853Y-135084852D03*
X145796000Y-134620000D03*
D10*
G36*
X147312692Y-133166987D02*
X148178718Y-132666987D01*
X148678718Y-133533013D01*
X147812692Y-134033013D01*
X147312692Y-133166987D01*
X147312692Y-133166987D01*
G37*
D15*
X131572000Y-121412000D03*
D21*
X131572000Y-111252000D03*
D15*
X131572000Y-137160000D03*
D21*
X131572000Y-127000000D03*
D15*
X137668000Y-111252000D03*
D21*
X137668000Y-121412000D03*
D15*
X137160000Y-127000000D03*
D21*
X137160000Y-137160000D03*
D15*
X154432000Y-112776000D03*
D21*
X154432000Y-122936000D03*
D15*
X154432000Y-137668000D03*
D21*
X154432000Y-127508000D03*
D15*
X166624000Y-133096000D03*
D21*
X166624000Y-122936000D03*
D15*
X162052000Y-122936000D03*
D21*
X162052000Y-133096000D03*
D15*
X175768000Y-123444000D03*
D21*
X185928000Y-123444000D03*
D15*
X185928000Y-118872000D03*
D21*
X175768000Y-118872000D03*
D15*
X177292000Y-110744000D03*
D21*
X187452000Y-110744000D03*
D15*
X164084000Y-113284000D03*
D21*
X164084000Y-103124000D03*
D14*
X172212000Y-134620000D03*
D21*
X187452000Y-127000000D03*
X174752000Y-134620000D03*
X184912000Y-127000000D03*
X177292000Y-134620000D03*
X182372000Y-127000000D03*
X179832000Y-134620000D03*
X179832000Y-127000000D03*
X182372000Y-134620000D03*
X177292000Y-127000000D03*
X184912000Y-134620000D03*
X174752000Y-127000000D03*
X187452000Y-134620000D03*
X172212000Y-127000000D03*
D11*
X148844000Y-85852000D03*
D12*
X148844000Y-103852000D03*
D22*
X194818000Y-112776000D03*
X197358000Y-112776000D03*
D23*
X165608000Y-85344000D03*
D24*
X165608000Y-90794000D03*
X165608000Y-96244000D03*
D22*
X153924000Y-81788000D03*
X156464000Y-83058000D03*
X159004000Y-81788000D03*
D25*
G36*
X204014000Y-128667800D02*
X203843890Y-128551569D01*
X203592000Y-128500560D01*
X201792000Y-128500560D01*
X201556683Y-128544838D01*
X201340559Y-128683910D01*
X201195569Y-128896110D01*
X201144560Y-129148000D01*
X201144560Y-130948000D01*
X201188838Y-131183317D01*
X201327910Y-131399441D01*
X201540110Y-131544431D01*
X201792000Y-131595440D01*
X203537399Y-131595440D01*
X181620393Y-148642000D01*
X138440153Y-148642000D01*
X133514470Y-144388000D01*
X164060560Y-144388000D01*
X164060560Y-146188000D01*
X164104838Y-146423317D01*
X164243910Y-146639441D01*
X164456110Y-146784431D01*
X164708000Y-146835440D01*
X166508000Y-146835440D01*
X166743317Y-146791162D01*
X166959441Y-146652090D01*
X167104431Y-146439890D01*
X167155440Y-146188000D01*
X167155440Y-145288000D01*
X174202928Y-145288000D01*
X174319773Y-145875419D01*
X174652519Y-146373409D01*
X175150509Y-146706155D01*
X175737928Y-146823000D01*
X175798072Y-146823000D01*
X176385491Y-146706155D01*
X176883481Y-146373409D01*
X177216227Y-145875419D01*
X177333072Y-145288000D01*
X177216227Y-144700581D01*
X176883481Y-144202591D01*
X176385491Y-143869845D01*
X175798072Y-143753000D01*
X175737928Y-143753000D01*
X175150509Y-143869845D01*
X174652519Y-144202591D01*
X174319773Y-144700581D01*
X174202928Y-145288000D01*
X167155440Y-145288000D01*
X167155440Y-144388000D01*
X167111162Y-144152683D01*
X166972090Y-143936559D01*
X166759890Y-143791569D01*
X166508000Y-143740560D01*
X164708000Y-143740560D01*
X164472683Y-143784838D01*
X164256559Y-143923910D01*
X164111569Y-144136110D01*
X164060560Y-144388000D01*
X133514470Y-144388000D01*
X128674470Y-140208000D01*
X167598928Y-140208000D01*
X167715773Y-140795419D01*
X168048519Y-141293409D01*
X168546509Y-141626155D01*
X169133928Y-141743000D01*
X169194072Y-141743000D01*
X169781491Y-141626155D01*
X170279481Y-141293409D01*
X170612227Y-140795419D01*
X170729072Y-140208000D01*
X170612227Y-139620581D01*
X170403368Y-139308000D01*
X177776560Y-139308000D01*
X177776560Y-141108000D01*
X177820838Y-141343317D01*
X177959910Y-141559441D01*
X178172110Y-141704431D01*
X178424000Y-141755440D01*
X180224000Y-141755440D01*
X180459317Y-141711162D01*
X180675441Y-141572090D01*
X180820431Y-141359890D01*
X180871440Y-141108000D01*
X180871440Y-139308000D01*
X180827162Y-139072683D01*
X180688090Y-138856559D01*
X180475890Y-138711569D01*
X180224000Y-138660560D01*
X178424000Y-138660560D01*
X178188683Y-138704838D01*
X177972559Y-138843910D01*
X177827569Y-139056110D01*
X177776560Y-139308000D01*
X170403368Y-139308000D01*
X170279481Y-139122591D01*
X169781491Y-138789845D01*
X169194072Y-138673000D01*
X169133928Y-138673000D01*
X168546509Y-138789845D01*
X168048519Y-139122591D01*
X167715773Y-139620581D01*
X167598928Y-140208000D01*
X128674470Y-140208000D01*
X125474265Y-137444187D01*
X130136752Y-137444187D01*
X130354757Y-137971800D01*
X130758077Y-138375824D01*
X131285309Y-138594750D01*
X131856187Y-138595248D01*
X132383800Y-138377243D01*
X132787824Y-137973923D01*
X133006750Y-137446691D01*
X133007024Y-137131887D01*
X135725000Y-137131887D01*
X135725000Y-137188113D01*
X135834233Y-137737264D01*
X136145302Y-138202811D01*
X136610849Y-138513880D01*
X137160000Y-138623113D01*
X137709151Y-138513880D01*
X138174698Y-138202811D01*
X138342159Y-137952187D01*
X152996752Y-137952187D01*
X153214757Y-138479800D01*
X153618077Y-138883824D01*
X154145309Y-139102750D01*
X154716187Y-139103248D01*
X155243800Y-138885243D01*
X155647824Y-138481923D01*
X155866750Y-137954691D01*
X155867248Y-137383813D01*
X155649243Y-136856200D01*
X155245923Y-136452176D01*
X154718691Y-136233250D01*
X154147813Y-136232752D01*
X153620200Y-136450757D01*
X153216176Y-136854077D01*
X152997250Y-137381309D01*
X152996752Y-137952187D01*
X138342159Y-137952187D01*
X138485767Y-137737264D01*
X138595000Y-137188113D01*
X138595000Y-137131887D01*
X138485767Y-136582736D01*
X138174698Y-136117189D01*
X137709151Y-135806120D01*
X137160000Y-135696887D01*
X136610849Y-135806120D01*
X136145302Y-136117189D01*
X135834233Y-136582736D01*
X135725000Y-137131887D01*
X133007024Y-137131887D01*
X133007248Y-136875813D01*
X132789243Y-136348200D01*
X132385923Y-135944176D01*
X131858691Y-135725250D01*
X131287813Y-135724752D01*
X130760200Y-135942757D01*
X130356176Y-136346077D01*
X130137250Y-136873309D01*
X130136752Y-137444187D01*
X125474265Y-137444187D01*
X122464420Y-134844775D01*
X144660803Y-134844775D01*
X144833233Y-135262086D01*
X145152235Y-135581645D01*
X145569244Y-135754803D01*
X146020775Y-135755197D01*
X146438086Y-135582767D01*
X146487949Y-135532991D01*
X146568086Y-135726938D01*
X146887088Y-136046497D01*
X147304097Y-136219655D01*
X147755628Y-136220049D01*
X148172939Y-136047619D01*
X148492498Y-135728617D01*
X148665656Y-135311608D01*
X148666050Y-134860077D01*
X148493620Y-134442766D01*
X148458608Y-134407693D01*
X149002438Y-134093713D01*
X149184089Y-133937708D01*
X149301722Y-133709206D01*
X149321188Y-133452941D01*
X149239418Y-133209293D01*
X149157778Y-133067887D01*
X160617000Y-133067887D01*
X160617000Y-133124113D01*
X160726233Y-133673264D01*
X161037302Y-134138811D01*
X161502849Y-134449880D01*
X162052000Y-134559113D01*
X162601151Y-134449880D01*
X163066698Y-134138811D01*
X163377767Y-133673264D01*
X163436063Y-133380187D01*
X165188752Y-133380187D01*
X165406757Y-133907800D01*
X165810077Y-134311824D01*
X166337309Y-134530750D01*
X166908187Y-134531248D01*
X167435800Y-134313243D01*
X167839824Y-133909923D01*
X167877163Y-133820000D01*
X170764560Y-133820000D01*
X170764560Y-135420000D01*
X170808838Y-135655317D01*
X170947910Y-135871441D01*
X171160110Y-136016431D01*
X171412000Y-136067440D01*
X173012000Y-136067440D01*
X173247317Y-136023162D01*
X173463441Y-135884090D01*
X173608431Y-135671890D01*
X173639815Y-135516911D01*
X173737302Y-135662811D01*
X174202849Y-135973880D01*
X174752000Y-136083113D01*
X175301151Y-135973880D01*
X175766698Y-135662811D01*
X176022000Y-135280725D01*
X176277302Y-135662811D01*
X176742849Y-135973880D01*
X177292000Y-136083113D01*
X177841151Y-135973880D01*
X178306698Y-135662811D01*
X178562000Y-135280725D01*
X178817302Y-135662811D01*
X179282849Y-135973880D01*
X179832000Y-136083113D01*
X180381151Y-135973880D01*
X180846698Y-135662811D01*
X181102000Y-135280725D01*
X181357302Y-135662811D01*
X181822849Y-135973880D01*
X182372000Y-136083113D01*
X182921151Y-135973880D01*
X183386698Y-135662811D01*
X183642000Y-135280725D01*
X183897302Y-135662811D01*
X184362849Y-135973880D01*
X184912000Y-136083113D01*
X185461151Y-135973880D01*
X185926698Y-135662811D01*
X186182000Y-135280725D01*
X186437302Y-135662811D01*
X186902849Y-135973880D01*
X187452000Y-136083113D01*
X188001151Y-135973880D01*
X188466698Y-135662811D01*
X188777767Y-135197264D01*
X188887000Y-134648113D01*
X188887000Y-134591887D01*
X188777767Y-134042736D01*
X188466698Y-133577189D01*
X188001151Y-133266120D01*
X187452000Y-133156887D01*
X186902849Y-133266120D01*
X186437302Y-133577189D01*
X186182000Y-133959275D01*
X185926698Y-133577189D01*
X185461151Y-133266120D01*
X184912000Y-133156887D01*
X184362849Y-133266120D01*
X183897302Y-133577189D01*
X183642000Y-133959275D01*
X183386698Y-133577189D01*
X182921151Y-133266120D01*
X182372000Y-133156887D01*
X181822849Y-133266120D01*
X181357302Y-133577189D01*
X181102000Y-133959275D01*
X180846698Y-133577189D01*
X180381151Y-133266120D01*
X179832000Y-133156887D01*
X179282849Y-133266120D01*
X178817302Y-133577189D01*
X178562000Y-133959275D01*
X178306698Y-133577189D01*
X177841151Y-133266120D01*
X177292000Y-133156887D01*
X176742849Y-133266120D01*
X176277302Y-133577189D01*
X176022000Y-133959275D01*
X175766698Y-133577189D01*
X175301151Y-133266120D01*
X174752000Y-133156887D01*
X174202849Y-133266120D01*
X173737302Y-133577189D01*
X173640899Y-133721465D01*
X173615162Y-133584683D01*
X173476090Y-133368559D01*
X173263890Y-133223569D01*
X173012000Y-133172560D01*
X171412000Y-133172560D01*
X171176683Y-133216838D01*
X170960559Y-133355910D01*
X170815569Y-133568110D01*
X170764560Y-133820000D01*
X167877163Y-133820000D01*
X168058750Y-133382691D01*
X168059248Y-132811813D01*
X167841243Y-132284200D01*
X167437923Y-131880176D01*
X166910691Y-131661250D01*
X166339813Y-131660752D01*
X165812200Y-131878757D01*
X165408176Y-132282077D01*
X165189250Y-132809309D01*
X165188752Y-133380187D01*
X163436063Y-133380187D01*
X163487000Y-133124113D01*
X163487000Y-133067887D01*
X163377767Y-132518736D01*
X163066698Y-132053189D01*
X162601151Y-131742120D01*
X162052000Y-131632887D01*
X161502849Y-131742120D01*
X161037302Y-132053189D01*
X160726233Y-132518736D01*
X160617000Y-133067887D01*
X149157778Y-133067887D01*
X148739418Y-132343267D01*
X148583413Y-132161616D01*
X148354911Y-132043983D01*
X148098646Y-132024517D01*
X147854998Y-132106287D01*
X146988972Y-132606287D01*
X146807321Y-132762292D01*
X146689688Y-132990794D01*
X146670222Y-133247059D01*
X146751992Y-133490707D01*
X147072651Y-134046105D01*
X146888767Y-134122085D01*
X146838904Y-134171861D01*
X146758767Y-133977914D01*
X146439765Y-133658355D01*
X146022756Y-133485197D01*
X145571225Y-133484803D01*
X145153914Y-133657233D01*
X144834355Y-133976235D01*
X144661197Y-134393244D01*
X144660803Y-134844775D01*
X122464420Y-134844775D01*
X117332589Y-130412740D01*
X191040964Y-130412740D01*
X191219760Y-130844417D01*
X191624424Y-131285966D01*
X192167258Y-131539046D01*
X192405000Y-131418997D01*
X192405000Y-130175000D01*
X192659000Y-130175000D01*
X192659000Y-131418997D01*
X192896742Y-131539046D01*
X193439576Y-131285966D01*
X193844240Y-130844417D01*
X194023036Y-130412740D01*
X193902378Y-130175000D01*
X192659000Y-130175000D01*
X192405000Y-130175000D01*
X191161622Y-130175000D01*
X191040964Y-130412740D01*
X117332589Y-130412740D01*
X116534000Y-129723050D01*
X116534000Y-128748775D01*
X140596803Y-128748775D01*
X140769233Y-129166086D01*
X141088235Y-129485645D01*
X141505244Y-129658803D01*
X141956775Y-129659197D01*
X142374086Y-129486767D01*
X142423949Y-129436991D01*
X142504086Y-129630938D01*
X142823088Y-129950497D01*
X143240097Y-130123655D01*
X143691628Y-130124049D01*
X144108939Y-129951619D01*
X144377766Y-129683260D01*
X191040964Y-129683260D01*
X191161622Y-129921000D01*
X192405000Y-129921000D01*
X192405000Y-128677003D01*
X192659000Y-128677003D01*
X192659000Y-129921000D01*
X193902378Y-129921000D01*
X194023036Y-129683260D01*
X193844240Y-129251583D01*
X193439576Y-128810034D01*
X192896742Y-128556954D01*
X192659000Y-128677003D01*
X192405000Y-128677003D01*
X192167258Y-128556954D01*
X191624424Y-128810034D01*
X191219760Y-129251583D01*
X191040964Y-129683260D01*
X144377766Y-129683260D01*
X144428498Y-129632617D01*
X144601656Y-129215608D01*
X144602050Y-128764077D01*
X144429620Y-128346766D01*
X144394608Y-128311693D01*
X144938438Y-127997713D01*
X145102235Y-127857041D01*
X153040086Y-127857041D01*
X153279611Y-128363134D01*
X153694577Y-128739041D01*
X154082961Y-128899904D01*
X154305000Y-128777915D01*
X154305000Y-127635000D01*
X154559000Y-127635000D01*
X154559000Y-128777915D01*
X154781039Y-128899904D01*
X155169423Y-128739041D01*
X155584389Y-128363134D01*
X155823914Y-127857041D01*
X155702629Y-127635000D01*
X154559000Y-127635000D01*
X154305000Y-127635000D01*
X153161371Y-127635000D01*
X153040086Y-127857041D01*
X145102235Y-127857041D01*
X145120089Y-127841708D01*
X145237722Y-127613206D01*
X145257188Y-127356941D01*
X145190744Y-127158959D01*
X153040086Y-127158959D01*
X153161371Y-127381000D01*
X154305000Y-127381000D01*
X154305000Y-126238085D01*
X154559000Y-126238085D01*
X154559000Y-127381000D01*
X155702629Y-127381000D01*
X155823914Y-127158959D01*
X155735377Y-126971887D01*
X170777000Y-126971887D01*
X170777000Y-127028113D01*
X170886233Y-127577264D01*
X171197302Y-128042811D01*
X171662849Y-128353880D01*
X172212000Y-128463113D01*
X172761151Y-128353880D01*
X173226698Y-128042811D01*
X173482000Y-127660725D01*
X173737302Y-128042811D01*
X174202849Y-128353880D01*
X174752000Y-128463113D01*
X175301151Y-128353880D01*
X175766698Y-128042811D01*
X176022000Y-127660725D01*
X176277302Y-128042811D01*
X176742849Y-128353880D01*
X177292000Y-128463113D01*
X177841151Y-128353880D01*
X178306698Y-128042811D01*
X178562000Y-127660725D01*
X178817302Y-128042811D01*
X179282849Y-128353880D01*
X179832000Y-128463113D01*
X180381151Y-128353880D01*
X180846698Y-128042811D01*
X181102000Y-127660725D01*
X181357302Y-128042811D01*
X181822849Y-128353880D01*
X182372000Y-128463113D01*
X182921151Y-128353880D01*
X183386698Y-128042811D01*
X183642000Y-127660725D01*
X183897302Y-128042811D01*
X184362849Y-128353880D01*
X184912000Y-128463113D01*
X185461151Y-128353880D01*
X185926698Y-128042811D01*
X186182000Y-127660725D01*
X186437302Y-128042811D01*
X186902849Y-128353880D01*
X187452000Y-128463113D01*
X188001151Y-128353880D01*
X188466698Y-128042811D01*
X188777767Y-127577264D01*
X188887000Y-127028113D01*
X188887000Y-126971887D01*
X188777767Y-126422736D01*
X188466698Y-125957189D01*
X188001151Y-125646120D01*
X187452000Y-125536887D01*
X186902849Y-125646120D01*
X186437302Y-125957189D01*
X186182000Y-126339275D01*
X185926698Y-125957189D01*
X185461151Y-125646120D01*
X184912000Y-125536887D01*
X184362849Y-125646120D01*
X183897302Y-125957189D01*
X183642000Y-126339275D01*
X183386698Y-125957189D01*
X182921151Y-125646120D01*
X182372000Y-125536887D01*
X181822849Y-125646120D01*
X181357302Y-125957189D01*
X181102000Y-126339275D01*
X180846698Y-125957189D01*
X180381151Y-125646120D01*
X179832000Y-125536887D01*
X179282849Y-125646120D01*
X178817302Y-125957189D01*
X178562000Y-126339275D01*
X178306698Y-125957189D01*
X177841151Y-125646120D01*
X177292000Y-125536887D01*
X176742849Y-125646120D01*
X176277302Y-125957189D01*
X176022000Y-126339275D01*
X175766698Y-125957189D01*
X175301151Y-125646120D01*
X174752000Y-125536887D01*
X174202849Y-125646120D01*
X173737302Y-125957189D01*
X173482000Y-126339275D01*
X173226698Y-125957189D01*
X172761151Y-125646120D01*
X172212000Y-125536887D01*
X171662849Y-125646120D01*
X171197302Y-125957189D01*
X170886233Y-126422736D01*
X170777000Y-126971887D01*
X155735377Y-126971887D01*
X155584389Y-126652866D01*
X155169423Y-126276959D01*
X154781039Y-126116096D01*
X154559000Y-126238085D01*
X154305000Y-126238085D01*
X154082961Y-126116096D01*
X153694577Y-126276959D01*
X153279611Y-126652866D01*
X153040086Y-127158959D01*
X145190744Y-127158959D01*
X145175418Y-127113293D01*
X144675418Y-126247267D01*
X144519413Y-126065616D01*
X144290911Y-125947983D01*
X144034646Y-125928517D01*
X143790998Y-126010287D01*
X142924972Y-126510287D01*
X142743321Y-126666292D01*
X142625688Y-126894794D01*
X142606222Y-127151059D01*
X142687992Y-127394707D01*
X143008651Y-127950105D01*
X142824767Y-128026085D01*
X142774904Y-128075861D01*
X142694767Y-127881914D01*
X142375765Y-127562355D01*
X141958756Y-127389197D01*
X141507225Y-127388803D01*
X141089914Y-127561233D01*
X140770355Y-127880235D01*
X140597197Y-128297244D01*
X140596803Y-128748775D01*
X116534000Y-128748775D01*
X116534000Y-126325674D01*
X121344217Y-126325674D01*
X121358573Y-126397875D01*
X121618276Y-126875740D01*
X122041081Y-127217846D01*
X122562620Y-127372110D01*
X123317000Y-127372110D01*
X123317000Y-126111000D01*
X123571000Y-126111000D01*
X123571000Y-127372110D01*
X124325380Y-127372110D01*
X124846919Y-127217846D01*
X125150896Y-126971887D01*
X130137000Y-126971887D01*
X130137000Y-127028113D01*
X130246233Y-127577264D01*
X130557302Y-128042811D01*
X131022849Y-128353880D01*
X131572000Y-128463113D01*
X132121151Y-128353880D01*
X132586698Y-128042811D01*
X132897767Y-127577264D01*
X132956063Y-127284187D01*
X135724752Y-127284187D01*
X135942757Y-127811800D01*
X136346077Y-128215824D01*
X136873309Y-128434750D01*
X137444187Y-128435248D01*
X137971800Y-128217243D01*
X138375824Y-127813923D01*
X138594750Y-127286691D01*
X138595248Y-126715813D01*
X138377243Y-126188200D01*
X137973923Y-125784176D01*
X137446691Y-125565250D01*
X136875813Y-125564752D01*
X136348200Y-125782757D01*
X135944176Y-126186077D01*
X135725250Y-126713309D01*
X135724752Y-127284187D01*
X132956063Y-127284187D01*
X133007000Y-127028113D01*
X133007000Y-126971887D01*
X132897767Y-126422736D01*
X132586698Y-125957189D01*
X132121151Y-125646120D01*
X131572000Y-125536887D01*
X131022849Y-125646120D01*
X130557302Y-125957189D01*
X130246233Y-126422736D01*
X130137000Y-126971887D01*
X125150896Y-126971887D01*
X125269724Y-126875740D01*
X125529427Y-126397875D01*
X125543783Y-126325674D01*
X125421162Y-126111000D01*
X123571000Y-126111000D01*
X123317000Y-126111000D01*
X121466838Y-126111000D01*
X121344217Y-126325674D01*
X116534000Y-126325674D01*
X116534000Y-120904000D01*
X121259536Y-120904000D01*
X121365200Y-121435207D01*
X121666104Y-121885542D01*
X122097812Y-122174000D01*
X121666104Y-122462458D01*
X121365200Y-122912793D01*
X121259536Y-123444000D01*
X121365200Y-123975207D01*
X121666104Y-124425542D01*
X122116439Y-124726446D01*
X122119306Y-124727016D01*
X122041081Y-124750154D01*
X121618276Y-125092260D01*
X121358573Y-125570125D01*
X121344217Y-125642326D01*
X121466838Y-125857000D01*
X123317000Y-125857000D01*
X123317000Y-125837000D01*
X123571000Y-125837000D01*
X123571000Y-125857000D01*
X125421162Y-125857000D01*
X125543783Y-125642326D01*
X125529427Y-125570125D01*
X125269724Y-125092260D01*
X124846919Y-124750154D01*
X124768694Y-124727016D01*
X124771561Y-124726446D01*
X125221896Y-124425542D01*
X125522800Y-123975207D01*
X125628464Y-123444000D01*
X125596845Y-123285041D01*
X153040086Y-123285041D01*
X153279611Y-123791134D01*
X153694577Y-124167041D01*
X154082961Y-124327904D01*
X154305000Y-124205915D01*
X154305000Y-123063000D01*
X154559000Y-123063000D01*
X154559000Y-124205915D01*
X154781039Y-124327904D01*
X155169423Y-124167041D01*
X155584389Y-123791134D01*
X155823914Y-123285041D01*
X155788489Y-123220187D01*
X160616752Y-123220187D01*
X160834757Y-123747800D01*
X161238077Y-124151824D01*
X161765309Y-124370750D01*
X162336187Y-124371248D01*
X162863800Y-124153243D01*
X163267824Y-123749923D01*
X163486750Y-123222691D01*
X163487024Y-122907887D01*
X165189000Y-122907887D01*
X165189000Y-122964113D01*
X165298233Y-123513264D01*
X165609302Y-123978811D01*
X166074849Y-124289880D01*
X166624000Y-124399113D01*
X167173151Y-124289880D01*
X167638698Y-123978811D01*
X167806159Y-123728187D01*
X174332752Y-123728187D01*
X174550757Y-124255800D01*
X174954077Y-124659824D01*
X175481309Y-124878750D01*
X176052187Y-124879248D01*
X176579800Y-124661243D01*
X176983824Y-124257923D01*
X177202750Y-123730691D01*
X177203000Y-123444000D01*
X184464887Y-123444000D01*
X184574120Y-123993151D01*
X184885189Y-124458698D01*
X185350736Y-124769767D01*
X185899887Y-124879000D01*
X185956113Y-124879000D01*
X186505264Y-124769767D01*
X186970811Y-124458698D01*
X187281880Y-123993151D01*
X187391113Y-123444000D01*
X187281880Y-122894849D01*
X186970811Y-122429302D01*
X186505264Y-122118233D01*
X185956113Y-122009000D01*
X185899887Y-122009000D01*
X185350736Y-122118233D01*
X184885189Y-122429302D01*
X184574120Y-122894849D01*
X184464887Y-123444000D01*
X177203000Y-123444000D01*
X177203248Y-123159813D01*
X176985243Y-122632200D01*
X176581923Y-122228176D01*
X176054691Y-122009250D01*
X175483813Y-122008752D01*
X174956200Y-122226757D01*
X174552176Y-122630077D01*
X174333250Y-123157309D01*
X174332752Y-123728187D01*
X167806159Y-123728187D01*
X167949767Y-123513264D01*
X168059000Y-122964113D01*
X168059000Y-122907887D01*
X167949767Y-122358736D01*
X167638698Y-121893189D01*
X167173151Y-121582120D01*
X166624000Y-121472887D01*
X166074849Y-121582120D01*
X165609302Y-121893189D01*
X165298233Y-122358736D01*
X165189000Y-122907887D01*
X163487024Y-122907887D01*
X163487248Y-122651813D01*
X163269243Y-122124200D01*
X162865923Y-121720176D01*
X162338691Y-121501250D01*
X161767813Y-121500752D01*
X161240200Y-121718757D01*
X160836176Y-122122077D01*
X160617250Y-122649309D01*
X160616752Y-123220187D01*
X155788489Y-123220187D01*
X155702629Y-123063000D01*
X154559000Y-123063000D01*
X154305000Y-123063000D01*
X153161371Y-123063000D01*
X153040086Y-123285041D01*
X125596845Y-123285041D01*
X125522800Y-122912793D01*
X125221896Y-122462458D01*
X124790188Y-122174000D01*
X125221896Y-121885542D01*
X125348418Y-121696187D01*
X130136752Y-121696187D01*
X130354757Y-122223800D01*
X130758077Y-122627824D01*
X131285309Y-122846750D01*
X131856187Y-122847248D01*
X132383800Y-122629243D01*
X132787824Y-122225923D01*
X133006750Y-121698691D01*
X133007024Y-121383887D01*
X136233000Y-121383887D01*
X136233000Y-121440113D01*
X136342233Y-121989264D01*
X136653302Y-122454811D01*
X137118849Y-122765880D01*
X137668000Y-122875113D01*
X138217151Y-122765880D01*
X138484924Y-122586959D01*
X153040086Y-122586959D01*
X153161371Y-122809000D01*
X154305000Y-122809000D01*
X154305000Y-121666085D01*
X154559000Y-121666085D01*
X154559000Y-122809000D01*
X155702629Y-122809000D01*
X155823914Y-122586959D01*
X155584389Y-122080866D01*
X155169423Y-121704959D01*
X154781039Y-121544096D01*
X154559000Y-121666085D01*
X154305000Y-121666085D01*
X154082961Y-121544096D01*
X153694577Y-121704959D01*
X153279611Y-122080866D01*
X153040086Y-122586959D01*
X138484924Y-122586959D01*
X138682698Y-122454811D01*
X138993767Y-121989264D01*
X139103000Y-121440113D01*
X139103000Y-121383887D01*
X138993767Y-120834736D01*
X138682698Y-120369189D01*
X138679086Y-120366775D01*
X145001098Y-120366775D01*
X145173528Y-120784086D01*
X145492530Y-121103645D01*
X145909539Y-121276803D01*
X146361070Y-121277197D01*
X146778381Y-121104767D01*
X146828244Y-121054991D01*
X146908381Y-121248938D01*
X147227383Y-121568497D01*
X147644392Y-121741655D01*
X148095923Y-121742049D01*
X148513234Y-121569619D01*
X148832793Y-121250617D01*
X149005951Y-120833608D01*
X149006345Y-120382077D01*
X148883202Y-120084048D01*
X148909592Y-120071372D01*
X149079713Y-119878733D01*
X149579713Y-119012707D01*
X149629107Y-118872000D01*
X174304887Y-118872000D01*
X174414120Y-119421151D01*
X174725189Y-119886698D01*
X175190736Y-120197767D01*
X175739887Y-120307000D01*
X175796113Y-120307000D01*
X176345264Y-120197767D01*
X176810811Y-119886698D01*
X177121880Y-119421151D01*
X177174584Y-119156187D01*
X184492752Y-119156187D01*
X184710757Y-119683800D01*
X185114077Y-120087824D01*
X185641309Y-120306750D01*
X186212187Y-120307248D01*
X186739800Y-120089243D01*
X187143824Y-119685923D01*
X187362750Y-119158691D01*
X187363248Y-118587813D01*
X187145243Y-118060200D01*
X186741923Y-117656176D01*
X186214691Y-117437250D01*
X185643813Y-117436752D01*
X185116200Y-117654757D01*
X184712176Y-118058077D01*
X184493250Y-118585309D01*
X184492752Y-119156187D01*
X177174584Y-119156187D01*
X177231113Y-118872000D01*
X177121880Y-118322849D01*
X176810811Y-117857302D01*
X176345264Y-117546233D01*
X175796113Y-117437000D01*
X175739887Y-117437000D01*
X175190736Y-117546233D01*
X174725189Y-117857302D01*
X174414120Y-118322849D01*
X174304887Y-118872000D01*
X149629107Y-118872000D01*
X149659025Y-118786778D01*
X149646647Y-118530072D01*
X149535372Y-118298408D01*
X149342733Y-118128287D01*
X148476707Y-117628287D01*
X148250778Y-117548975D01*
X147994072Y-117561353D01*
X147762408Y-117672628D01*
X147592287Y-117865267D01*
X147092287Y-118731293D01*
X147012975Y-118957222D01*
X147025353Y-119213928D01*
X147136628Y-119445592D01*
X147319214Y-119606835D01*
X147229062Y-119644085D01*
X147179199Y-119693861D01*
X147099062Y-119499914D01*
X146780060Y-119180355D01*
X146363051Y-119007197D01*
X145911520Y-119006803D01*
X145494209Y-119179233D01*
X145174650Y-119498235D01*
X145001492Y-119915244D01*
X145001098Y-120366775D01*
X138679086Y-120366775D01*
X138217151Y-120058120D01*
X137668000Y-119948887D01*
X137118849Y-120058120D01*
X136653302Y-120369189D01*
X136342233Y-120834736D01*
X136233000Y-121383887D01*
X133007024Y-121383887D01*
X133007248Y-121127813D01*
X132789243Y-120600200D01*
X132385923Y-120196176D01*
X131858691Y-119977250D01*
X131287813Y-119976752D01*
X130760200Y-120194757D01*
X130356176Y-120598077D01*
X130137250Y-121125309D01*
X130136752Y-121696187D01*
X125348418Y-121696187D01*
X125522800Y-121435207D01*
X125628464Y-120904000D01*
X125522800Y-120372793D01*
X125221896Y-119922458D01*
X124771561Y-119621554D01*
X124240354Y-119515890D01*
X122647646Y-119515890D01*
X122116439Y-119621554D01*
X121666104Y-119922458D01*
X121365200Y-120372793D01*
X121259536Y-120904000D01*
X116534000Y-120904000D01*
X116534000Y-114778775D01*
X140937098Y-114778775D01*
X141109528Y-115196086D01*
X141428530Y-115515645D01*
X141845539Y-115688803D01*
X142297070Y-115689197D01*
X142714381Y-115516767D01*
X142764244Y-115466991D01*
X142844381Y-115660938D01*
X143163383Y-115980497D01*
X143580392Y-116153655D01*
X144031923Y-116154049D01*
X144449234Y-115981619D01*
X144768793Y-115662617D01*
X144941951Y-115245608D01*
X144942345Y-114794077D01*
X144769915Y-114376766D01*
X144734903Y-114341693D01*
X145278733Y-114027713D01*
X145460384Y-113871708D01*
X145578017Y-113643206D01*
X145597483Y-113386941D01*
X145515713Y-113143293D01*
X145467732Y-113060187D01*
X152996752Y-113060187D01*
X153214757Y-113587800D01*
X153618077Y-113991824D01*
X154145309Y-114210750D01*
X154716187Y-114211248D01*
X155243800Y-113993243D01*
X155647824Y-113589923D01*
X155656849Y-113568187D01*
X162648752Y-113568187D01*
X162866757Y-114095800D01*
X163270077Y-114499824D01*
X163797309Y-114718750D01*
X164368187Y-114719248D01*
X164895800Y-114501243D01*
X165299824Y-114097923D01*
X165518750Y-113570691D01*
X165519201Y-113052661D01*
X193420758Y-113052661D01*
X193632990Y-113566303D01*
X194025630Y-113959629D01*
X194538900Y-114172757D01*
X195094661Y-114173242D01*
X195608303Y-113961010D01*
X196001629Y-113568370D01*
X196087949Y-113360488D01*
X196172990Y-113566303D01*
X196565630Y-113959629D01*
X197078900Y-114172757D01*
X197634661Y-114173242D01*
X198148303Y-113961010D01*
X198541629Y-113568370D01*
X198754757Y-113055100D01*
X198755242Y-112499339D01*
X198543010Y-111985697D01*
X198150370Y-111592371D01*
X197637100Y-111379243D01*
X197081339Y-111378758D01*
X196567697Y-111590990D01*
X196174371Y-111983630D01*
X196088051Y-112191512D01*
X196003010Y-111985697D01*
X195610370Y-111592371D01*
X195097100Y-111379243D01*
X194541339Y-111378758D01*
X194027697Y-111590990D01*
X193634371Y-111983630D01*
X193421243Y-112496900D01*
X193420758Y-113052661D01*
X165519201Y-113052661D01*
X165519248Y-112999813D01*
X165301243Y-112472200D01*
X164897923Y-112068176D01*
X164370691Y-111849250D01*
X163799813Y-111848752D01*
X163272200Y-112066757D01*
X162868176Y-112470077D01*
X162649250Y-112997309D01*
X162648752Y-113568187D01*
X155656849Y-113568187D01*
X155866750Y-113062691D01*
X155867248Y-112491813D01*
X155649243Y-111964200D01*
X155245923Y-111560176D01*
X154718691Y-111341250D01*
X154147813Y-111340752D01*
X153620200Y-111558757D01*
X153216176Y-111962077D01*
X152997250Y-112489309D01*
X152996752Y-113060187D01*
X145467732Y-113060187D01*
X145015713Y-112277267D01*
X144859708Y-112095616D01*
X144631206Y-111977983D01*
X144374941Y-111958517D01*
X144131293Y-112040287D01*
X143265267Y-112540287D01*
X143083616Y-112696292D01*
X142965983Y-112924794D01*
X142946517Y-113181059D01*
X143028287Y-113424707D01*
X143348946Y-113980105D01*
X143165062Y-114056085D01*
X143115199Y-114105861D01*
X143035062Y-113911914D01*
X142716060Y-113592355D01*
X142299051Y-113419197D01*
X141847520Y-113418803D01*
X141430209Y-113591233D01*
X141110650Y-113910235D01*
X140937492Y-114327244D01*
X140937098Y-114778775D01*
X116534000Y-114778775D01*
X116534000Y-111223887D01*
X130137000Y-111223887D01*
X130137000Y-111280113D01*
X130246233Y-111829264D01*
X130557302Y-112294811D01*
X131022849Y-112605880D01*
X131572000Y-112715113D01*
X132121151Y-112605880D01*
X132586698Y-112294811D01*
X132897767Y-111829264D01*
X132956063Y-111536187D01*
X136232752Y-111536187D01*
X136450757Y-112063800D01*
X136854077Y-112467824D01*
X137381309Y-112686750D01*
X137952187Y-112687248D01*
X138479800Y-112469243D01*
X138883824Y-112065923D01*
X139102750Y-111538691D01*
X139103195Y-111028187D01*
X175856752Y-111028187D01*
X176074757Y-111555800D01*
X176478077Y-111959824D01*
X177005309Y-112178750D01*
X177576187Y-112179248D01*
X178103800Y-111961243D01*
X178507824Y-111557923D01*
X178726750Y-111030691D01*
X178727000Y-110744000D01*
X185988887Y-110744000D01*
X186098120Y-111293151D01*
X186409189Y-111758698D01*
X186874736Y-112069767D01*
X187423887Y-112179000D01*
X187480113Y-112179000D01*
X188029264Y-112069767D01*
X188494811Y-111758698D01*
X188805880Y-111293151D01*
X188915113Y-110744000D01*
X188805880Y-110194849D01*
X188494811Y-109729302D01*
X188029264Y-109418233D01*
X187480113Y-109309000D01*
X187423887Y-109309000D01*
X186874736Y-109418233D01*
X186409189Y-109729302D01*
X186098120Y-110194849D01*
X185988887Y-110744000D01*
X178727000Y-110744000D01*
X178727248Y-110459813D01*
X178509243Y-109932200D01*
X178105923Y-109528176D01*
X177578691Y-109309250D01*
X177007813Y-109308752D01*
X176480200Y-109526757D01*
X176076176Y-109930077D01*
X175857250Y-110457309D01*
X175856752Y-111028187D01*
X139103195Y-111028187D01*
X139103248Y-110967813D01*
X138885243Y-110440200D01*
X138481923Y-110036176D01*
X137954691Y-109817250D01*
X137383813Y-109816752D01*
X136856200Y-110034757D01*
X136452176Y-110438077D01*
X136233250Y-110965309D01*
X136232752Y-111536187D01*
X132956063Y-111536187D01*
X133007000Y-111280113D01*
X133007000Y-111223887D01*
X132897767Y-110674736D01*
X132586698Y-110209189D01*
X132121151Y-109898120D01*
X131572000Y-109788887D01*
X131022849Y-109898120D01*
X130557302Y-110209189D01*
X130246233Y-110674736D01*
X130137000Y-111223887D01*
X116534000Y-111223887D01*
X116534000Y-109561674D01*
X121852217Y-109561674D01*
X121866573Y-109633875D01*
X122126276Y-110111740D01*
X122549081Y-110453846D01*
X123070620Y-110608110D01*
X123825000Y-110608110D01*
X123825000Y-109347000D01*
X124079000Y-109347000D01*
X124079000Y-110608110D01*
X124833380Y-110608110D01*
X125354919Y-110453846D01*
X125777724Y-110111740D01*
X126037427Y-109633875D01*
X126051783Y-109561674D01*
X125929162Y-109347000D01*
X124079000Y-109347000D01*
X123825000Y-109347000D01*
X121974838Y-109347000D01*
X121852217Y-109561674D01*
X116534000Y-109561674D01*
X116534000Y-106680000D01*
X121767536Y-106680000D01*
X121873200Y-107211207D01*
X122174104Y-107661542D01*
X122624439Y-107962446D01*
X122627306Y-107963016D01*
X122549081Y-107986154D01*
X122126276Y-108328260D01*
X121866573Y-108806125D01*
X121852217Y-108878326D01*
X121974838Y-109093000D01*
X123825000Y-109093000D01*
X123825000Y-109073000D01*
X124079000Y-109073000D01*
X124079000Y-109093000D01*
X125929162Y-109093000D01*
X126051783Y-108878326D01*
X126037427Y-108806125D01*
X125777724Y-108328260D01*
X125354919Y-107986154D01*
X125276694Y-107963016D01*
X125279561Y-107962446D01*
X125729896Y-107661542D01*
X126030800Y-107211207D01*
X126136464Y-106680000D01*
X126060044Y-106295807D01*
X130291797Y-106295807D01*
X130585508Y-106948776D01*
X131106742Y-107439642D01*
X131668195Y-107672195D01*
X131953000Y-107555432D01*
X131953000Y-106011000D01*
X132207000Y-106011000D01*
X132207000Y-107555432D01*
X132491805Y-107672195D01*
X133053258Y-107439642D01*
X133574492Y-106948776D01*
X133711560Y-106644050D01*
X174441000Y-106644050D01*
X174441000Y-106715950D01*
X174580681Y-107418174D01*
X174978459Y-108013491D01*
X175573776Y-108411269D01*
X176276000Y-108550950D01*
X176978224Y-108411269D01*
X177573541Y-108013491D01*
X177971319Y-107418174D01*
X178111000Y-106715950D01*
X178111000Y-106644050D01*
X177971319Y-105941826D01*
X177573541Y-105346509D01*
X176978224Y-104948731D01*
X176276000Y-104809050D01*
X175573776Y-104948731D01*
X174978459Y-105346509D01*
X174580681Y-105941826D01*
X174441000Y-106644050D01*
X133711560Y-106644050D01*
X133868203Y-106295807D01*
X133751858Y-106011000D01*
X132207000Y-106011000D01*
X131953000Y-106011000D01*
X130408142Y-106011000D01*
X130291797Y-106295807D01*
X126060044Y-106295807D01*
X126030800Y-106148793D01*
X125729896Y-105698458D01*
X125391267Y-105472193D01*
X130291797Y-105472193D01*
X130408142Y-105757000D01*
X131953000Y-105757000D01*
X131953000Y-104212568D01*
X132207000Y-104212568D01*
X132207000Y-105757000D01*
X133751858Y-105757000D01*
X133868203Y-105472193D01*
X133574492Y-104819224D01*
X133053258Y-104328358D01*
X132897413Y-104263807D01*
X147055797Y-104263807D01*
X147349508Y-104916776D01*
X147870742Y-105407642D01*
X148432195Y-105640195D01*
X148717000Y-105523432D01*
X148717000Y-103979000D01*
X148971000Y-103979000D01*
X148971000Y-105523432D01*
X149255805Y-105640195D01*
X149817258Y-105407642D01*
X150338492Y-104916776D01*
X150632203Y-104263807D01*
X150515858Y-103979000D01*
X148971000Y-103979000D01*
X148717000Y-103979000D01*
X147172142Y-103979000D01*
X147055797Y-104263807D01*
X132897413Y-104263807D01*
X132491805Y-104095805D01*
X132207000Y-104212568D01*
X131953000Y-104212568D01*
X131668195Y-104095805D01*
X131106742Y-104328358D01*
X130585508Y-104819224D01*
X130291797Y-105472193D01*
X125391267Y-105472193D01*
X125279561Y-105397554D01*
X124748354Y-105291890D01*
X123155646Y-105291890D01*
X122624439Y-105397554D01*
X122174104Y-105698458D01*
X121873200Y-106148793D01*
X121767536Y-106680000D01*
X116534000Y-106680000D01*
X116534000Y-103440193D01*
X147055797Y-103440193D01*
X147172142Y-103725000D01*
X148717000Y-103725000D01*
X148717000Y-102180568D01*
X148971000Y-102180568D01*
X148971000Y-103725000D01*
X150515858Y-103725000D01*
X150632203Y-103440193D01*
X150477332Y-103095887D01*
X162649000Y-103095887D01*
X162649000Y-103152113D01*
X162758233Y-103701264D01*
X163069302Y-104166811D01*
X163534849Y-104477880D01*
X164084000Y-104587113D01*
X164633151Y-104477880D01*
X165098698Y-104166811D01*
X165409767Y-103701264D01*
X165429526Y-103601928D01*
X183885000Y-103601928D01*
X183885000Y-103662072D01*
X184001845Y-104249491D01*
X184334591Y-104747481D01*
X184832581Y-105080227D01*
X185420000Y-105197072D01*
X186007419Y-105080227D01*
X186505409Y-104747481D01*
X186838155Y-104249491D01*
X186955000Y-103662072D01*
X186955000Y-103601928D01*
X186838155Y-103014509D01*
X186505409Y-102516519D01*
X186007419Y-102183773D01*
X185420000Y-102066928D01*
X184832581Y-102183773D01*
X184334591Y-102516519D01*
X184001845Y-103014509D01*
X183885000Y-103601928D01*
X165429526Y-103601928D01*
X165519000Y-103152113D01*
X165519000Y-103095887D01*
X165409767Y-102546736D01*
X165098698Y-102081189D01*
X164633151Y-101770120D01*
X164084000Y-101660887D01*
X163534849Y-101770120D01*
X163069302Y-102081189D01*
X162758233Y-102546736D01*
X162649000Y-103095887D01*
X150477332Y-103095887D01*
X150338492Y-102787224D01*
X149817258Y-102296358D01*
X149255805Y-102063805D01*
X148971000Y-102180568D01*
X148717000Y-102180568D01*
X148432195Y-102063805D01*
X147870742Y-102296358D01*
X147349508Y-102787224D01*
X147055797Y-103440193D01*
X116534000Y-103440193D01*
X116534000Y-102567745D01*
X138871861Y-102567745D01*
X138945995Y-102813864D01*
X139483223Y-103006965D01*
X140053454Y-102979778D01*
X140454005Y-102813864D01*
X140528139Y-102567745D01*
X139700000Y-101739605D01*
X138871861Y-102567745D01*
X116534000Y-102567745D01*
X116534000Y-101343223D01*
X138253035Y-101343223D01*
X138280222Y-101913454D01*
X138446136Y-102314005D01*
X138692255Y-102388139D01*
X139520395Y-101560000D01*
X139879605Y-101560000D01*
X140707745Y-102388139D01*
X140953864Y-102314005D01*
X141146965Y-101776777D01*
X141119778Y-101206546D01*
X140953864Y-100805995D01*
X140707745Y-100731861D01*
X139879605Y-101560000D01*
X139520395Y-101560000D01*
X138692255Y-100731861D01*
X138446136Y-100805995D01*
X138253035Y-101343223D01*
X116534000Y-101343223D01*
X116534000Y-98260000D01*
X138252560Y-98260000D01*
X138252560Y-99860000D01*
X138296838Y-100095317D01*
X138435910Y-100311441D01*
X138648110Y-100456431D01*
X138886201Y-100504646D01*
X138871861Y-100552255D01*
X139700000Y-101380395D01*
X140528139Y-100552255D01*
X140513855Y-100504833D01*
X140735317Y-100463162D01*
X140951441Y-100324090D01*
X141096431Y-100111890D01*
X141147440Y-99860000D01*
X141147440Y-99684000D01*
X153900560Y-99684000D01*
X153900560Y-101484000D01*
X153944838Y-101719317D01*
X154083910Y-101935441D01*
X154296110Y-102080431D01*
X154548000Y-102131440D01*
X156348000Y-102131440D01*
X156583317Y-102087162D01*
X156799441Y-101948090D01*
X156944431Y-101735890D01*
X156948567Y-101715466D01*
X157117357Y-101884551D01*
X157681330Y-102118733D01*
X158291991Y-102119265D01*
X158856371Y-101886068D01*
X159288551Y-101454643D01*
X159522733Y-100890670D01*
X159523265Y-100280009D01*
X159290068Y-99715629D01*
X158858643Y-99283449D01*
X158849485Y-99279646D01*
X190635890Y-99279646D01*
X190635890Y-100872354D01*
X190741554Y-101403561D01*
X191042458Y-101853896D01*
X191492793Y-102154800D01*
X192024000Y-102260464D01*
X192555207Y-102154800D01*
X193005542Y-101853896D01*
X193294000Y-101422188D01*
X193582458Y-101853896D01*
X194032793Y-102154800D01*
X194564000Y-102260464D01*
X195095207Y-102154800D01*
X195545542Y-101853896D01*
X195846446Y-101403561D01*
X195952110Y-100872354D01*
X195952110Y-99279646D01*
X195846446Y-98748439D01*
X195545542Y-98298104D01*
X195095207Y-97997200D01*
X194564000Y-97891536D01*
X194032793Y-97997200D01*
X193582458Y-98298104D01*
X193294000Y-98729812D01*
X193005542Y-98298104D01*
X192555207Y-97997200D01*
X192024000Y-97891536D01*
X191492793Y-97997200D01*
X191042458Y-98298104D01*
X190741554Y-98748439D01*
X190635890Y-99279646D01*
X158849485Y-99279646D01*
X158294670Y-99049267D01*
X157684009Y-99048735D01*
X157119629Y-99281932D01*
X156951387Y-99449880D01*
X156951162Y-99448683D01*
X156812090Y-99232559D01*
X156599890Y-99087569D01*
X156348000Y-99036560D01*
X154548000Y-99036560D01*
X154312683Y-99080838D01*
X154096559Y-99219910D01*
X153951569Y-99432110D01*
X153900560Y-99684000D01*
X141147440Y-99684000D01*
X141147440Y-98260000D01*
X141103162Y-98024683D01*
X140964090Y-97808559D01*
X140751890Y-97663569D01*
X140500000Y-97612560D01*
X138900000Y-97612560D01*
X138664683Y-97656838D01*
X138448559Y-97795910D01*
X138303569Y-98008110D01*
X138252560Y-98260000D01*
X116534000Y-98260000D01*
X116534000Y-96679323D01*
X162771323Y-96679323D01*
X162825499Y-96886294D01*
X163214591Y-97557804D01*
X163831041Y-98029300D01*
X164581000Y-98229000D01*
X165481000Y-98229000D01*
X165481000Y-96371000D01*
X165735000Y-96371000D01*
X165735000Y-98229000D01*
X166635000Y-98229000D01*
X167384959Y-98029300D01*
X168001409Y-97557804D01*
X168390501Y-96886294D01*
X168444677Y-96679323D01*
X168329829Y-96371000D01*
X165735000Y-96371000D01*
X165481000Y-96371000D01*
X162886171Y-96371000D01*
X162771323Y-96679323D01*
X116534000Y-96679323D01*
X116534000Y-94457928D01*
X123941000Y-94457928D01*
X123941000Y-94518072D01*
X124057845Y-95105491D01*
X124390591Y-95603481D01*
X124888581Y-95936227D01*
X125476000Y-96053072D01*
X126063419Y-95936227D01*
X126254311Y-95808677D01*
X162771323Y-95808677D01*
X162886171Y-96117000D01*
X165481000Y-96117000D01*
X165481000Y-94259000D01*
X165735000Y-94259000D01*
X165735000Y-96117000D01*
X168329829Y-96117000D01*
X168444677Y-95808677D01*
X168390501Y-95601706D01*
X168001409Y-94930196D01*
X167384959Y-94458700D01*
X166635000Y-94259000D01*
X165735000Y-94259000D01*
X165481000Y-94259000D01*
X164581000Y-94259000D01*
X163831041Y-94458700D01*
X163214591Y-94930196D01*
X162825499Y-95601706D01*
X162771323Y-95808677D01*
X126254311Y-95808677D01*
X126561409Y-95603481D01*
X126894155Y-95105491D01*
X127011000Y-94518072D01*
X127011000Y-94457928D01*
X126894155Y-93870509D01*
X126561409Y-93372519D01*
X126063419Y-93039773D01*
X125476000Y-92922928D01*
X124888581Y-93039773D01*
X124390591Y-93372519D01*
X124057845Y-93870509D01*
X123941000Y-94457928D01*
X116534000Y-94457928D01*
X116534000Y-90794000D01*
X162666480Y-90794000D01*
X162817579Y-91553627D01*
X163247873Y-92197607D01*
X163891853Y-92627901D01*
X164651480Y-92779000D01*
X166564520Y-92779000D01*
X167324147Y-92627901D01*
X167407808Y-92572000D01*
X183872560Y-92572000D01*
X183872560Y-94372000D01*
X183916838Y-94607317D01*
X184055910Y-94823441D01*
X184268110Y-94968431D01*
X184520000Y-95019440D01*
X186320000Y-95019440D01*
X186555317Y-94975162D01*
X186771441Y-94836090D01*
X186916431Y-94623890D01*
X186967440Y-94372000D01*
X186967440Y-92572000D01*
X186923162Y-92336683D01*
X186784090Y-92120559D01*
X186571890Y-91975569D01*
X186320000Y-91924560D01*
X184520000Y-91924560D01*
X184284683Y-91968838D01*
X184068559Y-92107910D01*
X183923569Y-92320110D01*
X183872560Y-92572000D01*
X167407808Y-92572000D01*
X167968127Y-92197607D01*
X168398421Y-91553627D01*
X168549520Y-90794000D01*
X168398421Y-90034373D01*
X167968127Y-89390393D01*
X167324147Y-88960099D01*
X166564520Y-88809000D01*
X164651480Y-88809000D01*
X163891853Y-88960099D01*
X163247873Y-89390393D01*
X162817579Y-90034373D01*
X162666480Y-90794000D01*
X116534000Y-90794000D01*
X116534000Y-86684000D01*
X130232560Y-86684000D01*
X130232560Y-89084000D01*
X130276838Y-89319317D01*
X130415910Y-89535441D01*
X130628110Y-89680431D01*
X130880000Y-89731440D01*
X133280000Y-89731440D01*
X133515317Y-89687162D01*
X133731441Y-89548090D01*
X133876431Y-89335890D01*
X133927440Y-89084000D01*
X133927440Y-86684000D01*
X133883162Y-86448683D01*
X133744090Y-86232559D01*
X133531890Y-86087569D01*
X133280000Y-86036560D01*
X130880000Y-86036560D01*
X130644683Y-86080838D01*
X130428559Y-86219910D01*
X130283569Y-86432110D01*
X130232560Y-86684000D01*
X116534000Y-86684000D01*
X116534000Y-83428000D01*
X123928560Y-83428000D01*
X123928560Y-85228000D01*
X123972838Y-85463317D01*
X124111910Y-85679441D01*
X124324110Y-85824431D01*
X124576000Y-85875440D01*
X126376000Y-85875440D01*
X126611317Y-85831162D01*
X126827441Y-85692090D01*
X126972431Y-85479890D01*
X127023440Y-85228000D01*
X127023440Y-84652000D01*
X146996560Y-84652000D01*
X146996560Y-87052000D01*
X147040838Y-87287317D01*
X147179910Y-87503441D01*
X147392110Y-87648431D01*
X147644000Y-87699440D01*
X150044000Y-87699440D01*
X150279317Y-87655162D01*
X150495441Y-87516090D01*
X150520100Y-87480000D01*
X174428560Y-87480000D01*
X174428560Y-89880000D01*
X174472838Y-90115317D01*
X174611910Y-90331441D01*
X174824110Y-90476431D01*
X175076000Y-90527440D01*
X177476000Y-90527440D01*
X177711317Y-90483162D01*
X177927441Y-90344090D01*
X178072431Y-90131890D01*
X178123440Y-89880000D01*
X178123440Y-87480000D01*
X178079162Y-87244683D01*
X177940090Y-87028559D01*
X177727890Y-86883569D01*
X177476000Y-86832560D01*
X175076000Y-86832560D01*
X174840683Y-86876838D01*
X174624559Y-87015910D01*
X174479569Y-87228110D01*
X174428560Y-87480000D01*
X150520100Y-87480000D01*
X150640431Y-87303890D01*
X150691440Y-87052000D01*
X150691440Y-84652000D01*
X150647162Y-84416683D01*
X150508090Y-84200559D01*
X150295890Y-84055569D01*
X150210184Y-84038213D01*
X155663392Y-84038213D01*
X155732857Y-84280397D01*
X156256302Y-84467144D01*
X156811368Y-84439362D01*
X157195143Y-84280397D01*
X157264608Y-84038213D01*
X157220395Y-83994000D01*
X162710560Y-83994000D01*
X162710560Y-86694000D01*
X162754838Y-86929317D01*
X162893910Y-87145441D01*
X163106110Y-87290431D01*
X163358000Y-87341440D01*
X167858000Y-87341440D01*
X168093317Y-87297162D01*
X168309441Y-87158090D01*
X168454431Y-86945890D01*
X168505440Y-86694000D01*
X168505440Y-83994000D01*
X168461162Y-83758683D01*
X168322090Y-83542559D01*
X168109890Y-83397569D01*
X167858000Y-83346560D01*
X163358000Y-83346560D01*
X163122683Y-83390838D01*
X162906559Y-83529910D01*
X162761569Y-83742110D01*
X162710560Y-83994000D01*
X157220395Y-83994000D01*
X156464000Y-83237605D01*
X155663392Y-84038213D01*
X150210184Y-84038213D01*
X150044000Y-84004560D01*
X147644000Y-84004560D01*
X147408683Y-84048838D01*
X147192559Y-84187910D01*
X147047569Y-84400110D01*
X146996560Y-84652000D01*
X127023440Y-84652000D01*
X127023440Y-83428000D01*
X126979162Y-83192683D01*
X126840090Y-82976559D01*
X126627890Y-82831569D01*
X126376000Y-82780560D01*
X124576000Y-82780560D01*
X124340683Y-82824838D01*
X124124559Y-82963910D01*
X123979569Y-83176110D01*
X123928560Y-83428000D01*
X116534000Y-83428000D01*
X116534000Y-82064661D01*
X152526758Y-82064661D01*
X152738990Y-82578303D01*
X153131630Y-82971629D01*
X153644900Y-83184757D01*
X154200661Y-83185242D01*
X154714303Y-82973010D01*
X154837225Y-82850302D01*
X155054856Y-82850302D01*
X155082638Y-83405368D01*
X155241603Y-83789143D01*
X155483787Y-83858608D01*
X156284395Y-83058000D01*
X156643605Y-83058000D01*
X157444213Y-83858608D01*
X157686397Y-83789143D01*
X157873144Y-83265698D01*
X157845362Y-82710632D01*
X157686397Y-82326857D01*
X157444213Y-82257392D01*
X156643605Y-83058000D01*
X156284395Y-83058000D01*
X155483787Y-82257392D01*
X155241603Y-82326857D01*
X155054856Y-82850302D01*
X154837225Y-82850302D01*
X155107629Y-82580370D01*
X155316319Y-82077787D01*
X155663392Y-82077787D01*
X156464000Y-82878395D01*
X157264608Y-82077787D01*
X157260844Y-82064661D01*
X157606758Y-82064661D01*
X157818990Y-82578303D01*
X158211630Y-82971629D01*
X158724900Y-83184757D01*
X159280661Y-83185242D01*
X159794303Y-82973010D01*
X160187629Y-82580370D01*
X160400757Y-82067100D01*
X160401242Y-81511339D01*
X160189010Y-80997697D01*
X159796370Y-80604371D01*
X159283100Y-80391243D01*
X158727339Y-80390758D01*
X158213697Y-80602990D01*
X157820371Y-80995630D01*
X157607243Y-81508900D01*
X157606758Y-82064661D01*
X157260844Y-82064661D01*
X157195143Y-81835603D01*
X156671698Y-81648856D01*
X156116632Y-81676638D01*
X155732857Y-81835603D01*
X155663392Y-82077787D01*
X155316319Y-82077787D01*
X155320757Y-82067100D01*
X155321242Y-81511339D01*
X155109010Y-80997697D01*
X154716370Y-80604371D01*
X154203100Y-80391243D01*
X153647339Y-80390758D01*
X153133697Y-80602990D01*
X152740371Y-80995630D01*
X152527243Y-81508900D01*
X152526758Y-82064661D01*
X116534000Y-82064661D01*
X116534000Y-78942000D01*
X204014000Y-78942000D01*
X204014000Y-128667800D01*
X204014000Y-128667800D01*
G37*
X204014000Y-128667800D02*
X203843890Y-128551569D01*
X203592000Y-128500560D01*
X201792000Y-128500560D01*
X201556683Y-128544838D01*
X201340559Y-128683910D01*
X201195569Y-128896110D01*
X201144560Y-129148000D01*
X201144560Y-130948000D01*
X201188838Y-131183317D01*
X201327910Y-131399441D01*
X201540110Y-131544431D01*
X201792000Y-131595440D01*
X203537399Y-131595440D01*
X181620393Y-148642000D01*
X138440153Y-148642000D01*
X133514470Y-144388000D01*
X164060560Y-144388000D01*
X164060560Y-146188000D01*
X164104838Y-146423317D01*
X164243910Y-146639441D01*
X164456110Y-146784431D01*
X164708000Y-146835440D01*
X166508000Y-146835440D01*
X166743317Y-146791162D01*
X166959441Y-146652090D01*
X167104431Y-146439890D01*
X167155440Y-146188000D01*
X167155440Y-145288000D01*
X174202928Y-145288000D01*
X174319773Y-145875419D01*
X174652519Y-146373409D01*
X175150509Y-146706155D01*
X175737928Y-146823000D01*
X175798072Y-146823000D01*
X176385491Y-146706155D01*
X176883481Y-146373409D01*
X177216227Y-145875419D01*
X177333072Y-145288000D01*
X177216227Y-144700581D01*
X176883481Y-144202591D01*
X176385491Y-143869845D01*
X175798072Y-143753000D01*
X175737928Y-143753000D01*
X175150509Y-143869845D01*
X174652519Y-144202591D01*
X174319773Y-144700581D01*
X174202928Y-145288000D01*
X167155440Y-145288000D01*
X167155440Y-144388000D01*
X167111162Y-144152683D01*
X166972090Y-143936559D01*
X166759890Y-143791569D01*
X166508000Y-143740560D01*
X164708000Y-143740560D01*
X164472683Y-143784838D01*
X164256559Y-143923910D01*
X164111569Y-144136110D01*
X164060560Y-144388000D01*
X133514470Y-144388000D01*
X128674470Y-140208000D01*
X167598928Y-140208000D01*
X167715773Y-140795419D01*
X168048519Y-141293409D01*
X168546509Y-141626155D01*
X169133928Y-141743000D01*
X169194072Y-141743000D01*
X169781491Y-141626155D01*
X170279481Y-141293409D01*
X170612227Y-140795419D01*
X170729072Y-140208000D01*
X170612227Y-139620581D01*
X170403368Y-139308000D01*
X177776560Y-139308000D01*
X177776560Y-141108000D01*
X177820838Y-141343317D01*
X177959910Y-141559441D01*
X178172110Y-141704431D01*
X178424000Y-141755440D01*
X180224000Y-141755440D01*
X180459317Y-141711162D01*
X180675441Y-141572090D01*
X180820431Y-141359890D01*
X180871440Y-141108000D01*
X180871440Y-139308000D01*
X180827162Y-139072683D01*
X180688090Y-138856559D01*
X180475890Y-138711569D01*
X180224000Y-138660560D01*
X178424000Y-138660560D01*
X178188683Y-138704838D01*
X177972559Y-138843910D01*
X177827569Y-139056110D01*
X177776560Y-139308000D01*
X170403368Y-139308000D01*
X170279481Y-139122591D01*
X169781491Y-138789845D01*
X169194072Y-138673000D01*
X169133928Y-138673000D01*
X168546509Y-138789845D01*
X168048519Y-139122591D01*
X167715773Y-139620581D01*
X167598928Y-140208000D01*
X128674470Y-140208000D01*
X125474265Y-137444187D01*
X130136752Y-137444187D01*
X130354757Y-137971800D01*
X130758077Y-138375824D01*
X131285309Y-138594750D01*
X131856187Y-138595248D01*
X132383800Y-138377243D01*
X132787824Y-137973923D01*
X133006750Y-137446691D01*
X133007024Y-137131887D01*
X135725000Y-137131887D01*
X135725000Y-137188113D01*
X135834233Y-137737264D01*
X136145302Y-138202811D01*
X136610849Y-138513880D01*
X137160000Y-138623113D01*
X137709151Y-138513880D01*
X138174698Y-138202811D01*
X138342159Y-137952187D01*
X152996752Y-137952187D01*
X153214757Y-138479800D01*
X153618077Y-138883824D01*
X154145309Y-139102750D01*
X154716187Y-139103248D01*
X155243800Y-138885243D01*
X155647824Y-138481923D01*
X155866750Y-137954691D01*
X155867248Y-137383813D01*
X155649243Y-136856200D01*
X155245923Y-136452176D01*
X154718691Y-136233250D01*
X154147813Y-136232752D01*
X153620200Y-136450757D01*
X153216176Y-136854077D01*
X152997250Y-137381309D01*
X152996752Y-137952187D01*
X138342159Y-137952187D01*
X138485767Y-137737264D01*
X138595000Y-137188113D01*
X138595000Y-137131887D01*
X138485767Y-136582736D01*
X138174698Y-136117189D01*
X137709151Y-135806120D01*
X137160000Y-135696887D01*
X136610849Y-135806120D01*
X136145302Y-136117189D01*
X135834233Y-136582736D01*
X135725000Y-137131887D01*
X133007024Y-137131887D01*
X133007248Y-136875813D01*
X132789243Y-136348200D01*
X132385923Y-135944176D01*
X131858691Y-135725250D01*
X131287813Y-135724752D01*
X130760200Y-135942757D01*
X130356176Y-136346077D01*
X130137250Y-136873309D01*
X130136752Y-137444187D01*
X125474265Y-137444187D01*
X122464420Y-134844775D01*
X144660803Y-134844775D01*
X144833233Y-135262086D01*
X145152235Y-135581645D01*
X145569244Y-135754803D01*
X146020775Y-135755197D01*
X146438086Y-135582767D01*
X146487949Y-135532991D01*
X146568086Y-135726938D01*
X146887088Y-136046497D01*
X147304097Y-136219655D01*
X147755628Y-136220049D01*
X148172939Y-136047619D01*
X148492498Y-135728617D01*
X148665656Y-135311608D01*
X148666050Y-134860077D01*
X148493620Y-134442766D01*
X148458608Y-134407693D01*
X149002438Y-134093713D01*
X149184089Y-133937708D01*
X149301722Y-133709206D01*
X149321188Y-133452941D01*
X149239418Y-133209293D01*
X149157778Y-133067887D01*
X160617000Y-133067887D01*
X160617000Y-133124113D01*
X160726233Y-133673264D01*
X161037302Y-134138811D01*
X161502849Y-134449880D01*
X162052000Y-134559113D01*
X162601151Y-134449880D01*
X163066698Y-134138811D01*
X163377767Y-133673264D01*
X163436063Y-133380187D01*
X165188752Y-133380187D01*
X165406757Y-133907800D01*
X165810077Y-134311824D01*
X166337309Y-134530750D01*
X166908187Y-134531248D01*
X167435800Y-134313243D01*
X167839824Y-133909923D01*
X167877163Y-133820000D01*
X170764560Y-133820000D01*
X170764560Y-135420000D01*
X170808838Y-135655317D01*
X170947910Y-135871441D01*
X171160110Y-136016431D01*
X171412000Y-136067440D01*
X173012000Y-136067440D01*
X173247317Y-136023162D01*
X173463441Y-135884090D01*
X173608431Y-135671890D01*
X173639815Y-135516911D01*
X173737302Y-135662811D01*
X174202849Y-135973880D01*
X174752000Y-136083113D01*
X175301151Y-135973880D01*
X175766698Y-135662811D01*
X176022000Y-135280725D01*
X176277302Y-135662811D01*
X176742849Y-135973880D01*
X177292000Y-136083113D01*
X177841151Y-135973880D01*
X178306698Y-135662811D01*
X178562000Y-135280725D01*
X178817302Y-135662811D01*
X179282849Y-135973880D01*
X179832000Y-136083113D01*
X180381151Y-135973880D01*
X180846698Y-135662811D01*
X181102000Y-135280725D01*
X181357302Y-135662811D01*
X181822849Y-135973880D01*
X182372000Y-136083113D01*
X182921151Y-135973880D01*
X183386698Y-135662811D01*
X183642000Y-135280725D01*
X183897302Y-135662811D01*
X184362849Y-135973880D01*
X184912000Y-136083113D01*
X185461151Y-135973880D01*
X185926698Y-135662811D01*
X186182000Y-135280725D01*
X186437302Y-135662811D01*
X186902849Y-135973880D01*
X187452000Y-136083113D01*
X188001151Y-135973880D01*
X188466698Y-135662811D01*
X188777767Y-135197264D01*
X188887000Y-134648113D01*
X188887000Y-134591887D01*
X188777767Y-134042736D01*
X188466698Y-133577189D01*
X188001151Y-133266120D01*
X187452000Y-133156887D01*
X186902849Y-133266120D01*
X186437302Y-133577189D01*
X186182000Y-133959275D01*
X185926698Y-133577189D01*
X185461151Y-133266120D01*
X184912000Y-133156887D01*
X184362849Y-133266120D01*
X183897302Y-133577189D01*
X183642000Y-133959275D01*
X183386698Y-133577189D01*
X182921151Y-133266120D01*
X182372000Y-133156887D01*
X181822849Y-133266120D01*
X181357302Y-133577189D01*
X181102000Y-133959275D01*
X180846698Y-133577189D01*
X180381151Y-133266120D01*
X179832000Y-133156887D01*
X179282849Y-133266120D01*
X178817302Y-133577189D01*
X178562000Y-133959275D01*
X178306698Y-133577189D01*
X177841151Y-133266120D01*
X177292000Y-133156887D01*
X176742849Y-133266120D01*
X176277302Y-133577189D01*
X176022000Y-133959275D01*
X175766698Y-133577189D01*
X175301151Y-133266120D01*
X174752000Y-133156887D01*
X174202849Y-133266120D01*
X173737302Y-133577189D01*
X173640899Y-133721465D01*
X173615162Y-133584683D01*
X173476090Y-133368559D01*
X173263890Y-133223569D01*
X173012000Y-133172560D01*
X171412000Y-133172560D01*
X171176683Y-133216838D01*
X170960559Y-133355910D01*
X170815569Y-133568110D01*
X170764560Y-133820000D01*
X167877163Y-133820000D01*
X168058750Y-133382691D01*
X168059248Y-132811813D01*
X167841243Y-132284200D01*
X167437923Y-131880176D01*
X166910691Y-131661250D01*
X166339813Y-131660752D01*
X165812200Y-131878757D01*
X165408176Y-132282077D01*
X165189250Y-132809309D01*
X165188752Y-133380187D01*
X163436063Y-133380187D01*
X163487000Y-133124113D01*
X163487000Y-133067887D01*
X163377767Y-132518736D01*
X163066698Y-132053189D01*
X162601151Y-131742120D01*
X162052000Y-131632887D01*
X161502849Y-131742120D01*
X161037302Y-132053189D01*
X160726233Y-132518736D01*
X160617000Y-133067887D01*
X149157778Y-133067887D01*
X148739418Y-132343267D01*
X148583413Y-132161616D01*
X148354911Y-132043983D01*
X148098646Y-132024517D01*
X147854998Y-132106287D01*
X146988972Y-132606287D01*
X146807321Y-132762292D01*
X146689688Y-132990794D01*
X146670222Y-133247059D01*
X146751992Y-133490707D01*
X147072651Y-134046105D01*
X146888767Y-134122085D01*
X146838904Y-134171861D01*
X146758767Y-133977914D01*
X146439765Y-133658355D01*
X146022756Y-133485197D01*
X145571225Y-133484803D01*
X145153914Y-133657233D01*
X144834355Y-133976235D01*
X144661197Y-134393244D01*
X144660803Y-134844775D01*
X122464420Y-134844775D01*
X117332589Y-130412740D01*
X191040964Y-130412740D01*
X191219760Y-130844417D01*
X191624424Y-131285966D01*
X192167258Y-131539046D01*
X192405000Y-131418997D01*
X192405000Y-130175000D01*
X192659000Y-130175000D01*
X192659000Y-131418997D01*
X192896742Y-131539046D01*
X193439576Y-131285966D01*
X193844240Y-130844417D01*
X194023036Y-130412740D01*
X193902378Y-130175000D01*
X192659000Y-130175000D01*
X192405000Y-130175000D01*
X191161622Y-130175000D01*
X191040964Y-130412740D01*
X117332589Y-130412740D01*
X116534000Y-129723050D01*
X116534000Y-128748775D01*
X140596803Y-128748775D01*
X140769233Y-129166086D01*
X141088235Y-129485645D01*
X141505244Y-129658803D01*
X141956775Y-129659197D01*
X142374086Y-129486767D01*
X142423949Y-129436991D01*
X142504086Y-129630938D01*
X142823088Y-129950497D01*
X143240097Y-130123655D01*
X143691628Y-130124049D01*
X144108939Y-129951619D01*
X144377766Y-129683260D01*
X191040964Y-129683260D01*
X191161622Y-129921000D01*
X192405000Y-129921000D01*
X192405000Y-128677003D01*
X192659000Y-128677003D01*
X192659000Y-129921000D01*
X193902378Y-129921000D01*
X194023036Y-129683260D01*
X193844240Y-129251583D01*
X193439576Y-128810034D01*
X192896742Y-128556954D01*
X192659000Y-128677003D01*
X192405000Y-128677003D01*
X192167258Y-128556954D01*
X191624424Y-128810034D01*
X191219760Y-129251583D01*
X191040964Y-129683260D01*
X144377766Y-129683260D01*
X144428498Y-129632617D01*
X144601656Y-129215608D01*
X144602050Y-128764077D01*
X144429620Y-128346766D01*
X144394608Y-128311693D01*
X144938438Y-127997713D01*
X145102235Y-127857041D01*
X153040086Y-127857041D01*
X153279611Y-128363134D01*
X153694577Y-128739041D01*
X154082961Y-128899904D01*
X154305000Y-128777915D01*
X154305000Y-127635000D01*
X154559000Y-127635000D01*
X154559000Y-128777915D01*
X154781039Y-128899904D01*
X155169423Y-128739041D01*
X155584389Y-128363134D01*
X155823914Y-127857041D01*
X155702629Y-127635000D01*
X154559000Y-127635000D01*
X154305000Y-127635000D01*
X153161371Y-127635000D01*
X153040086Y-127857041D01*
X145102235Y-127857041D01*
X145120089Y-127841708D01*
X145237722Y-127613206D01*
X145257188Y-127356941D01*
X145190744Y-127158959D01*
X153040086Y-127158959D01*
X153161371Y-127381000D01*
X154305000Y-127381000D01*
X154305000Y-126238085D01*
X154559000Y-126238085D01*
X154559000Y-127381000D01*
X155702629Y-127381000D01*
X155823914Y-127158959D01*
X155735377Y-126971887D01*
X170777000Y-126971887D01*
X170777000Y-127028113D01*
X170886233Y-127577264D01*
X171197302Y-128042811D01*
X171662849Y-128353880D01*
X172212000Y-128463113D01*
X172761151Y-128353880D01*
X173226698Y-128042811D01*
X173482000Y-127660725D01*
X173737302Y-128042811D01*
X174202849Y-128353880D01*
X174752000Y-128463113D01*
X175301151Y-128353880D01*
X175766698Y-128042811D01*
X176022000Y-127660725D01*
X176277302Y-128042811D01*
X176742849Y-128353880D01*
X177292000Y-128463113D01*
X177841151Y-128353880D01*
X178306698Y-128042811D01*
X178562000Y-127660725D01*
X178817302Y-128042811D01*
X179282849Y-128353880D01*
X179832000Y-128463113D01*
X180381151Y-128353880D01*
X180846698Y-128042811D01*
X181102000Y-127660725D01*
X181357302Y-128042811D01*
X181822849Y-128353880D01*
X182372000Y-128463113D01*
X182921151Y-128353880D01*
X183386698Y-128042811D01*
X183642000Y-127660725D01*
X183897302Y-128042811D01*
X184362849Y-128353880D01*
X184912000Y-128463113D01*
X185461151Y-128353880D01*
X185926698Y-128042811D01*
X186182000Y-127660725D01*
X186437302Y-128042811D01*
X186902849Y-128353880D01*
X187452000Y-128463113D01*
X188001151Y-128353880D01*
X188466698Y-128042811D01*
X188777767Y-127577264D01*
X188887000Y-127028113D01*
X188887000Y-126971887D01*
X188777767Y-126422736D01*
X188466698Y-125957189D01*
X188001151Y-125646120D01*
X187452000Y-125536887D01*
X186902849Y-125646120D01*
X186437302Y-125957189D01*
X186182000Y-126339275D01*
X185926698Y-125957189D01*
X185461151Y-125646120D01*
X184912000Y-125536887D01*
X184362849Y-125646120D01*
X183897302Y-125957189D01*
X183642000Y-126339275D01*
X183386698Y-125957189D01*
X182921151Y-125646120D01*
X182372000Y-125536887D01*
X181822849Y-125646120D01*
X181357302Y-125957189D01*
X181102000Y-126339275D01*
X180846698Y-125957189D01*
X180381151Y-125646120D01*
X179832000Y-125536887D01*
X179282849Y-125646120D01*
X178817302Y-125957189D01*
X178562000Y-126339275D01*
X178306698Y-125957189D01*
X177841151Y-125646120D01*
X177292000Y-125536887D01*
X176742849Y-125646120D01*
X176277302Y-125957189D01*
X176022000Y-126339275D01*
X175766698Y-125957189D01*
X175301151Y-125646120D01*
X174752000Y-125536887D01*
X174202849Y-125646120D01*
X173737302Y-125957189D01*
X173482000Y-126339275D01*
X173226698Y-125957189D01*
X172761151Y-125646120D01*
X172212000Y-125536887D01*
X171662849Y-125646120D01*
X171197302Y-125957189D01*
X170886233Y-126422736D01*
X170777000Y-126971887D01*
X155735377Y-126971887D01*
X155584389Y-126652866D01*
X155169423Y-126276959D01*
X154781039Y-126116096D01*
X154559000Y-126238085D01*
X154305000Y-126238085D01*
X154082961Y-126116096D01*
X153694577Y-126276959D01*
X153279611Y-126652866D01*
X153040086Y-127158959D01*
X145190744Y-127158959D01*
X145175418Y-127113293D01*
X144675418Y-126247267D01*
X144519413Y-126065616D01*
X144290911Y-125947983D01*
X144034646Y-125928517D01*
X143790998Y-126010287D01*
X142924972Y-126510287D01*
X142743321Y-126666292D01*
X142625688Y-126894794D01*
X142606222Y-127151059D01*
X142687992Y-127394707D01*
X143008651Y-127950105D01*
X142824767Y-128026085D01*
X142774904Y-128075861D01*
X142694767Y-127881914D01*
X142375765Y-127562355D01*
X141958756Y-127389197D01*
X141507225Y-127388803D01*
X141089914Y-127561233D01*
X140770355Y-127880235D01*
X140597197Y-128297244D01*
X140596803Y-128748775D01*
X116534000Y-128748775D01*
X116534000Y-126325674D01*
X121344217Y-126325674D01*
X121358573Y-126397875D01*
X121618276Y-126875740D01*
X122041081Y-127217846D01*
X122562620Y-127372110D01*
X123317000Y-127372110D01*
X123317000Y-126111000D01*
X123571000Y-126111000D01*
X123571000Y-127372110D01*
X124325380Y-127372110D01*
X124846919Y-127217846D01*
X125150896Y-126971887D01*
X130137000Y-126971887D01*
X130137000Y-127028113D01*
X130246233Y-127577264D01*
X130557302Y-128042811D01*
X131022849Y-128353880D01*
X131572000Y-128463113D01*
X132121151Y-128353880D01*
X132586698Y-128042811D01*
X132897767Y-127577264D01*
X132956063Y-127284187D01*
X135724752Y-127284187D01*
X135942757Y-127811800D01*
X136346077Y-128215824D01*
X136873309Y-128434750D01*
X137444187Y-128435248D01*
X137971800Y-128217243D01*
X138375824Y-127813923D01*
X138594750Y-127286691D01*
X138595248Y-126715813D01*
X138377243Y-126188200D01*
X137973923Y-125784176D01*
X137446691Y-125565250D01*
X136875813Y-125564752D01*
X136348200Y-125782757D01*
X135944176Y-126186077D01*
X135725250Y-126713309D01*
X135724752Y-127284187D01*
X132956063Y-127284187D01*
X133007000Y-127028113D01*
X133007000Y-126971887D01*
X132897767Y-126422736D01*
X132586698Y-125957189D01*
X132121151Y-125646120D01*
X131572000Y-125536887D01*
X131022849Y-125646120D01*
X130557302Y-125957189D01*
X130246233Y-126422736D01*
X130137000Y-126971887D01*
X125150896Y-126971887D01*
X125269724Y-126875740D01*
X125529427Y-126397875D01*
X125543783Y-126325674D01*
X125421162Y-126111000D01*
X123571000Y-126111000D01*
X123317000Y-126111000D01*
X121466838Y-126111000D01*
X121344217Y-126325674D01*
X116534000Y-126325674D01*
X116534000Y-120904000D01*
X121259536Y-120904000D01*
X121365200Y-121435207D01*
X121666104Y-121885542D01*
X122097812Y-122174000D01*
X121666104Y-122462458D01*
X121365200Y-122912793D01*
X121259536Y-123444000D01*
X121365200Y-123975207D01*
X121666104Y-124425542D01*
X122116439Y-124726446D01*
X122119306Y-124727016D01*
X122041081Y-124750154D01*
X121618276Y-125092260D01*
X121358573Y-125570125D01*
X121344217Y-125642326D01*
X121466838Y-125857000D01*
X123317000Y-125857000D01*
X123317000Y-125837000D01*
X123571000Y-125837000D01*
X123571000Y-125857000D01*
X125421162Y-125857000D01*
X125543783Y-125642326D01*
X125529427Y-125570125D01*
X125269724Y-125092260D01*
X124846919Y-124750154D01*
X124768694Y-124727016D01*
X124771561Y-124726446D01*
X125221896Y-124425542D01*
X125522800Y-123975207D01*
X125628464Y-123444000D01*
X125596845Y-123285041D01*
X153040086Y-123285041D01*
X153279611Y-123791134D01*
X153694577Y-124167041D01*
X154082961Y-124327904D01*
X154305000Y-124205915D01*
X154305000Y-123063000D01*
X154559000Y-123063000D01*
X154559000Y-124205915D01*
X154781039Y-124327904D01*
X155169423Y-124167041D01*
X155584389Y-123791134D01*
X155823914Y-123285041D01*
X155788489Y-123220187D01*
X160616752Y-123220187D01*
X160834757Y-123747800D01*
X161238077Y-124151824D01*
X161765309Y-124370750D01*
X162336187Y-124371248D01*
X162863800Y-124153243D01*
X163267824Y-123749923D01*
X163486750Y-123222691D01*
X163487024Y-122907887D01*
X165189000Y-122907887D01*
X165189000Y-122964113D01*
X165298233Y-123513264D01*
X165609302Y-123978811D01*
X166074849Y-124289880D01*
X166624000Y-124399113D01*
X167173151Y-124289880D01*
X167638698Y-123978811D01*
X167806159Y-123728187D01*
X174332752Y-123728187D01*
X174550757Y-124255800D01*
X174954077Y-124659824D01*
X175481309Y-124878750D01*
X176052187Y-124879248D01*
X176579800Y-124661243D01*
X176983824Y-124257923D01*
X177202750Y-123730691D01*
X177203000Y-123444000D01*
X184464887Y-123444000D01*
X184574120Y-123993151D01*
X184885189Y-124458698D01*
X185350736Y-124769767D01*
X185899887Y-124879000D01*
X185956113Y-124879000D01*
X186505264Y-124769767D01*
X186970811Y-124458698D01*
X187281880Y-123993151D01*
X187391113Y-123444000D01*
X187281880Y-122894849D01*
X186970811Y-122429302D01*
X186505264Y-122118233D01*
X185956113Y-122009000D01*
X185899887Y-122009000D01*
X185350736Y-122118233D01*
X184885189Y-122429302D01*
X184574120Y-122894849D01*
X184464887Y-123444000D01*
X177203000Y-123444000D01*
X177203248Y-123159813D01*
X176985243Y-122632200D01*
X176581923Y-122228176D01*
X176054691Y-122009250D01*
X175483813Y-122008752D01*
X174956200Y-122226757D01*
X174552176Y-122630077D01*
X174333250Y-123157309D01*
X174332752Y-123728187D01*
X167806159Y-123728187D01*
X167949767Y-123513264D01*
X168059000Y-122964113D01*
X168059000Y-122907887D01*
X167949767Y-122358736D01*
X167638698Y-121893189D01*
X167173151Y-121582120D01*
X166624000Y-121472887D01*
X166074849Y-121582120D01*
X165609302Y-121893189D01*
X165298233Y-122358736D01*
X165189000Y-122907887D01*
X163487024Y-122907887D01*
X163487248Y-122651813D01*
X163269243Y-122124200D01*
X162865923Y-121720176D01*
X162338691Y-121501250D01*
X161767813Y-121500752D01*
X161240200Y-121718757D01*
X160836176Y-122122077D01*
X160617250Y-122649309D01*
X160616752Y-123220187D01*
X155788489Y-123220187D01*
X155702629Y-123063000D01*
X154559000Y-123063000D01*
X154305000Y-123063000D01*
X153161371Y-123063000D01*
X153040086Y-123285041D01*
X125596845Y-123285041D01*
X125522800Y-122912793D01*
X125221896Y-122462458D01*
X124790188Y-122174000D01*
X125221896Y-121885542D01*
X125348418Y-121696187D01*
X130136752Y-121696187D01*
X130354757Y-122223800D01*
X130758077Y-122627824D01*
X131285309Y-122846750D01*
X131856187Y-122847248D01*
X132383800Y-122629243D01*
X132787824Y-122225923D01*
X133006750Y-121698691D01*
X133007024Y-121383887D01*
X136233000Y-121383887D01*
X136233000Y-121440113D01*
X136342233Y-121989264D01*
X136653302Y-122454811D01*
X137118849Y-122765880D01*
X137668000Y-122875113D01*
X138217151Y-122765880D01*
X138484924Y-122586959D01*
X153040086Y-122586959D01*
X153161371Y-122809000D01*
X154305000Y-122809000D01*
X154305000Y-121666085D01*
X154559000Y-121666085D01*
X154559000Y-122809000D01*
X155702629Y-122809000D01*
X155823914Y-122586959D01*
X155584389Y-122080866D01*
X155169423Y-121704959D01*
X154781039Y-121544096D01*
X154559000Y-121666085D01*
X154305000Y-121666085D01*
X154082961Y-121544096D01*
X153694577Y-121704959D01*
X153279611Y-122080866D01*
X153040086Y-122586959D01*
X138484924Y-122586959D01*
X138682698Y-122454811D01*
X138993767Y-121989264D01*
X139103000Y-121440113D01*
X139103000Y-121383887D01*
X138993767Y-120834736D01*
X138682698Y-120369189D01*
X138679086Y-120366775D01*
X145001098Y-120366775D01*
X145173528Y-120784086D01*
X145492530Y-121103645D01*
X145909539Y-121276803D01*
X146361070Y-121277197D01*
X146778381Y-121104767D01*
X146828244Y-121054991D01*
X146908381Y-121248938D01*
X147227383Y-121568497D01*
X147644392Y-121741655D01*
X148095923Y-121742049D01*
X148513234Y-121569619D01*
X148832793Y-121250617D01*
X149005951Y-120833608D01*
X149006345Y-120382077D01*
X148883202Y-120084048D01*
X148909592Y-120071372D01*
X149079713Y-119878733D01*
X149579713Y-119012707D01*
X149629107Y-118872000D01*
X174304887Y-118872000D01*
X174414120Y-119421151D01*
X174725189Y-119886698D01*
X175190736Y-120197767D01*
X175739887Y-120307000D01*
X175796113Y-120307000D01*
X176345264Y-120197767D01*
X176810811Y-119886698D01*
X177121880Y-119421151D01*
X177174584Y-119156187D01*
X184492752Y-119156187D01*
X184710757Y-119683800D01*
X185114077Y-120087824D01*
X185641309Y-120306750D01*
X186212187Y-120307248D01*
X186739800Y-120089243D01*
X187143824Y-119685923D01*
X187362750Y-119158691D01*
X187363248Y-118587813D01*
X187145243Y-118060200D01*
X186741923Y-117656176D01*
X186214691Y-117437250D01*
X185643813Y-117436752D01*
X185116200Y-117654757D01*
X184712176Y-118058077D01*
X184493250Y-118585309D01*
X184492752Y-119156187D01*
X177174584Y-119156187D01*
X177231113Y-118872000D01*
X177121880Y-118322849D01*
X176810811Y-117857302D01*
X176345264Y-117546233D01*
X175796113Y-117437000D01*
X175739887Y-117437000D01*
X175190736Y-117546233D01*
X174725189Y-117857302D01*
X174414120Y-118322849D01*
X174304887Y-118872000D01*
X149629107Y-118872000D01*
X149659025Y-118786778D01*
X149646647Y-118530072D01*
X149535372Y-118298408D01*
X149342733Y-118128287D01*
X148476707Y-117628287D01*
X148250778Y-117548975D01*
X147994072Y-117561353D01*
X147762408Y-117672628D01*
X147592287Y-117865267D01*
X147092287Y-118731293D01*
X147012975Y-118957222D01*
X147025353Y-119213928D01*
X147136628Y-119445592D01*
X147319214Y-119606835D01*
X147229062Y-119644085D01*
X147179199Y-119693861D01*
X147099062Y-119499914D01*
X146780060Y-119180355D01*
X146363051Y-119007197D01*
X145911520Y-119006803D01*
X145494209Y-119179233D01*
X145174650Y-119498235D01*
X145001492Y-119915244D01*
X145001098Y-120366775D01*
X138679086Y-120366775D01*
X138217151Y-120058120D01*
X137668000Y-119948887D01*
X137118849Y-120058120D01*
X136653302Y-120369189D01*
X136342233Y-120834736D01*
X136233000Y-121383887D01*
X133007024Y-121383887D01*
X133007248Y-121127813D01*
X132789243Y-120600200D01*
X132385923Y-120196176D01*
X131858691Y-119977250D01*
X131287813Y-119976752D01*
X130760200Y-120194757D01*
X130356176Y-120598077D01*
X130137250Y-121125309D01*
X130136752Y-121696187D01*
X125348418Y-121696187D01*
X125522800Y-121435207D01*
X125628464Y-120904000D01*
X125522800Y-120372793D01*
X125221896Y-119922458D01*
X124771561Y-119621554D01*
X124240354Y-119515890D01*
X122647646Y-119515890D01*
X122116439Y-119621554D01*
X121666104Y-119922458D01*
X121365200Y-120372793D01*
X121259536Y-120904000D01*
X116534000Y-120904000D01*
X116534000Y-114778775D01*
X140937098Y-114778775D01*
X141109528Y-115196086D01*
X141428530Y-115515645D01*
X141845539Y-115688803D01*
X142297070Y-115689197D01*
X142714381Y-115516767D01*
X142764244Y-115466991D01*
X142844381Y-115660938D01*
X143163383Y-115980497D01*
X143580392Y-116153655D01*
X144031923Y-116154049D01*
X144449234Y-115981619D01*
X144768793Y-115662617D01*
X144941951Y-115245608D01*
X144942345Y-114794077D01*
X144769915Y-114376766D01*
X144734903Y-114341693D01*
X145278733Y-114027713D01*
X145460384Y-113871708D01*
X145578017Y-113643206D01*
X145597483Y-113386941D01*
X145515713Y-113143293D01*
X145467732Y-113060187D01*
X152996752Y-113060187D01*
X153214757Y-113587800D01*
X153618077Y-113991824D01*
X154145309Y-114210750D01*
X154716187Y-114211248D01*
X155243800Y-113993243D01*
X155647824Y-113589923D01*
X155656849Y-113568187D01*
X162648752Y-113568187D01*
X162866757Y-114095800D01*
X163270077Y-114499824D01*
X163797309Y-114718750D01*
X164368187Y-114719248D01*
X164895800Y-114501243D01*
X165299824Y-114097923D01*
X165518750Y-113570691D01*
X165519201Y-113052661D01*
X193420758Y-113052661D01*
X193632990Y-113566303D01*
X194025630Y-113959629D01*
X194538900Y-114172757D01*
X195094661Y-114173242D01*
X195608303Y-113961010D01*
X196001629Y-113568370D01*
X196087949Y-113360488D01*
X196172990Y-113566303D01*
X196565630Y-113959629D01*
X197078900Y-114172757D01*
X197634661Y-114173242D01*
X198148303Y-113961010D01*
X198541629Y-113568370D01*
X198754757Y-113055100D01*
X198755242Y-112499339D01*
X198543010Y-111985697D01*
X198150370Y-111592371D01*
X197637100Y-111379243D01*
X197081339Y-111378758D01*
X196567697Y-111590990D01*
X196174371Y-111983630D01*
X196088051Y-112191512D01*
X196003010Y-111985697D01*
X195610370Y-111592371D01*
X195097100Y-111379243D01*
X194541339Y-111378758D01*
X194027697Y-111590990D01*
X193634371Y-111983630D01*
X193421243Y-112496900D01*
X193420758Y-113052661D01*
X165519201Y-113052661D01*
X165519248Y-112999813D01*
X165301243Y-112472200D01*
X164897923Y-112068176D01*
X164370691Y-111849250D01*
X163799813Y-111848752D01*
X163272200Y-112066757D01*
X162868176Y-112470077D01*
X162649250Y-112997309D01*
X162648752Y-113568187D01*
X155656849Y-113568187D01*
X155866750Y-113062691D01*
X155867248Y-112491813D01*
X155649243Y-111964200D01*
X155245923Y-111560176D01*
X154718691Y-111341250D01*
X154147813Y-111340752D01*
X153620200Y-111558757D01*
X153216176Y-111962077D01*
X152997250Y-112489309D01*
X152996752Y-113060187D01*
X145467732Y-113060187D01*
X145015713Y-112277267D01*
X144859708Y-112095616D01*
X144631206Y-111977983D01*
X144374941Y-111958517D01*
X144131293Y-112040287D01*
X143265267Y-112540287D01*
X143083616Y-112696292D01*
X142965983Y-112924794D01*
X142946517Y-113181059D01*
X143028287Y-113424707D01*
X143348946Y-113980105D01*
X143165062Y-114056085D01*
X143115199Y-114105861D01*
X143035062Y-113911914D01*
X142716060Y-113592355D01*
X142299051Y-113419197D01*
X141847520Y-113418803D01*
X141430209Y-113591233D01*
X141110650Y-113910235D01*
X140937492Y-114327244D01*
X140937098Y-114778775D01*
X116534000Y-114778775D01*
X116534000Y-111223887D01*
X130137000Y-111223887D01*
X130137000Y-111280113D01*
X130246233Y-111829264D01*
X130557302Y-112294811D01*
X131022849Y-112605880D01*
X131572000Y-112715113D01*
X132121151Y-112605880D01*
X132586698Y-112294811D01*
X132897767Y-111829264D01*
X132956063Y-111536187D01*
X136232752Y-111536187D01*
X136450757Y-112063800D01*
X136854077Y-112467824D01*
X137381309Y-112686750D01*
X137952187Y-112687248D01*
X138479800Y-112469243D01*
X138883824Y-112065923D01*
X139102750Y-111538691D01*
X139103195Y-111028187D01*
X175856752Y-111028187D01*
X176074757Y-111555800D01*
X176478077Y-111959824D01*
X177005309Y-112178750D01*
X177576187Y-112179248D01*
X178103800Y-111961243D01*
X178507824Y-111557923D01*
X178726750Y-111030691D01*
X178727000Y-110744000D01*
X185988887Y-110744000D01*
X186098120Y-111293151D01*
X186409189Y-111758698D01*
X186874736Y-112069767D01*
X187423887Y-112179000D01*
X187480113Y-112179000D01*
X188029264Y-112069767D01*
X188494811Y-111758698D01*
X188805880Y-111293151D01*
X188915113Y-110744000D01*
X188805880Y-110194849D01*
X188494811Y-109729302D01*
X188029264Y-109418233D01*
X187480113Y-109309000D01*
X187423887Y-109309000D01*
X186874736Y-109418233D01*
X186409189Y-109729302D01*
X186098120Y-110194849D01*
X185988887Y-110744000D01*
X178727000Y-110744000D01*
X178727248Y-110459813D01*
X178509243Y-109932200D01*
X178105923Y-109528176D01*
X177578691Y-109309250D01*
X177007813Y-109308752D01*
X176480200Y-109526757D01*
X176076176Y-109930077D01*
X175857250Y-110457309D01*
X175856752Y-111028187D01*
X139103195Y-111028187D01*
X139103248Y-110967813D01*
X138885243Y-110440200D01*
X138481923Y-110036176D01*
X137954691Y-109817250D01*
X137383813Y-109816752D01*
X136856200Y-110034757D01*
X136452176Y-110438077D01*
X136233250Y-110965309D01*
X136232752Y-111536187D01*
X132956063Y-111536187D01*
X133007000Y-111280113D01*
X133007000Y-111223887D01*
X132897767Y-110674736D01*
X132586698Y-110209189D01*
X132121151Y-109898120D01*
X131572000Y-109788887D01*
X131022849Y-109898120D01*
X130557302Y-110209189D01*
X130246233Y-110674736D01*
X130137000Y-111223887D01*
X116534000Y-111223887D01*
X116534000Y-109561674D01*
X121852217Y-109561674D01*
X121866573Y-109633875D01*
X122126276Y-110111740D01*
X122549081Y-110453846D01*
X123070620Y-110608110D01*
X123825000Y-110608110D01*
X123825000Y-109347000D01*
X124079000Y-109347000D01*
X124079000Y-110608110D01*
X124833380Y-110608110D01*
X125354919Y-110453846D01*
X125777724Y-110111740D01*
X126037427Y-109633875D01*
X126051783Y-109561674D01*
X125929162Y-109347000D01*
X124079000Y-109347000D01*
X123825000Y-109347000D01*
X121974838Y-109347000D01*
X121852217Y-109561674D01*
X116534000Y-109561674D01*
X116534000Y-106680000D01*
X121767536Y-106680000D01*
X121873200Y-107211207D01*
X122174104Y-107661542D01*
X122624439Y-107962446D01*
X122627306Y-107963016D01*
X122549081Y-107986154D01*
X122126276Y-108328260D01*
X121866573Y-108806125D01*
X121852217Y-108878326D01*
X121974838Y-109093000D01*
X123825000Y-109093000D01*
X123825000Y-109073000D01*
X124079000Y-109073000D01*
X124079000Y-109093000D01*
X125929162Y-109093000D01*
X126051783Y-108878326D01*
X126037427Y-108806125D01*
X125777724Y-108328260D01*
X125354919Y-107986154D01*
X125276694Y-107963016D01*
X125279561Y-107962446D01*
X125729896Y-107661542D01*
X126030800Y-107211207D01*
X126136464Y-106680000D01*
X126060044Y-106295807D01*
X130291797Y-106295807D01*
X130585508Y-106948776D01*
X131106742Y-107439642D01*
X131668195Y-107672195D01*
X131953000Y-107555432D01*
X131953000Y-106011000D01*
X132207000Y-106011000D01*
X132207000Y-107555432D01*
X132491805Y-107672195D01*
X133053258Y-107439642D01*
X133574492Y-106948776D01*
X133711560Y-106644050D01*
X174441000Y-106644050D01*
X174441000Y-106715950D01*
X174580681Y-107418174D01*
X174978459Y-108013491D01*
X175573776Y-108411269D01*
X176276000Y-108550950D01*
X176978224Y-108411269D01*
X177573541Y-108013491D01*
X177971319Y-107418174D01*
X178111000Y-106715950D01*
X178111000Y-106644050D01*
X177971319Y-105941826D01*
X177573541Y-105346509D01*
X176978224Y-104948731D01*
X176276000Y-104809050D01*
X175573776Y-104948731D01*
X174978459Y-105346509D01*
X174580681Y-105941826D01*
X174441000Y-106644050D01*
X133711560Y-106644050D01*
X133868203Y-106295807D01*
X133751858Y-106011000D01*
X132207000Y-106011000D01*
X131953000Y-106011000D01*
X130408142Y-106011000D01*
X130291797Y-106295807D01*
X126060044Y-106295807D01*
X126030800Y-106148793D01*
X125729896Y-105698458D01*
X125391267Y-105472193D01*
X130291797Y-105472193D01*
X130408142Y-105757000D01*
X131953000Y-105757000D01*
X131953000Y-104212568D01*
X132207000Y-104212568D01*
X132207000Y-105757000D01*
X133751858Y-105757000D01*
X133868203Y-105472193D01*
X133574492Y-104819224D01*
X133053258Y-104328358D01*
X132897413Y-104263807D01*
X147055797Y-104263807D01*
X147349508Y-104916776D01*
X147870742Y-105407642D01*
X148432195Y-105640195D01*
X148717000Y-105523432D01*
X148717000Y-103979000D01*
X148971000Y-103979000D01*
X148971000Y-105523432D01*
X149255805Y-105640195D01*
X149817258Y-105407642D01*
X150338492Y-104916776D01*
X150632203Y-104263807D01*
X150515858Y-103979000D01*
X148971000Y-103979000D01*
X148717000Y-103979000D01*
X147172142Y-103979000D01*
X147055797Y-104263807D01*
X132897413Y-104263807D01*
X132491805Y-104095805D01*
X132207000Y-104212568D01*
X131953000Y-104212568D01*
X131668195Y-104095805D01*
X131106742Y-104328358D01*
X130585508Y-104819224D01*
X130291797Y-105472193D01*
X125391267Y-105472193D01*
X125279561Y-105397554D01*
X124748354Y-105291890D01*
X123155646Y-105291890D01*
X122624439Y-105397554D01*
X122174104Y-105698458D01*
X121873200Y-106148793D01*
X121767536Y-106680000D01*
X116534000Y-106680000D01*
X116534000Y-103440193D01*
X147055797Y-103440193D01*
X147172142Y-103725000D01*
X148717000Y-103725000D01*
X148717000Y-102180568D01*
X148971000Y-102180568D01*
X148971000Y-103725000D01*
X150515858Y-103725000D01*
X150632203Y-103440193D01*
X150477332Y-103095887D01*
X162649000Y-103095887D01*
X162649000Y-103152113D01*
X162758233Y-103701264D01*
X163069302Y-104166811D01*
X163534849Y-104477880D01*
X164084000Y-104587113D01*
X164633151Y-104477880D01*
X165098698Y-104166811D01*
X165409767Y-103701264D01*
X165429526Y-103601928D01*
X183885000Y-103601928D01*
X183885000Y-103662072D01*
X184001845Y-104249491D01*
X184334591Y-104747481D01*
X184832581Y-105080227D01*
X185420000Y-105197072D01*
X186007419Y-105080227D01*
X186505409Y-104747481D01*
X186838155Y-104249491D01*
X186955000Y-103662072D01*
X186955000Y-103601928D01*
X186838155Y-103014509D01*
X186505409Y-102516519D01*
X186007419Y-102183773D01*
X185420000Y-102066928D01*
X184832581Y-102183773D01*
X184334591Y-102516519D01*
X184001845Y-103014509D01*
X183885000Y-103601928D01*
X165429526Y-103601928D01*
X165519000Y-103152113D01*
X165519000Y-103095887D01*
X165409767Y-102546736D01*
X165098698Y-102081189D01*
X164633151Y-101770120D01*
X164084000Y-101660887D01*
X163534849Y-101770120D01*
X163069302Y-102081189D01*
X162758233Y-102546736D01*
X162649000Y-103095887D01*
X150477332Y-103095887D01*
X150338492Y-102787224D01*
X149817258Y-102296358D01*
X149255805Y-102063805D01*
X148971000Y-102180568D01*
X148717000Y-102180568D01*
X148432195Y-102063805D01*
X147870742Y-102296358D01*
X147349508Y-102787224D01*
X147055797Y-103440193D01*
X116534000Y-103440193D01*
X116534000Y-102567745D01*
X138871861Y-102567745D01*
X138945995Y-102813864D01*
X139483223Y-103006965D01*
X140053454Y-102979778D01*
X140454005Y-102813864D01*
X140528139Y-102567745D01*
X139700000Y-101739605D01*
X138871861Y-102567745D01*
X116534000Y-102567745D01*
X116534000Y-101343223D01*
X138253035Y-101343223D01*
X138280222Y-101913454D01*
X138446136Y-102314005D01*
X138692255Y-102388139D01*
X139520395Y-101560000D01*
X139879605Y-101560000D01*
X140707745Y-102388139D01*
X140953864Y-102314005D01*
X141146965Y-101776777D01*
X141119778Y-101206546D01*
X140953864Y-100805995D01*
X140707745Y-100731861D01*
X139879605Y-101560000D01*
X139520395Y-101560000D01*
X138692255Y-100731861D01*
X138446136Y-100805995D01*
X138253035Y-101343223D01*
X116534000Y-101343223D01*
X116534000Y-98260000D01*
X138252560Y-98260000D01*
X138252560Y-99860000D01*
X138296838Y-100095317D01*
X138435910Y-100311441D01*
X138648110Y-100456431D01*
X138886201Y-100504646D01*
X138871861Y-100552255D01*
X139700000Y-101380395D01*
X140528139Y-100552255D01*
X140513855Y-100504833D01*
X140735317Y-100463162D01*
X140951441Y-100324090D01*
X141096431Y-100111890D01*
X141147440Y-99860000D01*
X141147440Y-99684000D01*
X153900560Y-99684000D01*
X153900560Y-101484000D01*
X153944838Y-101719317D01*
X154083910Y-101935441D01*
X154296110Y-102080431D01*
X154548000Y-102131440D01*
X156348000Y-102131440D01*
X156583317Y-102087162D01*
X156799441Y-101948090D01*
X156944431Y-101735890D01*
X156948567Y-101715466D01*
X157117357Y-101884551D01*
X157681330Y-102118733D01*
X158291991Y-102119265D01*
X158856371Y-101886068D01*
X159288551Y-101454643D01*
X159522733Y-100890670D01*
X159523265Y-100280009D01*
X159290068Y-99715629D01*
X158858643Y-99283449D01*
X158849485Y-99279646D01*
X190635890Y-99279646D01*
X190635890Y-100872354D01*
X190741554Y-101403561D01*
X191042458Y-101853896D01*
X191492793Y-102154800D01*
X192024000Y-102260464D01*
X192555207Y-102154800D01*
X193005542Y-101853896D01*
X193294000Y-101422188D01*
X193582458Y-101853896D01*
X194032793Y-102154800D01*
X194564000Y-102260464D01*
X195095207Y-102154800D01*
X195545542Y-101853896D01*
X195846446Y-101403561D01*
X195952110Y-100872354D01*
X195952110Y-99279646D01*
X195846446Y-98748439D01*
X195545542Y-98298104D01*
X195095207Y-97997200D01*
X194564000Y-97891536D01*
X194032793Y-97997200D01*
X193582458Y-98298104D01*
X193294000Y-98729812D01*
X193005542Y-98298104D01*
X192555207Y-97997200D01*
X192024000Y-97891536D01*
X191492793Y-97997200D01*
X191042458Y-98298104D01*
X190741554Y-98748439D01*
X190635890Y-99279646D01*
X158849485Y-99279646D01*
X158294670Y-99049267D01*
X157684009Y-99048735D01*
X157119629Y-99281932D01*
X156951387Y-99449880D01*
X156951162Y-99448683D01*
X156812090Y-99232559D01*
X156599890Y-99087569D01*
X156348000Y-99036560D01*
X154548000Y-99036560D01*
X154312683Y-99080838D01*
X154096559Y-99219910D01*
X153951569Y-99432110D01*
X153900560Y-99684000D01*
X141147440Y-99684000D01*
X141147440Y-98260000D01*
X141103162Y-98024683D01*
X140964090Y-97808559D01*
X140751890Y-97663569D01*
X140500000Y-97612560D01*
X138900000Y-97612560D01*
X138664683Y-97656838D01*
X138448559Y-97795910D01*
X138303569Y-98008110D01*
X138252560Y-98260000D01*
X116534000Y-98260000D01*
X116534000Y-96679323D01*
X162771323Y-96679323D01*
X162825499Y-96886294D01*
X163214591Y-97557804D01*
X163831041Y-98029300D01*
X164581000Y-98229000D01*
X165481000Y-98229000D01*
X165481000Y-96371000D01*
X165735000Y-96371000D01*
X165735000Y-98229000D01*
X166635000Y-98229000D01*
X167384959Y-98029300D01*
X168001409Y-97557804D01*
X168390501Y-96886294D01*
X168444677Y-96679323D01*
X168329829Y-96371000D01*
X165735000Y-96371000D01*
X165481000Y-96371000D01*
X162886171Y-96371000D01*
X162771323Y-96679323D01*
X116534000Y-96679323D01*
X116534000Y-94457928D01*
X123941000Y-94457928D01*
X123941000Y-94518072D01*
X124057845Y-95105491D01*
X124390591Y-95603481D01*
X124888581Y-95936227D01*
X125476000Y-96053072D01*
X126063419Y-95936227D01*
X126254311Y-95808677D01*
X162771323Y-95808677D01*
X162886171Y-96117000D01*
X165481000Y-96117000D01*
X165481000Y-94259000D01*
X165735000Y-94259000D01*
X165735000Y-96117000D01*
X168329829Y-96117000D01*
X168444677Y-95808677D01*
X168390501Y-95601706D01*
X168001409Y-94930196D01*
X167384959Y-94458700D01*
X166635000Y-94259000D01*
X165735000Y-94259000D01*
X165481000Y-94259000D01*
X164581000Y-94259000D01*
X163831041Y-94458700D01*
X163214591Y-94930196D01*
X162825499Y-95601706D01*
X162771323Y-95808677D01*
X126254311Y-95808677D01*
X126561409Y-95603481D01*
X126894155Y-95105491D01*
X127011000Y-94518072D01*
X127011000Y-94457928D01*
X126894155Y-93870509D01*
X126561409Y-93372519D01*
X126063419Y-93039773D01*
X125476000Y-92922928D01*
X124888581Y-93039773D01*
X124390591Y-93372519D01*
X124057845Y-93870509D01*
X123941000Y-94457928D01*
X116534000Y-94457928D01*
X116534000Y-90794000D01*
X162666480Y-90794000D01*
X162817579Y-91553627D01*
X163247873Y-92197607D01*
X163891853Y-92627901D01*
X164651480Y-92779000D01*
X166564520Y-92779000D01*
X167324147Y-92627901D01*
X167407808Y-92572000D01*
X183872560Y-92572000D01*
X183872560Y-94372000D01*
X183916838Y-94607317D01*
X184055910Y-94823441D01*
X184268110Y-94968431D01*
X184520000Y-95019440D01*
X186320000Y-95019440D01*
X186555317Y-94975162D01*
X186771441Y-94836090D01*
X186916431Y-94623890D01*
X186967440Y-94372000D01*
X186967440Y-92572000D01*
X186923162Y-92336683D01*
X186784090Y-92120559D01*
X186571890Y-91975569D01*
X186320000Y-91924560D01*
X184520000Y-91924560D01*
X184284683Y-91968838D01*
X184068559Y-92107910D01*
X183923569Y-92320110D01*
X183872560Y-92572000D01*
X167407808Y-92572000D01*
X167968127Y-92197607D01*
X168398421Y-91553627D01*
X168549520Y-90794000D01*
X168398421Y-90034373D01*
X167968127Y-89390393D01*
X167324147Y-88960099D01*
X166564520Y-88809000D01*
X164651480Y-88809000D01*
X163891853Y-88960099D01*
X163247873Y-89390393D01*
X162817579Y-90034373D01*
X162666480Y-90794000D01*
X116534000Y-90794000D01*
X116534000Y-86684000D01*
X130232560Y-86684000D01*
X130232560Y-89084000D01*
X130276838Y-89319317D01*
X130415910Y-89535441D01*
X130628110Y-89680431D01*
X130880000Y-89731440D01*
X133280000Y-89731440D01*
X133515317Y-89687162D01*
X133731441Y-89548090D01*
X133876431Y-89335890D01*
X133927440Y-89084000D01*
X133927440Y-86684000D01*
X133883162Y-86448683D01*
X133744090Y-86232559D01*
X133531890Y-86087569D01*
X133280000Y-86036560D01*
X130880000Y-86036560D01*
X130644683Y-86080838D01*
X130428559Y-86219910D01*
X130283569Y-86432110D01*
X130232560Y-86684000D01*
X116534000Y-86684000D01*
X116534000Y-83428000D01*
X123928560Y-83428000D01*
X123928560Y-85228000D01*
X123972838Y-85463317D01*
X124111910Y-85679441D01*
X124324110Y-85824431D01*
X124576000Y-85875440D01*
X126376000Y-85875440D01*
X126611317Y-85831162D01*
X126827441Y-85692090D01*
X126972431Y-85479890D01*
X127023440Y-85228000D01*
X127023440Y-84652000D01*
X146996560Y-84652000D01*
X146996560Y-87052000D01*
X147040838Y-87287317D01*
X147179910Y-87503441D01*
X147392110Y-87648431D01*
X147644000Y-87699440D01*
X150044000Y-87699440D01*
X150279317Y-87655162D01*
X150495441Y-87516090D01*
X150520100Y-87480000D01*
X174428560Y-87480000D01*
X174428560Y-89880000D01*
X174472838Y-90115317D01*
X174611910Y-90331441D01*
X174824110Y-90476431D01*
X175076000Y-90527440D01*
X177476000Y-90527440D01*
X177711317Y-90483162D01*
X177927441Y-90344090D01*
X178072431Y-90131890D01*
X178123440Y-89880000D01*
X178123440Y-87480000D01*
X178079162Y-87244683D01*
X177940090Y-87028559D01*
X177727890Y-86883569D01*
X177476000Y-86832560D01*
X175076000Y-86832560D01*
X174840683Y-86876838D01*
X174624559Y-87015910D01*
X174479569Y-87228110D01*
X174428560Y-87480000D01*
X150520100Y-87480000D01*
X150640431Y-87303890D01*
X150691440Y-87052000D01*
X150691440Y-84652000D01*
X150647162Y-84416683D01*
X150508090Y-84200559D01*
X150295890Y-84055569D01*
X150210184Y-84038213D01*
X155663392Y-84038213D01*
X155732857Y-84280397D01*
X156256302Y-84467144D01*
X156811368Y-84439362D01*
X157195143Y-84280397D01*
X157264608Y-84038213D01*
X157220395Y-83994000D01*
X162710560Y-83994000D01*
X162710560Y-86694000D01*
X162754838Y-86929317D01*
X162893910Y-87145441D01*
X163106110Y-87290431D01*
X163358000Y-87341440D01*
X167858000Y-87341440D01*
X168093317Y-87297162D01*
X168309441Y-87158090D01*
X168454431Y-86945890D01*
X168505440Y-86694000D01*
X168505440Y-83994000D01*
X168461162Y-83758683D01*
X168322090Y-83542559D01*
X168109890Y-83397569D01*
X167858000Y-83346560D01*
X163358000Y-83346560D01*
X163122683Y-83390838D01*
X162906559Y-83529910D01*
X162761569Y-83742110D01*
X162710560Y-83994000D01*
X157220395Y-83994000D01*
X156464000Y-83237605D01*
X155663392Y-84038213D01*
X150210184Y-84038213D01*
X150044000Y-84004560D01*
X147644000Y-84004560D01*
X147408683Y-84048838D01*
X147192559Y-84187910D01*
X147047569Y-84400110D01*
X146996560Y-84652000D01*
X127023440Y-84652000D01*
X127023440Y-83428000D01*
X126979162Y-83192683D01*
X126840090Y-82976559D01*
X126627890Y-82831569D01*
X126376000Y-82780560D01*
X124576000Y-82780560D01*
X124340683Y-82824838D01*
X124124559Y-82963910D01*
X123979569Y-83176110D01*
X123928560Y-83428000D01*
X116534000Y-83428000D01*
X116534000Y-82064661D01*
X152526758Y-82064661D01*
X152738990Y-82578303D01*
X153131630Y-82971629D01*
X153644900Y-83184757D01*
X154200661Y-83185242D01*
X154714303Y-82973010D01*
X154837225Y-82850302D01*
X155054856Y-82850302D01*
X155082638Y-83405368D01*
X155241603Y-83789143D01*
X155483787Y-83858608D01*
X156284395Y-83058000D01*
X156643605Y-83058000D01*
X157444213Y-83858608D01*
X157686397Y-83789143D01*
X157873144Y-83265698D01*
X157845362Y-82710632D01*
X157686397Y-82326857D01*
X157444213Y-82257392D01*
X156643605Y-83058000D01*
X156284395Y-83058000D01*
X155483787Y-82257392D01*
X155241603Y-82326857D01*
X155054856Y-82850302D01*
X154837225Y-82850302D01*
X155107629Y-82580370D01*
X155316319Y-82077787D01*
X155663392Y-82077787D01*
X156464000Y-82878395D01*
X157264608Y-82077787D01*
X157260844Y-82064661D01*
X157606758Y-82064661D01*
X157818990Y-82578303D01*
X158211630Y-82971629D01*
X158724900Y-83184757D01*
X159280661Y-83185242D01*
X159794303Y-82973010D01*
X160187629Y-82580370D01*
X160400757Y-82067100D01*
X160401242Y-81511339D01*
X160189010Y-80997697D01*
X159796370Y-80604371D01*
X159283100Y-80391243D01*
X158727339Y-80390758D01*
X158213697Y-80602990D01*
X157820371Y-80995630D01*
X157607243Y-81508900D01*
X157606758Y-82064661D01*
X157260844Y-82064661D01*
X157195143Y-81835603D01*
X156671698Y-81648856D01*
X156116632Y-81676638D01*
X155732857Y-81835603D01*
X155663392Y-82077787D01*
X155316319Y-82077787D01*
X155320757Y-82067100D01*
X155321242Y-81511339D01*
X155109010Y-80997697D01*
X154716370Y-80604371D01*
X154203100Y-80391243D01*
X153647339Y-80390758D01*
X153133697Y-80602990D01*
X152740371Y-80995630D01*
X152527243Y-81508900D01*
X152526758Y-82064661D01*
X116534000Y-82064661D01*
X116534000Y-78942000D01*
X204014000Y-78942000D01*
X204014000Y-128667800D01*
M02*
