M48
;DRILL file {KiCad 4.0.5} date 06/09/17 23:26:54
;FORMAT={-:-/ absolute / metric / decimal}
FMAT,2
METRIC,TZ
T1C0.600
T2C0.762
T3C0.800
T4C0.900
T5C0.998
T6C1.200
T7C1.700
%
G90
G05
M71
T1
X141.732Y-128.524
X142.072Y-114.554
X143.467Y-128.989
X143.807Y-115.019
X143.932Y-127.254
X144.272Y-113.284
X145.796Y-134.62
X146.136Y-120.142
X147.531Y-135.085
X147.871Y-120.607
X147.996Y-133.35
X148.336Y-118.872
T2
X153.924Y-81.788
X156.464Y-83.058
X159.004Y-81.788
X194.818Y-112.776
X197.358Y-112.776
T3
X131.572Y-111.252
X131.572Y-121.412
X131.572Y-127.
X131.572Y-137.16
X137.16Y-127.
X137.16Y-137.16
X137.668Y-111.252
X137.668Y-121.412
X139.7Y-99.06
X139.7Y-101.56
X154.432Y-112.776
X154.432Y-122.936
X154.432Y-127.508
X154.432Y-137.668
X162.052Y-122.936
X162.052Y-133.096
X164.084Y-103.124
X164.084Y-113.284
X166.624Y-122.936
X166.624Y-133.096
X172.212Y-127.
X172.212Y-134.62
X174.752Y-127.
X174.752Y-134.62
X175.768Y-118.872
X175.768Y-123.444
X177.292Y-110.744
X177.292Y-127.
X177.292Y-134.62
X179.832Y-127.
X179.832Y-134.62
X182.372Y-127.
X182.372Y-134.62
X184.912Y-127.
X184.912Y-134.62
X185.928Y-118.872
X185.928Y-123.444
X187.452Y-110.744
X187.452Y-127.
X187.452Y-134.62
T4
X125.476Y-84.328
X125.476Y-94.488
X155.448Y-100.584
X157.988Y-100.584
X165.608Y-145.288
X169.164Y-140.208
X175.768Y-145.288
X179.324Y-140.208
X185.42Y-93.472
X185.42Y-103.632
X192.532Y-130.048
X202.692Y-130.048
T5
X123.444Y-120.904
X123.444Y-123.444
X123.444Y-125.984
X123.952Y-106.68
X123.952Y-109.22
X192.024Y-100.076
X194.564Y-100.076
T6
X132.08Y-87.884
X132.08Y-105.884
X148.844Y-85.852
X148.844Y-103.852
X176.276Y-88.68
X176.276Y-106.68
T7
X165.608Y-85.344
X165.608Y-90.794
X165.608Y-96.244
T0
M30
