G04 #@! TF.FileFunction,Soldermask,Top*
%FSLAX46Y46*%
G04 Gerber Fmt 4.6, Leading zero omitted, Abs format (unit mm)*
G04 Created by KiCad (PCBNEW 4.0.5) date 06/09/17 23:26:50*
%MOMM*%
%LPD*%
G01*
G04 APERTURE LIST*
%ADD10C,0.100000*%
%ADD11R,2.800000X2.800000*%
%ADD12O,2.800000X2.800000*%
%ADD13C,1.400000*%
%ADD14R,2.000000X2.000000*%
%ADD15C,2.000000*%
%ADD16R,2.200000X2.200000*%
%ADD17O,2.200000X2.200000*%
%ADD18C,2.200000*%
%ADD19O,3.414980X1.906220*%
%ADD20O,1.906220X3.414980*%
%ADD21O,2.000000X2.000000*%
%ADD22C,1.924000*%
%ADD23R,4.900000X3.100000*%
%ADD24O,4.900000X3.100000*%
G04 APERTURE END LIST*
D10*
D11*
X132080000Y-87884000D03*
D12*
X132080000Y-105884000D03*
D13*
X143807148Y-115018852D03*
X142072295Y-114554000D03*
D10*
G36*
X143315782Y-113027782D02*
X144528218Y-112327782D01*
X145228218Y-113540218D01*
X144015782Y-114240218D01*
X143315782Y-113027782D01*
X143315782Y-113027782D01*
G37*
D14*
X139700000Y-99060000D03*
D15*
X139700000Y-101560000D03*
D11*
X176276000Y-88680000D03*
D12*
X176276000Y-106680000D03*
D16*
X125476000Y-84328000D03*
D17*
X125476000Y-94488000D03*
D16*
X165608000Y-145288000D03*
D17*
X175768000Y-145288000D03*
D16*
X179324000Y-140208000D03*
D17*
X169164000Y-140208000D03*
D16*
X155448000Y-100584000D03*
D18*
X157988000Y-100584000D03*
D16*
X185420000Y-93472000D03*
D17*
X185420000Y-103632000D03*
D16*
X202692000Y-130048000D03*
D17*
X192532000Y-130048000D03*
D19*
X123952000Y-109220000D03*
X123952000Y-106680000D03*
X123444000Y-125984000D03*
X123444000Y-123444000D03*
X123444000Y-120904000D03*
D20*
X194564000Y-100076000D03*
X192024000Y-100076000D03*
D13*
X143466853Y-128988852D03*
X141732000Y-128524000D03*
D10*
G36*
X142975487Y-126997782D02*
X144187923Y-126297782D01*
X144887923Y-127510218D01*
X143675487Y-128210218D01*
X142975487Y-126997782D01*
X142975487Y-126997782D01*
G37*
D13*
X147871148Y-120606852D03*
X146136295Y-120142000D03*
D10*
G36*
X147379782Y-119128218D02*
X148079782Y-117915782D01*
X149292218Y-118615782D01*
X148592218Y-119828218D01*
X147379782Y-119128218D01*
X147379782Y-119128218D01*
G37*
D13*
X147530853Y-135084852D03*
X145796000Y-134620000D03*
D10*
G36*
X147039487Y-133093782D02*
X148251923Y-132393782D01*
X148951923Y-133606218D01*
X147739487Y-134306218D01*
X147039487Y-133093782D01*
X147039487Y-133093782D01*
G37*
D15*
X131572000Y-121412000D03*
D21*
X131572000Y-111252000D03*
D15*
X131572000Y-137160000D03*
D21*
X131572000Y-127000000D03*
D15*
X137668000Y-111252000D03*
D21*
X137668000Y-121412000D03*
D15*
X137160000Y-127000000D03*
D21*
X137160000Y-137160000D03*
D15*
X154432000Y-112776000D03*
D21*
X154432000Y-122936000D03*
D15*
X154432000Y-137668000D03*
D21*
X154432000Y-127508000D03*
D15*
X166624000Y-133096000D03*
D21*
X166624000Y-122936000D03*
D15*
X162052000Y-122936000D03*
D21*
X162052000Y-133096000D03*
D15*
X175768000Y-123444000D03*
D21*
X185928000Y-123444000D03*
D15*
X185928000Y-118872000D03*
D21*
X175768000Y-118872000D03*
D15*
X177292000Y-110744000D03*
D21*
X187452000Y-110744000D03*
D15*
X164084000Y-113284000D03*
D21*
X164084000Y-103124000D03*
D14*
X172212000Y-134620000D03*
D21*
X187452000Y-127000000D03*
X174752000Y-134620000D03*
X184912000Y-127000000D03*
X177292000Y-134620000D03*
X182372000Y-127000000D03*
X179832000Y-134620000D03*
X179832000Y-127000000D03*
X182372000Y-134620000D03*
X177292000Y-127000000D03*
X184912000Y-134620000D03*
X174752000Y-127000000D03*
X187452000Y-134620000D03*
X172212000Y-127000000D03*
D11*
X148844000Y-85852000D03*
D12*
X148844000Y-103852000D03*
D22*
X194818000Y-112776000D03*
X197358000Y-112776000D03*
D23*
X165608000Y-85344000D03*
D24*
X165608000Y-90794000D03*
X165608000Y-96244000D03*
D22*
X153924000Y-81788000D03*
X156464000Y-83058000D03*
X159004000Y-81788000D03*
M02*
